<svg width="15" height="20" viewBox="0 0 15 20" fill="none" xmlns="http://www.w3.org/2000/svg">
<path fill-rule="evenodd" clip-rule="evenodd" d="M11.1344 13.9732V15.9683C11.1344 18.0823 9.42079 19.7959 7.30688 19.7959C5.19298 19.7959 3.47932 18.0823 3.47932 15.9683V13.9732C3.47932 13.7864 3.41313 13.5825 3.2568 13.3141C3.15636 13.1417 3.02496 12.9522 2.82672 12.69L2.76003 12.603L2.75996 12.6029C2.62756 12.4303 2.33853 12.0536 2.23182 11.9095C1.15067 10.4492 0.608643 9.14558 0.608643 7.35632C0.608643 3.65699 3.60755 0.658081 7.30688 0.658081C11.0062 0.658081 14.0051 3.65699 14.0051 7.35632C14.0051 9.18471 13.4557 10.5378 12.3837 11.9953C12.2701 12.1498 11.9835 12.5223 11.8137 12.743L11.8137 12.743C11.7473 12.8293 11.6988 12.8923 11.6855 12.91C11.4689 13.1981 11.3344 13.4025 11.2469 13.5799C11.1677 13.7404 11.1344 13.8644 11.1344 13.9732ZM9.26261 13.5179C9.31143 13.2533 9.40217 12.9936 9.53066 12.7332C9.68171 12.427 9.87379 12.1353 10.1558 11.7601C10.1751 11.7344 10.2374 11.6535 10.3177 11.549L10.3181 11.5484L10.3182 11.5484C10.4905 11.3243 10.746 10.9921 10.8422 10.8614C11.6925 9.70527 12.0915 8.72266 12.0915 7.35631C12.0915 4.71392 9.94938 2.57185 7.307 2.57185C4.66462 2.57185 2.52254 4.71392 2.52254 7.35631C2.52254 8.67543 2.91167 9.61133 3.77004 10.7707C3.86218 10.8952 4.12239 11.2344 4.26296 11.4177L4.26303 11.4178L4.35353 11.5359C4.59397 11.854 4.76406 12.0992 4.91063 12.3509C5.13891 12.7428 5.29046 13.1248 5.3561 13.5209C5.95235 13.8788 6.5969 14.0545 7.30686 14.0545C8.0188 14.0545 8.66497 13.8778 9.26261 13.5179ZM9.22078 15.9683V15.6453C8.61554 15.8601 7.97611 15.9683 7.30686 15.9683C6.63772 15.9683 5.99838 15.8601 5.39322 15.6454V15.9683C5.39322 17.0253 6.25005 17.8821 7.307 17.8821C8.36395 17.8821 9.22078 17.0253 9.22078 15.9683Z" fill="white"/>
<path d="M3.89429 8.40751L5.21629 6.9317L7.43722 9.16136L9.55148 6.9317L10.7198 8.715" stroke="#FFED8C"/>
</svg>
