<svg width="201" height="178" viewBox="0 0 201 178" fill="none" xmlns="http://www.w3.org/2000/svg">
<path d="M200.301 134.082H103.857V131.286L197.086 101.235C197.366 101.095 197.506 100.956 197.506 100.676C197.506 100.397 197.506 100.117 197.366 99.9772L132.092 38.4769C131.952 38.3371 131.672 38.1973 131.393 38.3371C131.113 38.3371 130.973 38.6167 130.834 38.7564L103.857 126.534V1.29713C103.857 0.877813 103.578 0.598267 103.159 0.598267C102.739 0.598267 102.46 0.877813 102.46 1.29713V124.018L76.4618 39.1757C76.322 38.8962 76.1823 38.7564 75.9027 38.7564C75.6232 38.7564 75.3436 38.7564 75.2038 38.8962L74.7845 39.3155C74.505 39.3155 74.2254 39.4553 74.0857 39.8746V40.0144L44.1742 67.9691C43.8946 67.9691 43.7548 67.9691 43.4753 68.1089C43.3355 68.2486 43.1957 68.5282 43.3355 68.8077L7.41371 102.353C7.27394 102.493 7.13416 102.773 7.27393 103.052C7.27393 103.332 7.55351 103.472 7.83306 103.611L101.341 129.749L101.621 130.028C101.761 130.168 101.901 130.308 102.18 130.308C102.32 130.308 102.46 130.308 102.46 130.168V134.222H0.704605C0.285284 134.222 0.0057373 134.501 0.0057373 134.921C0.0057373 135.34 0.285284 135.619 0.704605 135.619H102.46V176.713C102.46 177.132 102.739 177.412 103.159 177.412C103.578 177.412 103.857 177.132 103.857 176.713V135.619H200.301C200.72 135.619 201 135.34 201 134.921C201 134.501 200.72 134.082 200.301 134.082ZM161.165 68.1089L154.455 75.2373C154.176 75.5168 154.176 75.9362 154.455 76.2157C154.595 76.3555 154.735 76.3555 155.014 76.3555C155.154 76.3555 155.434 76.2157 155.574 76.0759L162.283 68.9475L195.409 100.257L105.814 129.19L106.932 128.072C107.212 127.792 107.212 127.373 106.932 127.093C106.653 126.814 106.234 126.814 105.954 127.093L104.976 128.211L120.071 79.5703L129.576 82.3657H129.715C129.995 82.3657 130.275 82.226 130.414 81.8066C130.554 81.3873 130.275 80.968 129.855 80.968L120.351 78.3123L131.253 43.0894L133.909 51.4758C134.048 51.7553 134.328 52.0349 134.608 52.0349C134.747 52.0349 134.747 52.0349 134.887 52.0349C135.306 51.8951 135.446 51.4758 135.306 51.1963L132.371 41.5519C132.371 41.4121 132.231 41.2723 132.092 41.1326V40.9928L161.165 68.1089ZM52.8401 114.653L54.3776 109.761C54.5174 109.342 54.2379 108.923 53.9583 108.923C53.539 108.783 53.1197 109.062 53.1197 109.342L51.5821 114.234L9.6501 102.493L14.4024 101.095C14.8217 100.956 14.9615 100.536 14.9615 100.257C14.8217 99.8374 14.4024 99.6976 14.1229 99.6976L11.8865 100.396L44.5935 69.7861L47.3889 72.7214C47.5287 72.8612 47.6685 73.0009 47.948 73.0009C48.0878 73.0009 48.3673 73.0009 48.5071 72.8612C48.7867 72.5816 48.7867 72.1623 48.5071 71.8827L45.7116 68.9475L73.6663 42.8099L73.1072 44.7667C72.9675 45.186 73.247 45.6053 73.5266 45.6053C73.6664 45.6053 73.6663 45.6053 73.8061 45.6053C74.0857 45.6053 74.3652 45.4656 74.505 45.0462L75.7629 40.7133L87.2244 78.3123L82.3323 79.7101C81.913 79.8498 81.7732 80.2691 81.7732 80.5487C81.913 80.8282 82.1925 81.1078 82.4721 81.1078H82.6119L87.5039 79.7101L102.46 128.491H102.18L99.2449 125.416C98.9653 125.136 98.546 125.136 98.2665 125.416C97.9869 125.696 97.9869 126.115 98.2665 126.394L99.5244 127.652L52.8401 114.653Z" fill="#666666"/>
<path d="M67.3769 64.0555C67.5166 64.0555 67.5167 64.0555 67.6564 64.0555C67.936 64.0555 68.2155 63.9157 68.3553 63.4964L71.1508 54.2713C71.2905 53.852 71.011 53.4327 70.7315 53.4327C70.3121 53.2929 69.8928 53.5725 69.8928 53.852L67.0973 63.0771C66.8178 63.4964 66.9575 63.9157 67.3769 64.0555Z" fill="#666666"/>
<path d="M59.4096 90.4727C58.9903 90.3329 58.5709 90.6125 58.5709 90.892L55.7755 100.117C55.6357 100.536 55.9152 100.956 56.1948 100.956C56.3345 100.956 56.3346 100.956 56.4743 100.956C56.7539 100.956 57.0334 100.816 57.1732 100.397L59.9687 91.1716C59.9687 90.892 59.8289 90.4727 59.4096 90.4727Z" fill="#666666"/>
<path d="M61.7858 82.5055C61.9256 82.5055 61.9256 82.5055 62.0654 82.5055C62.3449 82.5055 62.6245 82.3657 62.7642 81.9464L65.5597 72.7213C65.6995 72.302 65.4199 71.8827 65.1404 71.8827C64.7211 71.7429 64.3018 72.0225 64.3018 72.302L61.5063 81.5271C61.2267 82.0862 61.3665 82.5055 61.7858 82.5055Z" fill="#666666"/>
<path d="M33.2721 93.967L23.4879 96.9022C23.0686 97.042 22.9288 97.4613 22.9288 97.7409C23.0686 98.0204 23.3482 98.3 23.6277 98.3H23.7675L33.5516 95.3647C33.9709 95.225 34.1107 94.8056 34.1107 94.5261C33.9709 94.1068 33.5516 93.967 33.2721 93.967Z" fill="#666666"/>
<path d="M52.7005 88.2363L42.9164 91.1715C42.4971 91.3113 42.3573 91.7306 42.3573 92.0101C42.4971 92.2897 42.7766 92.5693 43.0562 92.5693H43.1959L52.9801 89.634C53.3994 89.4942 53.5392 89.0749 53.5392 88.7954C53.3994 88.376 53.1198 88.2363 52.7005 88.2363Z" fill="#666666"/>
<path d="M62.7643 86.8385L72.5484 83.9033C72.9677 83.7635 73.1075 83.3442 73.1075 83.0646C72.9677 82.6453 72.5484 82.5055 72.2689 82.5055L62.4847 85.4408C62.0654 85.5806 61.9256 85.9999 61.9256 86.2794C61.9256 86.4192 62.0654 86.559 62.2052 86.559L55.3563 79.2908C55.0768 79.0112 54.6574 79.0112 54.3779 79.2908C54.0983 79.5703 54.0983 79.9896 54.3779 80.2692L61.6461 87.9567C61.7859 88.0965 61.9256 88.2363 62.2052 88.2363C62.345 88.2363 62.6245 88.2363 62.7643 88.0965C63.0438 87.8169 63.0438 87.3976 62.7643 87.1181L62.4847 86.6988C62.6245 86.8385 62.7643 86.8385 62.9041 86.8385C62.6245 86.8385 62.7643 86.8385 62.7643 86.8385Z" fill="#666666"/>
<path d="M84.4292 110.041C84.1496 109.761 83.7303 109.761 83.4507 110.041C83.1712 110.321 83.1712 110.74 83.4507 111.019L90.719 118.707C90.8588 118.847 90.9985 118.986 91.2781 118.986C91.4178 118.986 91.6974 118.986 91.8372 118.847C92.1167 118.567 92.1167 118.148 91.8372 117.868L84.4292 110.041Z" fill="#666666"/>
<path d="M69.8928 94.8055C69.6133 94.526 69.1939 94.526 68.9144 94.8055C68.6348 95.0851 68.6348 95.5044 68.9144 95.784L76.1826 103.472C76.3224 103.611 76.4621 103.751 76.7417 103.751C76.8815 103.751 77.161 103.751 77.3008 103.611C77.5803 103.332 77.5803 102.912 77.3008 102.633L69.8928 94.8055Z" fill="#666666"/>
<path d="M139.779 70.6247C139.919 70.9042 140.199 71.1838 140.478 71.1838C140.618 71.1838 140.618 71.1838 140.758 71.1838C141.177 71.044 141.317 70.6247 141.177 70.3451L138.242 60.7008C138.102 60.2814 137.683 60.1417 137.403 60.2815C136.984 60.4212 136.844 60.8406 136.984 61.1201L139.779 70.6247Z" fill="#666666"/>
<path d="M149.284 98.8589C148.865 98.9987 148.725 99.418 148.865 99.6976L151.8 109.342C151.94 109.622 152.219 109.901 152.499 109.901C152.639 109.901 152.639 109.901 152.778 109.901C153.198 109.761 153.337 109.342 153.198 109.062L150.262 99.418C150.123 98.8589 149.703 98.7192 149.284 98.8589Z" fill="#666666"/>
<path d="M144.252 84.8817L139.64 83.6237C139.22 83.4839 138.801 83.7635 138.801 84.1828C138.661 84.6022 138.941 85.0214 139.36 85.0214L144.252 86.4192L140.758 90.0533C140.478 90.3328 140.478 90.7522 140.758 91.0317C140.897 91.1715 141.037 91.1715 141.317 91.1715C141.457 91.1715 141.736 91.0317 141.876 90.8919L145.23 87.2578L146.069 89.7738C146.209 90.0533 146.488 90.3329 146.768 90.3329C146.908 90.3329 146.908 90.3329 147.048 90.3329C147.467 90.1931 147.607 89.7738 147.467 89.4942L146.628 86.8385L149.284 87.5374H149.424C149.703 87.5374 149.983 87.3976 150.123 86.9783C150.262 86.559 149.983 86.1397 149.563 86.1397L146.908 85.4408L148.725 83.484C149.004 83.2044 149.004 82.7851 148.725 82.5055C148.445 82.226 148.026 82.226 147.746 82.5055L145.929 84.4624L144.532 79.7101C144.392 79.2907 143.973 79.151 143.693 79.2908C143.274 79.4305 143.134 79.8498 143.274 80.1294L144.252 84.8817Z" fill="#666666"/>
<path d="M119.792 112.277L112.803 119.685C112.523 119.965 112.523 120.384 112.803 120.664C112.943 120.804 113.083 120.804 113.362 120.804C113.502 120.804 113.781 120.664 113.921 120.524L120.91 113.116C121.189 112.836 121.189 112.417 120.91 112.138C120.491 111.858 120.071 111.858 119.792 112.277Z" fill="#666666"/>
<path d="M133.629 97.4613L126.641 104.869C126.361 105.149 126.361 105.568 126.641 105.848C126.78 105.987 126.92 105.987 127.2 105.987C127.34 105.987 127.619 105.848 127.759 105.708L134.748 98.2999C135.027 98.0204 135.027 97.6011 134.748 97.3215C134.468 97.042 133.909 97.1818 133.629 97.4613Z" fill="#666666"/>
<path d="M178.357 96.0636L188.141 98.8591H188.281C188.56 98.8591 188.84 98.7193 188.979 98.3C189.119 97.8807 188.84 97.4614 188.42 97.4614L178.636 94.6659C178.217 94.5261 177.798 94.8057 177.798 95.225C177.658 95.5045 177.937 95.9239 178.357 96.0636Z" fill="#666666"/>
<path d="M158.789 90.4727L168.573 93.2682H168.713C168.992 93.2682 169.272 93.1284 169.411 92.7091C169.551 92.2898 169.272 91.8705 168.852 91.8705L159.068 89.075C158.649 88.9352 158.229 89.2148 158.229 89.6341C158.229 90.0534 158.369 90.333 158.789 90.4727Z" fill="#666666"/>
<path d="M90.7187 137.576C88.2027 137.576 85.2675 140.372 84.7084 142.748C84.2891 144.146 84.7084 145.264 85.6868 145.823C86.6652 146.382 87.5039 146.662 88.2028 146.662C89.3209 146.662 90.1596 146.102 90.5789 145.823C90.8584 145.543 90.8584 145.124 90.5789 144.845C90.2993 144.565 89.88 144.565 89.6005 144.845C89.4607 144.984 88.3425 145.963 86.3857 144.705C86.2459 144.565 85.6868 144.285 86.1062 143.167C86.6653 141.35 89.0414 139.114 90.7187 139.114C91.2778 139.114 91.4175 139.254 91.4175 139.254C91.5573 139.533 91.138 140.512 90.4391 141.35C90.1596 141.63 90.2993 142.049 90.5789 142.329C90.8584 142.608 91.2778 142.468 91.5573 142.189C91.8369 141.77 93.3744 139.813 92.6755 138.555C92.5357 138.135 91.9766 137.576 90.7187 137.576Z" fill="#666666"/>
<path d="M97.2884 140.372C97.0089 140.372 96.5895 140.651 96.5895 140.931C96.1702 142.748 95.3316 144.984 94.7725 145.124C94.4929 144.845 94.3531 142.888 94.6327 141.21C94.6327 140.791 94.3531 140.512 93.9338 140.372C93.5145 140.372 93.235 140.651 93.0952 141.071C92.9554 142.329 92.6759 145.264 93.7941 146.242C94.0736 146.522 94.4929 146.662 94.9122 146.522C95.7509 146.382 96.31 145.683 96.7293 144.705C96.7293 147.36 96.31 150.016 94.7725 150.435C94.3531 150.575 94.2134 150.995 94.2134 151.274C94.3532 151.554 94.6327 151.833 94.9122 151.833H95.052C98.9657 150.715 97.8475 142.049 97.7077 140.931C97.9873 140.651 97.7077 140.372 97.2884 140.372Z" fill="#666666"/>
<path d="M110.427 137.017C108.75 137.157 105.954 137.436 105.535 138.834C105.395 139.533 105.674 140.232 106.653 140.791C107.631 141.49 108.47 141.769 109.169 141.769C109.588 141.769 109.868 141.63 110.147 141.49C111.545 140.651 111.405 138.415 111.265 137.576C111.126 137.157 110.846 136.877 110.427 137.017ZM109.309 140.232C109.029 140.372 108.33 140.232 107.352 139.533C107.072 139.253 106.932 139.114 106.793 139.114C107.072 138.834 108.33 138.555 109.728 138.415C109.868 139.393 109.728 140.092 109.309 140.232Z" fill="#666666"/>
<path d="M121.469 144.146C121.749 143.866 121.749 143.447 121.469 143.167C121.19 142.888 120.77 142.888 120.491 143.167C120.071 143.726 118.394 145.124 117.276 144.565C116.577 144.285 115.878 143.027 116.018 141.49C116.018 140.651 116.437 138.974 118.534 137.996C119.512 137.576 119.932 137.576 119.932 137.716C120.211 137.996 119.932 139.533 119.373 140.791C119.233 141.21 119.373 141.63 119.792 141.769C120.211 141.909 120.63 141.769 120.77 141.35C121.19 140.512 122.168 137.856 121.05 136.738C120.351 136.039 119.373 136.039 117.975 136.738C115.878 137.576 114.62 139.393 114.62 141.49C114.62 143.447 115.459 145.264 116.717 145.823C117.136 145.963 117.555 146.102 117.975 146.102C119.652 146.102 121.329 144.285 121.469 144.146Z" fill="#666666"/>
<path d="M123.565 144.845C123.146 144.705 122.727 144.984 122.727 145.404C122.587 145.823 122.867 146.242 123.286 146.242C123.565 146.382 123.845 146.382 124.125 146.382C125.103 146.382 126.081 145.963 126.78 145.264C126.92 145.404 126.92 145.543 127.06 145.543C127.759 146.102 128.597 146.382 129.576 146.382C129.995 146.382 130.554 146.242 131.113 146.102C131.533 145.963 131.672 145.543 131.672 145.264C131.533 144.845 131.113 144.705 130.834 144.705C129.576 144.984 128.737 144.845 128.178 144.285C128.038 144.146 128.038 144.146 127.898 144.006C129.576 141.909 130.694 139.254 130.694 138.974C130.834 138.555 130.694 138.135 130.275 137.996C129.855 137.856 129.436 137.996 129.296 138.415C128.877 139.393 128.178 141.071 127.06 142.468C126.64 141.071 126.78 139.254 126.92 138.415C126.92 137.996 126.64 137.716 126.361 137.576C125.942 137.576 125.662 137.856 125.522 138.135C125.522 138.275 125.103 141.35 126.081 143.587C125.243 144.705 124.404 144.984 123.565 144.845Z" fill="#666666"/>
<path d="M132.371 28.1337C132.371 28.1337 132.511 28.1337 132.371 28.1337C132.791 28.1337 133.21 27.8541 133.21 27.5746L134.468 18.7688C134.608 18.7688 134.608 18.7689 134.747 18.6291C136.145 17.7904 137.822 17.2313 138.102 17.3711C138.102 17.3711 138.242 17.5109 138.102 18.07C137.403 20.4461 136.704 21.2848 136.425 21.5643C136.285 21.5643 136.285 21.7041 136.145 21.7041C135.866 21.9836 135.726 22.403 136.005 22.6825C136.145 22.9621 136.565 23.1018 136.984 22.962C136.984 22.962 137.124 22.8223 137.403 22.6825C138.242 22.1234 139.22 21.5643 139.5 21.7041C139.5 21.7041 139.64 21.8439 139.5 22.5427C138.941 25.478 137.962 27.4348 136.984 27.9939C136.425 28.2734 135.866 27.9939 135.027 27.4348C134.747 27.1553 134.188 27.2951 134.049 27.5746C133.769 27.8541 133.909 28.4132 134.188 28.553C135.027 29.1121 135.726 29.3916 136.565 29.3916C136.984 29.3916 137.263 29.3916 137.543 29.2519C139.5 28.4132 140.478 25.3382 141.037 22.8223C141.177 21.7041 141.037 21.0052 140.478 20.5859C140.059 20.3064 139.64 20.3064 139.22 20.4461C139.5 19.8871 139.64 19.3279 139.919 18.4893C140.199 17.5109 140.059 16.6723 139.5 16.2529C138.521 15.4143 136.565 16.2529 135.167 16.9518L135.446 14.5756C135.446 14.1563 135.167 13.8768 134.887 13.737C134.468 13.737 134.188 14.0166 134.049 14.2961L132.232 27.1553C131.672 27.7143 131.952 28.1337 132.371 28.1337Z" fill="#666666"/>
<path d="M140.199 29.9507C139.779 29.811 139.36 29.9508 139.22 30.3701C139.08 30.7894 139.22 31.2087 139.64 31.3485C140.199 31.4882 140.618 31.628 141.177 31.628C141.876 31.628 142.435 31.4882 142.994 31.2087C143.134 31.2087 143.274 31.0689 143.274 30.9292C143.833 32.0474 144.532 33.0258 145.51 33.4451C145.79 33.5848 145.929 33.5849 146.209 33.5849C147.187 33.5849 148.166 33.0257 149.144 31.9076C149.424 31.628 149.424 31.2087 149.144 30.9292C148.865 30.6496 148.445 30.6496 148.166 30.9292C147.607 31.628 146.768 32.3269 146.069 32.0473C145.51 31.9076 144.951 31.0689 144.532 29.9507C145.929 28.1337 146.628 25.7575 146.628 25.6177C146.768 25.1984 146.488 24.7791 146.069 24.7791C145.65 24.6394 145.231 24.9189 145.231 25.3382C145.231 25.3382 144.811 27.0155 143.973 28.2735C143.693 27.4348 143.553 26.4564 143.413 25.6177C143.413 25.1984 142.994 24.9189 142.575 24.9189C142.155 24.9189 141.876 25.3382 141.876 25.7575C141.876 26.0371 142.156 27.8541 142.715 29.5314C142.575 29.6712 142.435 29.811 142.155 29.9507C141.736 30.2303 141.037 30.2303 140.199 29.9507Z" fill="#666666"/>
<path d="M75.4836 31.0689H75.6234C75.903 31.0689 76.3223 30.7894 76.3223 30.5098L77.8598 23.2416C79.1177 22.5427 80.3757 21.9836 80.795 21.9836C80.5155 23.8007 79.1177 24.9189 79.1177 24.9189C78.8382 25.1984 78.6984 25.478 78.978 25.8973C79.1177 26.1768 79.5371 26.3166 79.8166 26.1769C80.6553 25.7575 82.1927 25.478 82.7518 25.8973C83.0314 26.0371 83.0314 26.5962 82.8916 26.8757C82.6121 28.8326 81.2143 30.0905 80.2359 30.2303C79.6768 30.3701 79.2575 30.0905 78.978 29.5314C78.8382 29.1121 78.4189 28.9723 77.9995 29.2519C77.5802 29.3916 77.4405 29.811 77.72 30.2303C78.2791 31.2087 79.1177 31.7678 80.0961 31.7678C80.2359 31.7678 80.3757 31.7678 80.5155 31.7678C82.3325 31.4883 84.0098 29.5314 84.4291 27.1553C84.7087 25.7575 84.1496 25.0587 83.7303 24.7791C83.1712 24.22 82.3325 24.22 81.4939 24.22C81.7734 23.6609 82.053 22.9621 82.1927 22.1234C82.3325 21.2848 81.9132 20.8655 81.6337 20.7257C80.795 20.1666 79.3973 20.7257 78.1393 21.2848L78.4189 20.0268C78.5587 19.6075 78.2791 19.1882 77.8598 19.1882C77.4404 19.0484 77.0211 19.328 77.0211 19.7473L76.462 22.403C76.462 22.5427 76.462 22.5427 76.462 22.6825L74.9245 30.0905C74.7848 30.5098 75.0643 30.9292 75.4836 31.0689Z" fill="#666666"/>
<path d="M86.9451 36.2405C84.7087 36.2405 83.8701 34.0042 83.8701 33.8644C83.7303 33.4451 83.311 33.3053 82.8916 33.445C82.4723 33.5848 82.3326 34.0042 82.4723 34.4235C82.4723 34.5632 83.5905 37.778 86.9451 37.778C90.2996 37.778 91.2781 31.2087 91.4178 29.9507C91.4178 29.5314 91.2781 29.2518 90.8587 29.1121C90.4394 28.9723 90.1599 29.2519 90.0201 29.6712C89.8803 30.0905 89.461 31.3485 88.7621 31.628C88.6224 31.7678 88.3428 31.7678 88.2031 31.628C88.0633 31.628 87.9235 31.4882 87.7837 31.2087C87.5042 30.5098 87.7837 29.1121 88.0633 28.4132C88.2031 27.9939 88.0633 27.5746 87.6439 27.4348C87.2246 27.295 86.8053 27.4348 86.6655 27.8541C86.5258 28.1337 85.8269 30.3701 86.5258 31.7678C86.8053 32.3269 87.2246 32.7462 87.7837 32.886C88.3428 33.0257 88.9019 33.0257 89.461 32.7462C88.7621 34.5632 87.9235 36.2405 86.9451 36.2405Z" fill="#666666"/>
<path d="M30.0574 148.479C30.1972 148.479 30.4767 148.618 30.7563 148.618C31.1756 148.618 31.4551 148.339 31.4551 147.92C31.4551 147.5 31.1756 147.221 30.7563 147.221C30.6165 147.221 30.4767 147.221 30.3369 147.081C28.7994 146.662 27.821 147.221 26.004 151.274C25.8642 151.554 25.8642 151.693 25.7244 151.973C25.1653 150.016 24.6062 147.78 24.1869 145.683C24.0471 145.264 23.7676 144.984 23.3482 145.124C22.9289 145.264 22.6494 145.543 22.7892 145.963C23.6278 149.597 24.3267 152.253 24.8858 153.93C23.0687 157.704 22.2301 158.263 22.0903 158.123C22.0903 158.123 21.671 157.983 21.3914 156.725C21.2517 156.306 20.8323 156.166 20.5528 156.306C20.1335 156.446 19.9937 156.865 20.1335 157.145C20.2732 157.704 20.8323 159.521 22.2301 159.521C22.2301 159.521 22.2301 159.521 22.3699 159.521C23.488 159.521 24.6062 158.123 25.8642 155.747C26.8426 157.983 27.4017 157.983 27.821 157.983C29.4983 157.983 31.4551 156.166 31.5949 156.026C31.8745 155.747 31.8745 155.328 31.5949 155.048C31.3154 154.768 30.896 154.768 30.6165 155.048C30.0574 155.607 28.7994 156.585 27.9608 156.585C27.6812 156.306 27.2619 155.328 26.8426 153.93C27.1221 153.231 27.5415 152.532 27.821 151.693C29.079 148.199 29.6381 148.479 30.0574 148.479Z" fill="#666666"/>
<path d="M40.4005 164.133C39.9812 164.692 39.8414 164.832 39.7017 164.972C39.4221 164.413 39.4221 162.596 39.4221 161.478C39.4221 160.499 39.4221 159.661 39.2823 158.962C39.1426 158.123 38.7232 157.843 38.4437 157.843C38.1642 157.843 37.3255 157.564 34.9494 161.198L35.6482 157.843C35.788 157.424 35.5085 157.005 35.0891 157.005C34.6698 156.865 34.2505 157.145 34.2505 157.564L32.4334 165.531C32.2936 165.95 32.5732 166.23 32.8528 166.37C33.1323 166.509 33.5516 166.37 33.6914 166.09C35.0891 163.574 36.9062 160.639 37.7448 159.661C37.7448 160.22 37.7448 160.919 37.8846 161.617C38.0244 164.133 38.0244 166.09 39.2823 166.509C39.4221 166.509 39.5619 166.509 39.5619 166.509C40.4005 166.509 41.0994 165.671 41.6585 164.972C41.938 164.692 41.7982 164.133 41.5187 163.994C41.0994 163.854 40.6801 163.854 40.4005 164.133Z" fill="#666666"/>
<path d="M52.2813 153.371H48.9267L49.346 151.274C49.4858 150.855 49.2063 150.435 48.787 150.435C48.3676 150.296 47.9483 150.575 47.9483 150.994L47.529 153.371H44.7335C44.3142 153.371 44.0347 153.65 44.0347 154.07C44.0347 154.489 44.3142 154.768 44.7335 154.768H47.2494L46.9699 156.446C46.8301 156.865 47.1097 157.284 47.529 157.284H47.6688C47.9483 157.284 48.3677 157.005 48.3677 156.725L48.787 154.768H52.4211C52.8404 154.768 53.1199 154.489 53.1199 154.07C52.9802 153.65 52.7006 153.371 52.2813 153.371Z" fill="#666666"/>
<path d="M60.388 148.618C60.1084 148.618 59.6892 148.758 59.5494 149.038C58.571 151.134 56.6141 153.93 55.6357 153.65C55.6357 153.65 55.496 153.65 55.3562 153.51C54.6573 152.532 55.0766 149.457 55.4959 147.64C55.6357 147.221 55.3562 146.801 54.9368 146.801C54.5175 146.662 54.0982 146.941 54.0982 147.36C53.9584 148.199 52.98 152.532 54.238 154.349C54.5175 154.768 54.9368 155.048 55.4959 155.188C57.1732 155.467 58.7107 153.65 59.6891 151.973C59.6891 154.349 59.5494 157.983 58.571 159.94C57.8721 161.058 57.1732 161.757 56.4744 161.617C55.7755 161.617 55.2164 160.918 54.9368 160.08C54.7971 159.66 54.3778 159.521 53.9585 159.66C53.5391 159.8 53.3993 160.22 53.5391 160.639C53.9584 162.037 55.0766 163.015 56.3346 163.155C56.4743 163.155 56.4744 163.155 56.6141 163.155C57.4528 163.155 58.7107 162.735 59.9687 160.779C61.9255 157.424 61.2266 149.737 61.0869 149.457C60.9471 149.038 60.6675 148.758 60.388 148.618Z" fill="#666666"/>
<path d="M72.5484 161.478C72.2689 161.338 71.7098 161.338 71.57 161.757C70.8711 163.015 70.4518 163.434 70.312 163.574C70.0325 163.155 69.7529 161.617 69.4734 160.499C69.3336 159.66 69.1938 158.822 68.9143 157.983C68.7745 157.564 68.495 156.446 67.5166 156.446C67.0972 156.446 66.2586 156.446 64.8609 160.359V157.424C64.8609 157.005 64.5813 156.725 64.162 156.725C63.7427 156.725 63.4631 157.005 63.4631 157.424V165.391C63.4631 165.81 63.7427 166.09 64.162 166.09C64.162 166.09 64.162 166.09 64.3018 166.09C64.5813 166.09 64.8609 165.811 65.0007 165.531C65.6995 162.596 66.8177 159.241 67.5166 158.123V158.263C67.6563 159.101 67.9359 159.94 68.0756 160.779C68.495 163.295 68.9143 164.832 70.0325 165.112C70.8711 165.251 71.7098 164.553 72.828 162.596C72.9677 162.037 72.9677 161.617 72.5484 161.478Z" fill="#666666"/>
<path d="M134.747 152.252C134.328 152.113 133.909 152.392 133.909 152.672C132.651 156.725 129.017 165.531 127.479 168.885C127.339 168.187 127.2 167.488 126.78 166.929C126.361 166.09 126.221 159.66 126.221 153.93C126.221 153.51 125.942 153.231 125.662 153.231C125.383 153.231 124.963 153.371 124.823 153.79C124.823 153.79 122.587 160.639 121.609 164.273C120.63 167.348 118.953 167.767 118.953 167.767C118.534 167.907 118.254 168.187 118.394 168.606C118.394 169.025 118.813 169.305 119.233 169.165C119.372 169.165 121.888 168.746 123.006 164.692C123.566 163.015 124.264 160.639 124.823 158.542C124.963 162.456 125.103 166.929 125.662 167.767C125.942 168.047 126.081 168.886 126.221 169.445C126.501 170.423 126.641 171.262 127.339 171.401H127.479C127.898 171.401 128.178 171.122 128.458 170.703C129.156 169.305 133.909 157.983 135.446 153.231C135.446 152.812 135.167 152.392 134.747 152.252Z" fill="#666666"/>
<path d="M154.456 163.295L146.489 159.661C146.069 159.521 145.65 159.66 145.51 160.08C145.37 160.499 145.51 160.918 145.929 161.058L149.284 162.596L136.704 163.714C136.285 163.714 136.005 164.133 136.005 164.553C136.005 164.972 136.285 165.251 136.704 165.251L149.703 164.133C150.123 164.133 150.402 163.714 150.402 163.295C150.402 163.295 150.402 163.295 150.402 163.155L152.359 163.993L143.973 168.047C143.553 168.187 143.413 168.606 143.693 169.025C143.833 169.305 144.112 169.445 144.392 169.445C144.532 169.445 144.671 169.445 144.671 169.305L154.456 164.553C154.735 164.413 154.875 164.133 154.875 163.854C154.875 163.574 154.735 163.295 154.456 163.295Z" fill="#666666"/>
<path d="M167.455 168.047C167.315 168.187 165.218 170.144 162.562 168.606C160.326 167.348 159.208 165.251 158.789 164.133L160.745 163.295C162.982 162.316 164.1 158.542 164.1 156.306C163.96 154.349 163.122 153.79 162.562 153.51C161.584 153.231 160.466 154.07 159.208 156.585C159.208 156.725 159.068 156.725 159.068 156.865C159.068 156.446 159.068 156.026 159.068 155.747C159.068 155.328 158.789 155.048 158.369 155.048C157.95 155.048 157.67 155.328 157.67 155.747C157.67 157.284 157.531 158.962 157.531 160.499C155.853 164.692 154.316 170.004 155.853 171.122C155.993 171.262 156.273 171.401 156.552 171.401C156.692 171.401 156.832 171.401 156.972 171.262C157.67 170.982 158.23 168.886 158.509 166.23C159.208 167.348 160.326 168.746 162.003 169.724C164.939 171.401 167.594 169.864 168.713 168.886C168.992 168.606 168.992 168.187 168.713 167.907C168.153 167.767 167.734 167.767 167.455 168.047ZM156.412 168.886C156.412 168.466 156.552 167.907 156.692 167.208C156.552 167.907 156.412 168.466 156.412 168.886ZM158.649 160.918C160.047 157.424 161.444 155.328 161.864 155.188C162.143 155.328 162.423 155.887 162.423 156.585C162.562 158.542 161.444 161.617 160.047 162.176L158.649 162.736C158.649 162.176 158.649 161.478 158.649 160.918Z" fill="#666666"/>
</svg>
