<svg width="9" height="13" viewBox="0 0 9 13" fill="none" xmlns="http://www.w3.org/2000/svg">
<path d="M4.51105 0.251007C5.70105 0.251007 6.59072 0.46634 7.18005 0.897007C7.76938 1.31634 8.06405 1.97934 8.06405 2.88601C8.06405 3.39601 7.96205 3.83234 7.75805 4.19501C7.56538 4.55767 7.32172 4.89201 7.02705 5.19801C6.73238 5.49267 6.43205 5.79867 6.12605 6.11601C5.83138 6.43334 5.57072 6.79601 5.34405 7.20401C5.12872 7.61201 5.00405 8.10501 4.97005 8.68301H3.28705C3.27572 8.08234 3.34938 7.55534 3.50805 7.10201C3.67805 6.64867 3.88772 6.25201 4.13705 5.91201C4.39772 5.57201 4.65838 5.26601 4.91905 4.99401C5.17972 4.71067 5.40072 4.43301 5.58205 4.16101C5.76338 3.88901 5.86538 3.59434 5.88805 3.27701C5.91072 2.81234 5.77472 2.47234 5.48005 2.25701C5.18538 2.04167 4.70372 1.93401 4.03505 1.93401C3.46838 1.93401 3.00372 1.93967 2.64105 1.95101C2.28972 1.96234 1.96105 1.97934 1.65505 2.00201C1.36038 2.01334 1.02038 2.03034 0.635049 2.05301L0.550049 0.642007C0.867382 0.58534 1.15072 0.53434 1.40005 0.489007C1.66072 0.443674 1.92705 0.404007 2.19905 0.370007C2.47105 0.324673 2.78838 0.29634 3.15105 0.285007C3.52505 0.26234 3.97838 0.251007 4.51105 0.251007ZM4.37505 10.026C4.65838 10.026 4.85105 10.077 4.95305 10.179C5.05505 10.281 5.10605 10.4737 5.10605 10.757V11.607C5.10605 11.8903 5.05505 12.0887 4.95305 12.202C4.85105 12.304 4.65838 12.355 4.37505 12.355H3.88205C3.59872 12.355 3.40605 12.304 3.30405 12.202C3.20205 12.0887 3.15105 11.8903 3.15105 11.607V10.757C3.15105 10.4737 3.20205 10.281 3.30405 10.179C3.40605 10.077 3.59872 10.026 3.88205 10.026H4.37505Z" fill="white"/>
</svg>
