<svg width="22" height="22" viewBox="0 0 22 22" fill="none" xmlns="http://www.w3.org/2000/svg">
<path d="M14.8833 15.685C14.5477 15.3494 14.0036 15.3494 13.668 15.685L11.845 17.508C11.5094 17.8436 10.9652 17.8436 10.6297 17.508L4.49213 11.3706C4.1565 11.0349 4.1565 10.4908 4.49213 10.1552L6.31512 8.33225C6.65071 7.99662 6.65071 7.4525 6.31512 7.11692L3.88446 4.68626C3.54883 4.35067 3.00472 4.35067 2.66913 4.68626L1.63608 5.71932C-0.54536 7.90075 -0.54536 11.4376 1.63608 13.619L8.38123 20.3642C10.5627 22.5456 14.0995 22.5456 16.281 20.3642L17.314 19.3311C17.6496 18.9955 17.6496 18.4514 17.314 18.1158L14.8833 15.685Z" fill="url(#paint0_linear)"/>
<path d="M21.1406 0H12.5898C12.1152 0 11.7305 0.384742 11.7305 0.859376V7.69141C11.7305 8.16604 12.1152 8.55079 12.5898 8.55079H14.8672V10.7957C14.8672 11.1629 15.298 11.3609 15.5766 11.1219L18.5737 8.55079H21.1406C21.6153 8.55079 22 8.16604 22 7.69141V0.859376C22 0.384742 21.6153 0 21.1406 0ZM16.1133 6.23047H14.3086C13.9526 6.23047 13.6641 5.94189 13.6641 5.58594C13.6641 5.22999 13.9526 4.94141 14.3086 4.94141H16.1133C16.4692 4.94141 16.7578 5.22999 16.7578 5.58594C16.7578 5.94189 16.4692 6.23047 16.1133 6.23047ZM19.4219 3.65235H14.3086C13.9526 3.65235 13.6641 3.36377 13.6641 3.00781C13.6641 2.65186 13.9526 2.36328 14.3086 2.36328H19.4219C19.7778 2.36328 20.0664 2.65186 20.0664 3.00781C20.0664 3.36377 19.7778 3.65235 19.4219 3.65235Z" fill="url(#paint1_linear)"/>
<defs>
<linearGradient id="paint0_linear" x1="7.41946e-08" y1="5.80079" x2="14.0526" y2="22.5858" gradientUnits="userSpaceOnUse">
<stop stop-color="#0863B8"/>
<stop offset="1" stop-color="#8222BC"/>
</linearGradient>
<linearGradient id="paint1_linear" x1="11.7305" y1="0.873154" x2="20.8179" y2="10.8026" gradientUnits="userSpaceOnUse">
<stop stop-color="#0863B8"/>
<stop offset="1" stop-color="#8222BC"/>
</linearGradient>
</defs>
</svg>
