<svg width="85" height="85" viewBox="0 0 85 85" fill="none" xmlns="http://www.w3.org/2000/svg">
<path d="M12.6473 23.7768C18.6389 23.7768 23.4961 18.9196 23.4961 12.928C23.4961 6.93643 18.6389 2.07928 12.6473 2.07928C6.65573 2.07928 1.79858 6.93643 1.79858 12.928C1.79858 18.9196 6.65573 23.7768 12.6473 23.7768Z" fill="#98ADF8"/>
<path d="M53.3302 45.4743C59.3218 45.4743 64.1789 40.6171 64.1789 34.6255C64.1789 28.6339 59.3218 23.7768 53.3302 23.7768C47.3386 23.7768 42.4814 28.6339 42.4814 34.6255C42.4814 40.6171 47.3386 45.4743 53.3302 45.4743Z" fill="#98ADF8"/>
<path d="M19.4278 75.3083C27.6662 75.3083 34.3448 68.6297 34.3448 60.3913C34.3448 52.1529 27.6662 45.4743 19.4278 45.4743C11.1893 45.4743 4.51074 52.1529 4.51074 60.3913C4.51074 68.6297 11.1893 75.3083 19.4278 75.3083Z" fill="#98ADF8"/>
<path d="M75.0277 18.3524C79.5214 18.3524 83.1642 14.7095 83.1642 10.2158C83.1642 5.72215 79.5214 2.07928 75.0277 2.07928C70.534 2.07928 66.8911 5.72215 66.8911 10.2158C66.8911 14.7095 70.534 18.3524 75.0277 18.3524Z" fill="#98ADF8"/>
<path d="M47.2277 83.4449C50.5979 83.4449 53.3301 80.7127 53.3301 77.3425C53.3301 73.9722 50.5979 71.2401 47.2277 71.2401C43.8574 71.2401 41.1252 73.9722 41.1252 77.3425C41.1252 80.7127 43.8574 83.4449 47.2277 83.4449Z" fill="#98ADF8"/>
<path d="M53.33 27.8451C51.989 27.8451 50.678 28.2427 49.563 28.9878C48.448 29.7328 47.5789 30.7918 47.0657 32.0308C46.5525 33.2697 46.4182 34.6331 46.6798 35.9483C46.9415 37.2636 47.5873 38.4718 48.5355 39.42C49.4838 40.3683 50.6919 41.0141 52.0072 41.2757C53.3225 41.5373 54.6858 41.4031 55.9248 40.8899C57.1638 40.3767 58.2227 39.5076 58.9678 38.3926C59.7128 37.2775 60.1105 35.9666 60.1105 34.6255C60.1083 32.8279 59.3933 31.1045 58.1222 29.8334C56.851 28.5623 55.1277 27.8472 53.33 27.8451ZM53.33 38.6938C52.5254 38.6938 51.7388 38.4552 51.0698 38.0082C50.4008 37.5612 49.8794 36.9258 49.5714 36.1824C49.2635 35.439 49.1829 34.621 49.3399 33.8318C49.4969 33.0427 49.8844 32.3178 50.4533 31.7488C51.0223 31.1799 51.7472 30.7924 52.5363 30.6354C53.3255 30.4784 54.1435 30.559 54.8869 30.8669C55.6303 31.1748 56.2657 31.6963 56.7127 32.3653C57.1597 33.0343 57.3983 33.8209 57.3983 34.6255C57.3983 35.7045 56.9697 36.7393 56.2067 37.5022C55.4438 38.2652 54.409 38.6938 53.33 38.6938Z" fill="#333333"/>
<path d="M79.6004 66.51C81.1165 68.3286 81.8964 70.6491 81.7865 73.0142C81.6766 75.3793 80.6848 77.6175 79.0066 79.2877C77.3283 80.9578 75.0854 81.9388 72.7197 82.0373C70.3541 82.1358 68.0374 81.3447 66.2261 79.8198C64.4149 78.2949 63.2404 76.1469 62.9343 73.7991C62.6282 71.4513 63.2125 69.074 64.5722 67.1357C65.9319 65.1973 67.9683 63.8386 70.2801 63.3272C72.5919 62.8158 75.0114 63.1888 77.0618 64.3728L78.4178 62.0254C76.8706 61.1289 75.1442 60.5858 73.3624 60.435C71.5805 60.2842 69.7874 60.5296 68.1115 61.1534L59.9628 44.8572C61.4456 43.9016 62.7028 42.6348 63.6469 41.1447C64.5911 39.6545 65.1998 37.9768 65.4306 36.2279C65.6614 34.4789 65.5089 32.7007 64.9836 31.0167C64.4584 29.3326 63.573 27.783 62.3888 26.4754L69.8039 18.1327C71.8129 19.4621 74.2509 19.9811 76.6271 19.5852C79.0034 19.1892 81.1413 17.9077 82.6107 15.9987C84.08 14.0897 84.7715 11.6949 84.546 9.2965C84.3206 6.89808 83.1948 4.67414 81.3954 3.07241C79.5961 1.47069 77.2567 0.610139 74.8483 0.664005C72.4399 0.717871 70.1413 1.68216 68.4154 3.36273C66.6894 5.04329 65.6642 7.31534 65.5462 9.72145C65.4282 12.1276 66.2261 14.489 67.7793 16.3304L60.3655 24.6704C59.0481 23.7347 57.5574 23.0708 55.9806 22.7176C54.4037 22.3644 52.7723 22.3289 51.1815 22.6133C49.5908 22.8976 48.0727 23.496 46.7158 24.3735C45.3589 25.2511 44.1905 26.3902 43.2788 27.7243L23.9802 17.4343C24.8955 15.1297 25.0872 12.601 24.5297 10.1848C23.9721 7.76865 22.6918 5.5796 20.8592 3.90913C19.0266 2.23866 16.7287 1.16604 14.2713 0.834054C11.814 0.50207 9.31376 0.92648 7.1036 2.05078L8.33765 4.46734C9.67125 3.78432 11.149 3.43046 12.6473 3.43535C14.8369 3.43529 16.9592 4.19217 18.6546 5.57777C20.35 6.96336 21.5143 8.89246 21.9502 11.0382C22.3861 13.184 22.0668 15.4145 21.0464 17.3518C20.026 19.2891 18.3673 20.814 16.3512 21.6683C14.3352 22.5226 12.0858 22.6537 9.98413 22.0393C7.88249 21.425 6.05785 20.103 4.81936 18.2973C3.58086 16.4916 3.00467 14.3133 3.18841 12.1315C3.37214 9.94958 4.3045 7.89831 5.82752 6.32519L3.88017 4.43615C2.6983 5.64785 1.7814 7.09214 1.18772 8.67725C0.594031 10.2624 0.336547 11.9536 0.431624 13.6436C0.5267 15.3336 0.972259 16.9853 1.73999 18.4938C2.50772 20.0023 3.58083 21.3346 4.89115 22.4061C6.20147 23.4776 7.72033 24.2648 9.35124 24.7178C10.9822 25.1707 12.6894 25.2795 14.3646 25.0371C16.0398 24.7948 17.6463 24.2066 19.082 23.3101C20.5177 22.4135 21.7512 21.2281 22.7041 19.8292L41.9986 30.1192C41.2995 31.8564 41.0139 33.7324 41.1643 35.5989C41.3147 37.4655 41.897 39.2715 42.8651 40.8744L31.497 49.514C28.6826 46.4045 24.7753 44.5031 20.5917 44.207C16.4081 43.911 12.2719 45.2432 9.0476 47.9254C5.82329 50.6075 3.76033 54.432 3.28985 58.5996C2.81936 62.7672 3.97776 66.9554 6.52295 70.2889C9.06814 73.6224 12.8032 75.8432 16.9475 76.4873C21.0918 77.1314 25.3247 76.1489 28.7615 73.7451C32.1984 71.3413 34.5733 67.7023 35.3898 63.5885C36.2064 59.4747 35.4015 55.2045 33.1433 51.6702L44.506 43.0333C46.139 44.7635 48.2456 45.9741 50.5627 46.5139C52.8798 47.0536 55.3045 46.8986 57.534 46.0682L65.6841 62.3644C63.6097 63.7125 61.9944 65.6597 61.0527 67.9474C60.111 70.2352 59.8874 72.7552 60.4117 75.173C60.936 77.5908 62.1833 79.792 63.988 81.4842C65.7927 83.1764 68.0694 84.2797 70.5159 84.6475C72.9624 85.0153 75.4629 84.6302 77.6854 83.5434C79.9079 82.4567 81.7472 80.7196 82.9592 78.5628C84.1712 76.406 84.6985 73.9316 84.4711 71.4681C84.2437 69.0046 83.2724 66.6686 81.686 64.7701L79.6004 66.51ZM75.0276 3.43535C76.3687 3.43535 77.6796 3.83302 78.7946 4.57807C79.9097 5.32311 80.7787 6.38208 81.2919 7.62105C81.8051 8.86001 81.9394 10.2233 81.6778 11.5386C81.4162 12.8539 80.7704 14.0621 79.8221 15.0103C78.8739 15.9586 77.6657 16.6044 76.3504 16.866C75.0351 17.1276 73.6718 16.9934 72.4328 16.4802C71.1939 15.967 70.1349 15.0979 69.3899 13.9828C68.6448 12.8678 68.2471 11.5569 68.2471 10.2158C68.2493 8.41819 68.9644 6.6948 70.2355 5.42368C71.5066 4.15256 73.23 3.4375 75.0276 3.43535ZM19.4278 73.9522C16.7457 73.9522 14.1238 73.1569 11.8937 71.6668C9.66364 70.1767 7.92551 68.0588 6.89911 65.5808C5.87271 63.1029 5.60416 60.3762 6.12742 57.7457C6.65067 55.1151 7.94222 52.6988 9.83875 50.8022C11.7353 48.9057 14.1516 47.6142 16.7822 47.0909C19.4127 46.5677 22.1394 46.8362 24.6173 47.8626C27.0953 48.889 29.2132 50.6271 30.7033 52.8572C32.1934 55.0873 32.9887 57.7092 32.9887 60.3913C32.9848 63.9866 31.5548 67.4336 29.0124 69.9759C26.4701 72.5183 23.0232 73.9483 19.4278 73.9522ZM53.3301 44.1182C51.4526 44.1182 49.6173 43.5614 48.0563 42.5184C46.4952 41.4753 45.2785 39.9927 44.56 38.2582C43.8416 36.5236 43.6536 34.615 44.0199 32.7736C44.3861 30.9322 45.2902 29.2408 46.6178 27.9132C47.9454 26.5856 49.6368 25.6815 51.4782 25.3152C53.3196 24.949 55.2282 25.137 56.9628 25.8554C58.6973 26.5739 60.1799 27.7906 61.223 29.3517C62.266 30.9127 62.8228 32.748 62.8228 34.6255C62.8195 37.1421 61.8184 39.5547 60.0389 41.3343C58.2593 43.1138 55.8467 44.1149 53.3301 44.1182Z" fill="#333333"/>
<path d="M19.4277 50.8986C17.5502 50.8986 15.7149 51.4554 14.1539 52.4984C12.5928 53.5415 11.3761 55.0241 10.6576 56.7586C9.93917 58.4932 9.75119 60.4018 10.1175 62.2432C10.4837 64.0846 11.3878 65.7761 12.7154 67.1036C14.043 68.4312 15.7344 69.3353 17.5758 69.7016C19.4172 70.0678 21.3258 69.8798 23.0604 69.1614C24.795 68.4429 26.2775 67.2262 27.3206 65.6651C28.3636 64.1041 28.9204 62.2688 28.9204 60.3913C28.9171 57.8747 27.916 55.4621 26.1365 53.6825C24.357 51.903 21.9443 50.9019 19.4277 50.8986ZM19.4277 67.1718C18.0867 67.1718 16.7757 66.7741 15.6607 66.0291C14.5456 65.284 13.6766 64.225 13.1634 62.9861C12.6502 61.7471 12.5159 60.3838 12.7775 59.0685C13.0392 57.7532 13.6849 56.5451 14.6332 55.5968C15.5815 54.6485 16.7896 54.0027 18.1049 53.7411C19.4202 53.4795 20.7835 53.6138 22.0225 54.127C23.2615 54.6402 24.3204 55.5092 25.0655 56.6243C25.8105 57.7393 26.2082 59.0503 26.2082 60.3913C26.206 62.1889 25.491 63.9123 24.2199 65.1834C22.9487 66.4546 21.2253 67.1696 19.4277 67.1718Z" fill="#333333"/>
<path d="M19.4278 63.1035C20.9257 63.1035 22.1399 61.8892 22.1399 60.3913C22.1399 58.8934 20.9257 57.6791 19.4278 57.6791C17.9299 57.6791 16.7156 58.8934 16.7156 60.3913C16.7156 61.8892 17.9299 63.1035 19.4278 63.1035Z" fill="#333333"/>
<path d="M0.442383 27.8451H24.8521V30.5572H0.442383V27.8451Z" fill="#333333"/>
<path d="M7.2229 33.2694H27.5643V35.9816H7.2229V33.2694Z" fill="#333333"/>
<path d="M5.8667 38.6938H15.3594V41.406H5.8667V38.6938Z" fill="#333333"/>
<path d="M68.2471 48.1865H84.5202V50.8986H68.2471V48.1865Z" fill="#333333"/>
<path d="M73.6714 42.7621H84.5201V45.4743H73.6714V42.7621Z" fill="#333333"/>
<path d="M68.2471 42.7621H70.9593V45.4743H68.2471V42.7621Z" fill="#333333"/>
<path d="M81.8081 53.6108H84.5203V56.323H81.8081V53.6108Z" fill="#333333"/>
<path d="M73.6714 53.6108H79.0958V56.323H73.6714V53.6108Z" fill="#333333"/>
<path d="M42.4814 56.323H56.0424V59.0352H42.4814V56.323Z" fill="#333333"/>
<path d="M45.1936 50.8986H56.0424V53.6108H45.1936V50.8986Z" fill="#333333"/>
<path d="M39.769 50.8986H42.4812V53.6108H39.769V50.8986Z" fill="#333333"/>
<path d="M53.3301 61.7474H56.0423V64.4596H53.3301V61.7474Z" fill="#333333"/>
<path d="M39.769 61.7474H50.6178V64.4596H39.769V61.7474Z" fill="#333333"/>
<path d="M0.442383 38.6938H3.15457V41.406H0.442383V38.6938Z" fill="#333333"/>
<path d="M27.5645 27.8451H30.2766V30.5572H27.5645V27.8451Z" fill="#333333"/>
<path d="M45.1936 14.2841C46.5346 14.2841 47.8455 13.8865 48.9606 13.1414C50.0756 12.3964 50.9447 11.3374 51.4579 10.0984C51.9711 8.85946 52.1054 7.49614 51.8437 6.18086C51.5821 4.86558 50.9363 3.65741 49.9881 2.70915C49.0398 1.76088 47.8316 1.1151 46.5164 0.853478C45.2011 0.591852 43.8377 0.726128 42.5988 1.23933C41.3598 1.75252 40.3008 2.62159 39.5558 3.73663C38.8108 4.85168 38.4131 6.16261 38.4131 7.50366C38.4152 9.30129 39.1303 11.0247 40.4014 12.2958C41.6725 13.5669 43.3959 14.282 45.1936 14.2841ZM45.1936 3.43538C45.9982 3.43538 46.7847 3.67398 47.4538 4.12101C48.1228 4.56804 48.6442 5.20342 48.9522 5.9468C49.2601 6.69018 49.3406 7.50817 49.1837 8.29734C49.0267 9.08651 48.6392 9.81141 48.0703 10.3804C47.5013 10.9493 46.7764 11.3368 45.9872 11.4938C45.1981 11.6507 44.3801 11.5702 43.6367 11.2623C42.8933 10.9543 42.2579 10.4329 41.8109 9.76388C41.3639 9.09485 41.1253 8.30829 41.1253 7.50366C41.1253 6.42469 41.5539 5.3899 42.3168 4.62695C43.0798 3.864 44.1146 3.43538 45.1936 3.43538Z" fill="#333333"/>
<path d="M77.7397 26.489C76.3986 26.489 75.0877 26.8866 73.9727 27.6317C72.8576 28.3767 71.9886 29.4357 71.4754 30.6747C70.9622 31.9136 70.8279 33.277 71.0895 34.5922C71.3511 35.9075 71.9969 37.1157 72.9452 38.0639C73.8934 39.0122 75.1016 39.658 76.4169 39.9196C77.7322 40.1812 79.0955 40.047 80.3345 39.5338C81.5734 39.0206 82.6324 38.1515 83.3774 37.0365C84.1225 35.9214 84.5202 34.6105 84.5202 33.2694C84.518 31.4718 83.8029 29.7484 82.5318 28.4773C81.2607 27.2062 79.5373 26.4911 77.7397 26.489ZM77.7397 37.3377C76.9351 37.3377 76.1485 37.0991 75.4795 36.6521C74.8105 36.2051 74.289 35.5697 73.9811 34.8263C73.6732 34.0829 73.5926 33.2649 73.7496 32.4758C73.9066 31.6866 74.294 30.9617 74.863 30.3927C75.432 29.8238 76.1568 29.4363 76.946 29.2793C77.7352 29.1223 78.5532 29.2029 79.2966 29.5108C80.0399 29.8188 80.6753 30.3402 81.1223 31.0092C81.5694 31.6782 81.808 32.4648 81.808 33.2694C81.808 34.3484 81.3794 35.3832 80.6164 36.1461C79.8535 36.9091 78.8187 37.3377 77.7397 37.3377Z" fill="#333333"/>
<path d="M47.2276 69.8839C45.7524 69.8839 44.3104 70.3214 43.0838 71.1409C41.8573 71.9605 40.9013 73.1253 40.3368 74.4882C39.7723 75.8511 39.6246 77.3507 39.9124 78.7975C40.2001 80.2444 40.9105 81.5733 41.9536 82.6164C42.9967 83.6595 44.3257 84.3699 45.7725 84.6577C47.2193 84.9454 48.7189 84.7977 50.0818 84.2332C51.4447 83.6687 52.6095 82.7127 53.4291 81.4862C54.2486 80.2596 54.6861 78.8176 54.6861 77.3425C54.6836 75.3651 53.897 73.4695 52.4988 72.0713C51.1006 70.6731 49.2049 69.8865 47.2276 69.8839ZM47.2276 82.0888C46.2888 82.0888 45.3712 81.8104 44.5906 81.2889C43.8101 80.7674 43.2018 80.0261 42.8425 79.1588C42.4833 78.2915 42.3893 77.3372 42.5724 76.4165C42.7556 75.4958 43.2076 74.6501 43.8714 73.9863C44.5352 73.3225 45.3809 72.8705 46.3016 72.6873C47.2223 72.5042 48.1766 72.5982 49.0439 72.9574C49.9112 73.3167 50.6525 73.925 51.174 74.7055C51.6955 75.4861 51.9739 76.4037 51.9739 77.3425C51.9739 78.6013 51.4738 79.8085 50.5837 80.6986C49.6936 81.5887 48.4864 82.0888 47.2276 82.0888Z" fill="#333333"/>
<path d="M0.442383 82.0888H22.1399V84.801H0.442383V82.0888Z" fill="#333333"/>
<path d="M24.8523 82.0888H27.5645V84.801H24.8523V82.0888Z" fill="#333333"/>
<path d="M65.5349 71.2401H68.2471V73.9522H65.5349V71.2401Z" fill="#333333"/>
<path d="M70.9592 71.2401H73.6714V73.9522H70.9592V71.2401Z" fill="#333333"/>
<path d="M76.3838 71.2401H79.096V73.9522H76.3838V71.2401Z" fill="#333333"/>
<path d="M45.1936 16.9963H47.9058V19.7085H45.1936V16.9963Z" fill="#333333"/>
<path d="M50.6179 16.9963H53.3301V19.7085H50.6179V16.9963Z" fill="#333333"/>
<path d="M56.0422 16.9963H58.7544V19.7085H56.0422V16.9963Z" fill="#333333"/>
</svg>
