<svg width="99" height="99" viewBox="0 0 99 99" fill="none" xmlns="http://www.w3.org/2000/svg">
<path d="M49.5 54.1358L54.2027 58.8385L60.473 52.5682L54.2027 49.4331L49.5 54.1358Z" fill="#98ADF8"/>
<path d="M49.5 54.1358L44.7973 58.8385L38.527 52.5682L44.7973 49.4331L49.5 54.1358Z" fill="#98ADF8"/>
<path d="M71.446 71.3273V69.1249C71.4458 68.4255 71.6794 67.7461 72.1097 67.1948C72.54 66.6435 73.1424 66.2518 73.8209 66.0822L77.7163 65.1088V51.0006L49.5 66.6764V96.4602L77.7163 80.7845V73.395L75.8164 74.2085C75.3396 74.413 74.8194 74.4958 74.3027 74.4497C73.7859 74.4037 73.2887 74.2301 72.8555 73.9445C72.4224 73.659 72.0669 73.2704 71.8209 72.8136C71.5749 72.3568 71.4461 71.8461 71.446 71.3273Z" fill="#98ADF8"/>
<path d="M27.554 71.3273V69.1249C27.5542 68.4255 27.3206 67.7461 26.8903 67.1948C26.4599 66.6435 25.8576 66.2518 25.1791 66.0822L21.2837 65.1088V51.0006L49.5 66.6764V96.4602L21.2837 80.7845V73.395L23.1836 74.2085C23.6604 74.413 24.1805 74.4958 24.6973 74.4497C25.2141 74.4037 25.7113 74.2301 26.1444 73.9445C26.5776 73.659 26.9331 73.2704 27.1791 72.8136C27.4251 72.3568 27.5539 71.8461 27.554 71.3273Z" fill="#98ADF8"/>
<path d="M43.2297 35.3249C45.8269 35.3249 47.9324 33.2194 47.9324 30.6222C47.9324 28.025 45.8269 25.9195 43.2297 25.9195C40.6325 25.9195 38.527 28.025 38.527 30.6222C38.527 33.2194 40.6325 35.3249 43.2297 35.3249Z" fill="#98ADF8"/>
<path d="M55.7703 35.3249C58.3676 35.3249 60.4731 33.2194 60.4731 30.6222C60.4731 28.025 58.3676 25.9195 55.7703 25.9195C53.1731 25.9195 51.0676 28.025 51.0676 30.6222C51.0676 33.2194 53.1731 35.3249 55.7703 35.3249Z" fill="#98ADF8"/>
<path d="M63.6081 8.6762H60.4729V7.10863C60.4729 5.86139 59.9775 4.66524 59.0956 3.78331C58.2136 2.90138 57.0175 2.40591 55.7702 2.40591H36.9594C35.2964 2.40591 33.7015 3.06653 32.5256 4.24244C31.3497 5.41835 30.6891 7.01322 30.6891 8.6762V25.9195C30.6891 27.5825 31.3497 29.1773 32.5256 30.3533C33.7015 31.5292 35.2964 32.1898 36.9594 32.1898V25.9195C36.9594 24.2565 37.62 22.6616 38.7959 21.4857C39.9718 20.3098 41.5667 19.6492 43.2297 19.6492H44.5621C45.3905 19.6495 46.2107 19.4856 46.9753 19.167C47.74 18.8484 48.434 18.3815 49.0171 17.7932L49.9969 16.8025C50.5799 16.2144 51.2736 15.7476 52.0379 15.429C52.8023 15.1104 53.6222 14.9464 54.4503 14.9465H55.7702C57.4332 14.9465 59.0281 15.6071 60.204 16.783C61.3799 17.9589 62.0405 19.5538 62.0405 21.2168V32.1898C63.7035 32.1898 65.2984 31.5292 66.4743 30.3533C67.6502 29.1773 68.3108 27.5825 68.3108 25.9195V13.3789C68.3108 12.1317 67.8153 10.9355 66.9334 10.0536C66.0515 9.17166 64.8553 8.6762 63.6081 8.6762Z" fill="#98ADF8"/>
<path d="M8.74316 27.4871H18.1486V29.0546C18.1486 30.3019 17.6531 31.498 16.7712 32.38C15.8893 33.2619 14.6931 33.7573 13.4459 33.7573C12.1986 33.7573 11.0025 33.2619 10.1206 32.38C9.23863 31.498 8.74316 30.3019 8.74316 29.0546V27.4871Z" fill="#98ADF8"/>
<path d="M91.8244 30.6222C94.4217 30.6222 96.5271 28.5168 96.5271 25.9195C96.5271 23.3223 94.4217 21.2168 91.8244 21.2168C89.2272 21.2168 87.1217 23.3223 87.1217 25.9195C87.1217 28.5168 89.2272 30.6222 91.8244 30.6222Z" fill="#98ADF8"/>
<path d="M84.6965 86.8432L86.9134 84.6263L89.1303 86.8432L86.9134 89.0601L84.6965 86.8432Z" fill="#333333"/>
<path d="M91.3448 93.4912L93.5617 91.2744L95.7786 93.4912L93.5617 95.7081L91.3448 93.4912Z" fill="#333333"/>
<path d="M84.6951 93.5133L86.9119 91.2965L89.1288 93.5133L86.9119 95.7302L84.6951 93.5133Z" fill="#333333"/>
<path d="M91.3463 86.8665L93.5632 84.6497L95.7801 86.8665L93.5632 89.0834L91.3463 86.8665Z" fill="#333333"/>
<path d="M3.19104 86.8546L5.40792 84.6377L7.6248 86.8546L5.40792 89.0715L3.19104 86.8546Z" fill="#333333"/>
<path d="M9.83899 93.5069L12.0559 91.29L14.2728 93.5069L12.0559 95.7238L9.83899 93.5069Z" fill="#333333"/>
<path d="M3.1897 93.5066L5.40658 91.2897L7.62346 93.5066L5.40658 95.7235L3.1897 93.5066Z" fill="#333333"/>
<path d="M9.84204 86.8571L12.0589 84.6402L14.2758 86.8571L12.0589 89.074L9.84204 86.8571Z" fill="#333333"/>
<path d="M80.7715 59.779C80.299 59.5845 79.7947 59.4782 79.2839 59.4655V51.0006C79.2837 50.7278 79.2124 50.4598 79.0769 50.223C78.9414 49.9862 78.7465 49.7889 78.5114 49.6505C78.2763 49.5121 78.0091 49.4375 77.7364 49.434C77.4636 49.4305 77.1946 49.4983 76.956 49.6306L68.0209 54.592L55.7703 48.4643V47.0676C58.1141 45.8988 60.0877 44.1026 61.4714 41.8789C62.8552 39.6552 63.5948 37.0912 63.6082 34.4722V33.6006C65.3773 33.2368 66.9669 32.2742 68.1091 30.875C69.2513 29.4758 69.8762 27.7257 69.8784 25.9195V13.3789C69.8784 11.7159 69.2178 10.1211 68.0419 8.94516C66.866 7.76925 65.2711 7.10864 63.6082 7.10864H62.0406C62.0406 5.44565 61.38 3.85078 60.2041 2.67487C59.0281 1.49897 57.4333 0.838348 55.7703 0.838348H43.2297V3.97349H55.7703C56.6018 3.97349 57.3992 4.3038 57.9872 4.89175C58.5751 5.47971 58.9054 6.27714 58.9054 7.10864V8.67621C58.9054 9.09195 59.0706 9.49067 59.3646 9.78465C59.6585 10.0786 60.0573 10.2438 60.473 10.2438H63.6082C64.4396 10.2438 65.2371 10.5741 65.825 11.162C66.413 11.75 66.7433 12.5474 66.7433 13.3789V25.9195C66.7421 26.8918 66.4402 27.84 65.8789 28.6339C65.3176 29.4279 64.5244 30.0288 63.6082 30.3542V21.2168C63.6057 19.1388 62.7791 17.1467 61.3097 15.6773C59.8404 14.208 57.8483 13.3814 55.7703 13.3789H54.4504C52.361 13.385 50.3592 14.2193 48.884 15.6989L47.9027 16.6896C47.018 17.5776 45.8172 18.0783 44.5637 18.0816H43.2297C41.1518 18.0841 39.1596 18.9107 37.6903 20.38C36.2209 21.8494 35.3944 23.8415 35.3919 25.9195V30.3542C34.4756 30.0288 33.6824 29.4279 33.1211 28.6339C32.5598 27.84 32.2579 26.8918 32.2567 25.9195V8.67621C32.2567 7.42897 32.7522 6.23282 33.6341 5.35089C34.516 4.46896 35.7122 3.97349 36.9594 3.97349H40.0946V0.838348H36.9594C34.8815 0.840837 32.8893 1.66741 31.42 3.13675C29.9506 4.6061 29.1241 6.59824 29.1216 8.67621V25.9195C29.1239 27.7257 29.7487 29.4758 30.8909 30.875C32.0331 32.2742 33.6227 33.2368 35.3919 33.6006V34.4737C35.4052 37.0928 36.1449 39.6568 37.5286 41.8805C38.9124 44.1042 40.8859 45.9003 43.2297 47.0692V48.4659L34.6912 52.725L36.0926 55.5309L38.2182 54.4681L43.689 59.9389C43.983 60.2328 44.3816 60.3979 44.7973 60.3979C45.213 60.3979 45.6116 60.2328 45.9056 59.9389L49.5 56.3523L53.0944 59.9468C53.3884 60.2407 53.7871 60.4057 54.2027 60.4057C54.6184 60.4057 55.017 60.2407 55.311 59.9468L60.7818 54.4759L64.7007 56.437L49.5 64.8831L22.0456 49.6306C21.8069 49.4979 21.5378 49.4298 21.2648 49.4331C20.9918 49.4364 20.7243 49.511 20.489 49.6494C20.2537 49.7878 20.0585 49.9853 19.923 50.2223C19.7874 50.4593 19.7161 50.7276 19.7161 51.0006V59.4655C19.2054 59.4749 18.7011 59.5813 18.2301 59.779C17.2948 60.0906 16.4811 60.6881 15.9038 61.4872C15.3266 62.2864 15.0152 63.2467 15.0134 64.2325V69.3114C15.0135 70.2316 15.2836 71.1316 15.7902 71.8998C16.2967 72.668 17.0175 73.2707 17.8633 73.6332L19.7161 74.428V80.7845C19.7161 81.064 19.7908 81.3383 19.9325 81.5792C20.0742 81.8201 20.2776 82.0188 20.5219 82.1546L48.7382 97.8303C48.9701 97.9613 49.232 98.0302 49.4984 98.0302C49.7649 98.0302 50.0268 97.9613 50.2587 97.8303L65.5363 89.3434L64.0157 86.6033L51.0676 93.7953V76.0818H47.9324V93.7953L22.8513 79.8628V75.7683C23.5606 76.0153 24.3186 76.0895 25.0623 75.9846C25.8059 75.8797 26.5139 75.5987 27.1271 75.1652C27.7404 74.7316 28.2413 74.1579 28.5882 73.4917C28.9351 72.8256 29.118 72.0862 29.1216 71.3352V69.1249C29.1218 68.0761 28.7714 67.0572 28.1261 66.2304C27.4808 65.4036 26.5775 64.8162 25.5601 64.5617L22.8513 63.8845V53.6655L47.9324 67.5981V72.9466H51.0676V67.5981L76.1487 53.6655V63.8845L73.4384 64.5617C72.4212 64.8165 71.5183 65.404 70.8733 66.2308C70.2283 67.0576 69.8781 68.0763 69.8784 69.1249V71.3273C69.8773 72.0803 70.057 72.8225 70.4023 73.4916C70.7477 74.1607 71.2487 74.737 71.8631 75.1722C72.4776 75.6074 73.1875 75.8887 73.9333 75.9924C74.6791 76.0961 75.4388 76.0193 76.1487 75.7683V79.8706L67.1587 84.8602L68.6792 87.6003L78.4766 82.1561C78.7213 82.0204 78.9253 81.8216 79.0672 81.5804C79.2092 81.3392 79.284 81.0644 79.2839 80.7845V74.428L81.1383 73.6332C81.9838 73.2705 82.7042 72.6676 83.2105 71.8995C83.7168 71.1313 83.9866 70.2315 83.9866 69.3114V64.2325C83.985 63.2469 83.6737 62.2867 83.0968 61.4876C82.5199 60.6885 81.7065 60.0908 80.7715 59.779ZM38.527 25.9195C38.527 24.6723 39.0225 23.4761 39.9044 22.5942C40.7863 21.7122 41.9825 21.2168 43.2297 21.2168H44.5637C46.6521 21.2099 48.6526 20.3757 50.127 18.8968L51.1068 17.9061C51.9929 17.0175 53.1955 16.5169 54.4504 16.5141H55.7703C57.0175 16.5141 58.2137 17.0095 59.0956 17.8915C59.9775 18.7734 60.473 19.9695 60.473 21.2168V26.5183C59.7302 25.6537 58.764 25.0098 57.6801 24.6569C56.5961 24.3041 55.4361 24.256 54.3266 24.5177C53.2171 24.7795 52.201 25.3411 51.389 26.1412C50.5771 26.9413 50.0006 27.9491 49.7226 29.0546H49.2774C48.9994 27.9491 48.4229 26.9413 47.611 26.1412C46.7991 25.3411 45.7829 24.7795 44.6734 24.5177C43.5639 24.256 42.4039 24.3041 41.3199 24.6569C40.236 25.0098 39.2698 25.6537 38.527 26.5183V25.9195ZM58.9054 30.6222C58.9054 31.2423 58.7216 31.8484 58.3771 32.364C58.0326 32.8796 57.5429 33.2814 56.9701 33.5187C56.3972 33.756 55.7668 33.8181 55.1587 33.6971C54.5505 33.5761 53.9919 33.2775 53.5534 32.8391C53.115 32.4006 52.8164 31.842 52.6954 31.2338C52.5744 30.6257 52.6365 29.9953 52.8738 29.4224C53.1111 28.8496 53.5129 28.3599 54.0285 28.0154C54.5441 27.6709 55.1502 27.4871 55.7703 27.4871C56.6018 27.4871 57.3992 27.8174 57.9872 28.4053C58.5751 28.9933 58.9054 29.7907 58.9054 30.6222ZM46.3649 30.6222C46.3649 31.2423 46.181 31.8484 45.8365 32.364C45.492 32.8796 45.0024 33.2814 44.4295 33.5187C43.8566 33.756 43.2262 33.8181 42.6181 33.6971C42.0099 33.5761 41.4513 33.2775 41.0128 32.8391C40.5744 32.4006 40.2758 31.842 40.1548 31.2338C40.0338 30.6257 40.0959 29.9953 40.3332 29.4224C40.5705 28.8496 40.9724 28.3599 41.4879 28.0154C42.0035 27.6709 42.6096 27.4871 43.2297 27.4871C44.0612 27.4871 44.8586 27.8174 45.4466 28.4053C46.0346 28.9933 46.3649 29.7907 46.3649 30.6222ZM38.549 34.7512C39.2945 35.6097 40.2612 36.2474 41.3438 36.5949C42.4265 36.9425 43.5837 36.9867 44.6896 36.7226C45.7956 36.4586 46.808 35.8964 47.6169 35.0972C48.4257 34.2981 49.0001 33.2925 49.2774 32.1898H49.7226C50.0002 33.2923 50.5746 34.2976 51.3834 35.0966C52.1922 35.8956 53.2045 36.4577 54.3103 36.7219C55.4161 36.986 56.5731 36.9422 57.6557 36.595C58.7383 36.2479 59.7051 35.6107 60.4511 34.7528C60.3915 36.9344 59.685 39.0491 58.4212 40.8284C57.1575 42.6077 55.3934 43.9713 53.3531 44.746C51.7163 45.3612 49.9559 45.5755 48.2193 45.371C46.4827 45.1665 44.8203 44.5492 43.3711 43.5707C41.9219 42.5922 40.7281 41.2809 39.8894 39.7465C39.0508 38.2122 38.5917 36.4993 38.5505 34.7512H38.549ZM44.7973 56.622L41.1731 52.9977L44.4838 51.3408L47.2835 54.1358L44.7973 56.622ZM46.3649 48.7841V48.2135C48.4261 48.7047 50.5739 48.7047 52.6352 48.2135V48.7841L49.5 51.9192L46.3649 48.7841ZM54.2027 56.622L51.7166 54.1358L54.5162 51.3408L57.8316 52.9977L54.2027 56.622ZM24.7982 67.6028C25.1377 67.6875 25.4392 67.8833 25.6545 68.1592C25.8698 68.435 25.9867 68.775 25.9864 69.1249V71.3273C25.9864 71.5867 25.922 71.8421 25.799 72.0705C25.676 72.2989 25.4982 72.4932 25.2817 72.6359C25.0651 72.7787 24.8165 72.8655 24.5581 72.8885C24.2997 72.9116 24.0397 72.8702 23.8012 72.768L19.0985 70.7536C18.8164 70.6327 18.5759 70.4315 18.407 70.1751C18.2382 69.9188 18.1483 69.6184 18.1486 69.3114V64.2325C18.1488 63.9037 18.2525 63.5832 18.4449 63.3165C18.6373 63.0498 18.9088 62.8504 19.2208 62.7465L19.7161 62.5803V65.1088C19.7162 65.4582 19.8329 65.7977 20.0479 66.0732C20.2629 66.3487 20.5638 66.5444 20.9028 66.6293L24.7982 67.6028ZM80.8514 69.3114C80.8525 69.6174 80.764 69.917 80.5969 70.1732C80.4298 70.4295 80.1913 70.6312 79.9109 70.7536L75.2082 72.768C74.9693 72.8722 74.7082 72.9152 74.4486 72.8932C74.1889 72.8712 73.9388 72.7847 73.7209 72.6417C73.5031 72.4987 73.3243 72.3036 73.2008 72.0741C73.0773 71.8446 73.0129 71.588 73.0136 71.3273V69.1249C73.0132 68.7752 73.1299 68.4354 73.3449 68.1596C73.5599 67.8838 73.861 67.6878 74.2002 67.6028L78.0956 66.6293C78.4349 66.5447 78.7362 66.3491 78.9515 66.0736C79.1668 65.798 79.2838 65.4585 79.2839 65.1088V62.5819L79.7761 62.7465C80.0881 62.8504 80.3595 63.0498 80.552 63.3165C80.7444 63.5832 80.8481 63.9037 80.8483 64.2325L80.8514 69.3114Z" fill="#333333"/>
<path d="M7.17556 24.2265V29.0546C7.17556 30.7176 7.83618 32.3124 9.01209 33.4884C10.188 34.6643 11.7829 35.3249 13.4459 35.3249C15.1088 35.3249 16.7037 34.6643 17.8796 33.4884C19.0555 32.3124 19.7161 30.7176 19.7161 29.0546V24.2265C22.1069 22.8462 23.9754 20.7156 25.0318 18.1651C26.0883 15.6146 26.2736 12.7868 25.5591 10.1203C24.8446 7.45373 23.2702 5.09746 21.0801 3.41691C18.8899 1.73635 16.2065 0.825439 13.4459 0.825439C10.6852 0.825439 8.00177 1.73635 5.81163 3.41691C3.6215 5.09746 2.04709 7.45373 1.33259 10.1203C0.618089 12.7868 0.803433 15.6146 1.85987 18.1651C2.91631 20.7156 4.78481 22.8462 7.17556 24.2265ZM13.4459 32.1897C12.6144 32.1897 11.8169 31.8594 11.229 31.2715C10.641 30.6835 10.3107 29.8861 10.3107 29.0546H16.581C16.581 29.8861 16.2507 30.6835 15.6627 31.2715C15.0748 31.8594 14.2773 32.1897 13.4459 32.1897ZM13.4459 3.97344C15.5775 3.97845 17.6443 4.70745 19.3074 6.04095C20.9705 7.37445 22.1313 9.23336 22.5995 11.313C23.0677 13.3926 22.8156 15.5696 21.8844 17.4872C20.9533 19.4048 19.3984 20.9492 17.4745 21.8673C17.2078 21.9943 16.9823 22.1942 16.8242 22.4438C16.6662 22.6934 16.5818 22.9826 16.581 23.2781V25.9194H15.0134V17.7932C15.5154 17.9788 16.0458 18.0764 16.581 18.0816C17.346 18.0861 18.1006 17.9039 18.7793 17.5508C19.458 17.1977 20.0403 16.6844 20.4757 16.0553C20.9111 15.4262 21.1865 14.7004 21.2779 13.9408C21.3693 13.1812 21.274 12.4108 21.0003 11.6964C20.7265 10.982 20.2827 10.3452 19.7071 9.84112C19.1316 9.33708 18.4417 8.98107 17.6974 8.80397C16.9532 8.62687 16.1769 8.63403 15.436 8.82483C14.6952 9.01562 14.012 9.3843 13.4459 9.89886C12.8298 9.33216 12.074 8.93972 11.256 8.76188C10.4381 8.58404 9.58754 8.62721 8.79181 8.88697C7.99608 9.14673 7.28387 9.61369 6.72839 10.2399C6.1729 10.866 5.79418 11.6289 5.63115 12.4499C5.46812 13.2709 5.52666 14.1205 5.80075 14.9114C6.07484 15.7023 6.5546 16.406 7.19071 16.9501C7.82683 17.4942 8.59635 17.859 9.42018 18.0072C10.244 18.1554 11.0925 18.0815 11.8783 17.7932V25.9194H10.3107V23.2812C10.3099 22.9858 10.2255 22.6965 10.0675 22.4469C9.90937 22.1973 9.68395 21.9975 9.41719 21.8704C7.49156 20.9533 5.93481 19.4089 5.00238 17.4907C4.06994 15.5724 3.81719 13.3942 4.28559 11.3134C4.75398 9.23254 5.91571 7.37272 7.58017 6.03903C9.24463 4.70533 11.313 3.97697 13.4459 3.97344ZM15.0134 13.3789C15.0134 13.0688 15.1054 12.7658 15.2776 12.508C15.4499 12.2502 15.6947 12.0493 15.9811 11.9306C16.2675 11.812 16.5827 11.7809 16.8868 11.8414C17.1909 11.9019 17.4702 12.0512 17.6894 12.2704C17.9087 12.4897 18.058 12.769 18.1184 13.0731C18.1789 13.3771 18.1479 13.6923 18.0292 13.9788C17.9106 14.2652 17.7097 14.51 17.4519 14.6823C17.1941 14.8545 16.891 14.9464 16.581 14.9464C16.1652 14.9464 15.7665 14.7813 15.4726 14.4873C15.1786 14.1933 15.0134 13.7946 15.0134 13.3789ZM11.8783 13.3789C11.8783 13.6889 11.7863 13.992 11.6141 14.2498C11.4418 14.5076 11.197 14.7085 10.9106 14.8271C10.6242 14.9458 10.309 14.9768 10.0049 14.9163C9.70081 14.8558 9.4215 14.7065 9.20227 14.4873C8.98304 14.2681 8.83374 13.9888 8.77326 13.6847C8.71277 13.3806 8.74381 13.0654 8.86246 12.779C8.98111 12.4926 9.18203 12.2477 9.43981 12.0755C9.6976 11.9032 10.0007 11.8113 10.3107 11.8113C10.7265 11.8113 11.1252 11.9765 11.4191 12.2704C11.7131 12.5644 11.8783 12.9631 11.8783 13.3789Z" fill="#333333"/>
<path d="M66.7433 36.8925H69.8784V40.0276H66.7433V36.8925Z" fill="#333333"/>
<path d="M73.0135 36.8925H98.0947V40.0276H73.0135V36.8925Z" fill="#333333"/>
<path d="M66.7433 43.1628H82.419V46.2979H66.7433V43.1628Z" fill="#333333"/>
<path d="M0.905273 36.8925H25.9864V40.0276H0.905273V36.8925Z" fill="#333333"/>
<path d="M16.5809 43.1628H32.2566V46.2979H16.5809V43.1628Z" fill="#333333"/>
<path d="M29.1216 36.8925H32.2567V40.0276H29.1216V36.8925Z" fill="#333333"/>
<path d="M76.1488 25.9195C76.9004 25.9186 77.6408 25.7369 78.3076 25.3899C78.9744 25.0429 79.5479 24.5407 79.9799 23.9255L85.5824 25.6499C85.5824 25.7439 85.5542 25.8317 85.5542 25.9258C85.5482 27.1367 85.8929 28.3235 86.5468 29.3428C87.2007 30.362 88.1358 31.1701 89.239 31.6695C90.3423 32.1688 91.5665 32.3379 92.7638 32.1565C93.9612 31.9751 95.0803 31.4508 95.9861 30.647C96.8919 29.8433 97.5456 28.7945 97.8681 27.6272C98.1907 26.46 98.1684 25.2243 97.8039 24.0695C97.4393 22.9147 96.7482 21.8902 95.814 21.1196C94.8797 20.3491 93.7424 19.8656 92.5393 19.7276L91.5502 12.6625C92.6741 12.0788 93.5941 11.1673 94.1884 10.049C94.7827 8.93062 95.0232 7.6581 94.8781 6.39998C94.733 5.14186 94.2091 3.95751 93.3757 3.00382C92.5424 2.05013 91.4391 1.37211 90.2118 1.05956C88.9845 0.747008 87.6912 0.814685 86.5032 1.25362C85.3153 1.69256 84.2887 2.48205 83.5595 3.51751C82.8302 4.55296 82.4328 5.78552 82.4198 7.05192C82.4068 8.31832 82.7788 9.55879 83.4866 10.609L77.9186 16.8793C77.2746 16.6096 76.5788 16.4867 75.8814 16.5195C75.1841 16.5522 74.5028 16.7398 73.887 17.0686C73.2711 17.3974 72.7363 17.8592 72.3211 18.4205C71.906 18.9818 71.621 19.6284 71.4869 20.3135C71.3528 20.9986 71.3729 21.705 71.5457 22.3813C71.7186 23.0577 72.0398 23.6871 72.4862 24.2239C72.9325 24.7606 73.4928 25.1913 74.1263 25.4846C74.7598 25.7779 75.4507 25.9264 76.1488 25.9195ZM91.8245 22.7843C92.4446 22.7843 93.0507 22.9682 93.5663 23.3127C94.0819 23.6572 94.4837 24.1468 94.721 24.7197C94.9583 25.2926 95.0204 25.923 94.8994 26.5311C94.7784 27.1393 94.4798 27.6979 94.0414 28.1364C93.6029 28.5748 93.0443 28.8734 92.4361 28.9944C91.828 29.1154 91.1976 29.0533 90.6247 28.816C90.0518 28.5787 89.5622 28.1768 89.2177 27.6613C88.8732 27.1457 88.6893 26.5396 88.6893 25.9195C88.6893 25.088 89.0196 24.2906 89.6076 23.7026C90.1956 23.1147 90.993 22.7843 91.8245 22.7843ZM88.6893 3.97348C89.3094 3.97348 89.9156 4.15735 90.4311 4.50185C90.9467 4.84634 91.3485 5.33598 91.5858 5.90886C91.8231 6.48173 91.8852 7.1121 91.7642 7.72026C91.6433 8.32842 91.3447 8.88705 90.9062 9.32551C90.4678 9.76396 89.9091 10.0626 89.301 10.1835C88.6928 10.3045 88.0625 10.2424 87.4896 10.0051C86.9167 9.76783 86.4271 9.36599 86.0826 8.85042C85.7381 8.33484 85.5542 7.7287 85.5542 7.10862C85.5542 6.27713 85.8845 5.4797 86.4725 4.89174C87.0604 4.30379 87.8579 3.97348 88.6893 3.97348ZM85.8458 12.6657C86.6627 13.0899 87.564 13.3266 88.484 13.3585L89.4245 20.1289C88.2079 20.6397 87.1829 21.5205 86.4947 22.6464L80.8201 20.9033C80.7751 20.2218 80.5803 19.5586 80.2495 18.961L85.8458 12.6657ZM76.1488 19.6492C76.4588 19.6492 76.7619 19.7411 77.0197 19.9134C77.2774 20.0856 77.4784 20.3305 77.597 20.6169C77.7157 20.9033 77.7467 21.2185 77.6862 21.5226C77.6257 21.8267 77.4764 22.106 77.2572 22.3252C77.038 22.5444 76.7587 22.6937 76.4546 22.7542C76.1505 22.8147 75.8353 22.7837 75.5489 22.665C75.2625 22.5464 75.0176 22.3455 74.8454 22.0877C74.6731 21.8299 74.5812 21.5268 74.5812 21.2168C74.5812 20.801 74.7464 20.4023 75.0403 20.1083C75.3343 19.8144 75.733 19.6492 76.1488 19.6492Z" fill="#333333"/>
</svg>
