<svg width="503" height="390" viewBox="0 0 503 390" fill="none" xmlns="http://www.w3.org/2000/svg">
<path d="M61.0652 306.914H78.4507C72.2587 299.499 68.3063 288.238 68.3063 275.666V266.426C68.3063 239.627 53.3861 217.921 34.9747 217.921C16.1022 217.921 0.803284 195.657 0.803284 168.193C0.803284 140.728 16.1022 118.464 34.9747 118.464H40.5739C58.9853 118.464 73.9055 96.7366 73.9055 69.9595C73.9055 47.6094 86.3554 29.4714 101.72 29.4714H319.1C336.194 29.4714 350.06 49.651 350.06 74.5155C350.06 91.536 343.588 106.343 334.02 113.994H372.193C388.118 113.994 401.029 131.379 401.029 152.827C401.029 178.529 416.493 199.354 435.579 199.354H441.376C460.94 199.375 476.799 220.715 476.799 247.063C476.799 273.41 460.94 294.771 441.376 294.771C422.29 294.771 406.826 315.596 406.826 341.298V350.174C406.826 371.621 393.915 389.007 377.99 389.007H243.824C242.82 389.136 241.782 389.201 240.745 389.201H61.0488C43.6419 389.201 29.5287 370.783 29.5287 348.068C29.5451 325.331 43.6584 306.914 61.0652 306.914Z" fill="#EAEEFE"/>
<path d="M382.645 257.55C383.784 257.55 384.73 258.861 384.73 260.494C384.73 262.128 383.806 263.46 382.667 263.46C381.528 263.46 380.582 262.149 380.582 260.516C380.582 258.882 381.506 257.55 382.645 257.55ZM382.667 258.388C382.043 258.388 381.549 258.689 381.549 259.076C381.549 259.463 382.043 259.764 382.667 259.764C383.29 259.764 383.784 259.463 383.784 259.076C383.763 258.689 383.268 258.388 382.667 258.388ZM382.667 262.342C383.526 262.342 384.235 261.87 384.235 261.289C384.235 260.709 383.526 260.236 382.667 260.236C381.807 260.236 381.098 260.709 381.098 261.289C381.098 261.891 381.807 262.364 382.667 262.342Z" fill="#466EB6"/>
<path d="M387.373 264.083C387.803 265.029 388.039 266.039 388.039 267.07L388.082 288.711C388.082 290.022 387.008 291.075 385.697 291.075L373.318 291.097C372.007 291.097 370.933 290.044 370.933 288.733L370.89 267.092C370.89 266.06 371.105 265.029 371.535 264.083H387.373Z" fill="#7F1CA0"/>
<path d="M387.373 264.083C387.803 265.029 388.039 266.039 388.039 267.07L388.082 288.711C388.082 290.022 387.008 291.075 385.697 291.075L373.318 291.097C372.007 291.097 370.933 290.044 370.933 288.733L370.89 267.092C370.89 266.06 371.105 265.029 371.535 264.083H387.373Z" fill="#7F1CA0"/>
<path d="M370.868 267.113L370.911 288.754C370.911 290.065 371.986 291.118 373.318 291.118L385.697 291.097C387.029 291.097 388.082 290.022 388.082 288.733L388.039 267.092C388.039 266.06 387.803 265.029 387.373 264.105L371.535 264.148C371.105 265.05 370.868 266.082 370.868 267.113Z" fill="#8095DD"/>
<path d="M384.794 288.711L384.751 267.07C384.751 266.039 384.515 265.007 384.085 264.083H387.373C387.803 265.029 388.039 266.039 388.039 267.07L388.082 288.711C388.082 290.022 387.008 291.075 385.697 291.075H382.409C383.741 291.097 384.816 290.022 384.794 288.711Z" fill="#98ADF8"/>
<path d="M370.868 267.113L370.911 288.754C370.911 290.065 371.986 291.118 373.318 291.118L378.369 291.097C377.036 291.097 375.94 290.044 375.94 288.733L375.897 267.092C375.897 266.06 376.112 265.029 376.563 264.105L371.535 264.126C371.105 265.05 370.868 266.082 370.868 267.113Z" fill="#687DC5"/>
<path d="M371.535 264.105L387.373 264.062C387.373 263.374 386.793 262.815 386.105 262.815L372.803 262.858C372.093 262.858 371.535 263.417 371.535 264.105Z" fill="#13375B"/>
<path d="M388.062 284.439L388.069 287.126L370.919 287.168L370.913 284.482L388.062 284.439Z" fill="#355389"/>
<path d="M402.954 257.12H401.063C401.363 256.905 401.75 256.776 402.18 256.776H449.567C452.038 256.776 454.058 258.56 454.058 260.752V263.288C454.058 265.48 452.038 267.264 449.567 267.264L402.696 267.242L402.954 257.12Z" fill="#86B1F2"/>
<path d="M429.86 256.776C432.224 256.776 434.158 258.474 434.158 260.58V263.438C434.158 265.544 432.245 267.242 429.86 267.242H400.353V266.598H400.482L407.982 265.974L409.508 260.709C409.508 260.709 406.585 257.786 406.392 257.722C406.199 257.657 400.482 257.421 400.482 257.421H400.353V256.776H429.86Z" fill="#466EB6"/>
<path d="M402.266 261.999C402.266 258.925 400.461 257.421 400.461 257.421H429.258C431.429 257.421 433.212 258.99 433.212 260.924V263.116C433.212 265.05 431.45 266.619 429.258 266.619H400.482C400.461 266.619 402.266 265.888 402.266 261.999Z" fill="#FAE0B2"/>
<path d="M433.191 260.924V263.116C433.191 263.395 433.148 263.696 433.083 263.954C432.116 261.848 430.246 259.828 426.701 259.162C418.427 257.636 400.461 257.421 400.461 257.421H429.258C431.428 257.421 433.191 258.99 433.191 260.924Z" fill="#DAEEF7"/>
<path d="M403.727 278.073H401.578C401.922 277.816 402.373 277.644 402.846 277.644H456.508C459.323 277.644 461.58 279.879 461.58 282.629V285.789C461.58 288.539 459.302 290.774 456.508 290.774L403.469 290.753L403.727 278.073Z" fill="#50BFA5"/>
<path d="M434.179 277.665C436.866 277.665 439.036 279.793 439.036 282.436V286.003C439.036 288.625 436.866 290.774 434.179 290.774H400.783V289.979H400.934L409.422 289.184L411.141 282.586C411.141 282.586 407.832 278.933 407.617 278.847C407.402 278.761 400.934 278.46 400.934 278.46H400.805V277.665H434.179Z" fill="#3C8F7C"/>
<path d="M402.954 284.198C402.954 280.33 400.912 278.46 400.912 278.46H433.513C435.984 278.46 437.983 280.416 437.983 282.844V285.595C437.983 288.002 435.984 289.979 433.513 289.979H400.933C400.912 289.958 402.954 289.055 402.954 284.198Z" fill="#FAE0B2"/>
<path d="M437.962 282.844V285.595C437.962 285.96 437.919 286.304 437.833 286.648C436.737 284.005 434.631 281.469 430.612 280.652C421.242 278.74 400.912 278.46 400.912 278.46H433.513C435.963 278.46 437.962 280.416 437.962 282.844Z" fill="#DAEEF7"/>
<path d="M463.342 267.565H465.491C465.147 267.35 464.696 267.221 464.223 267.221H410.561C407.746 267.221 405.468 268.983 405.468 271.175V273.689C405.468 275.882 407.746 277.644 410.561 277.644L463.621 277.622L463.342 267.565Z" fill="#8095DD"/>
<path d="M432.89 267.242C430.204 267.242 428.033 268.94 428.033 271.025V273.861C428.033 275.946 430.204 277.644 432.89 277.644H466.286V276.999H466.157L457.668 276.376L455.949 271.132C455.949 271.132 459.259 268.231 459.474 268.166C459.689 268.102 466.157 267.866 466.157 267.866H466.286V267.242H432.89Z" fill="#3965BB"/>
<path d="M464.116 272.422C464.116 269.37 466.157 267.866 466.157 267.866H433.556C431.085 267.866 429.086 269.413 429.086 271.347V273.539C429.086 275.452 431.085 277.021 433.556 277.021H466.157C466.157 276.999 464.116 276.268 464.116 272.422Z" fill="#FAE0B2"/>
<path d="M429.108 271.347V273.539C429.108 273.818 429.151 274.098 429.237 274.377C430.333 272.293 432.439 270.273 436.457 269.628C445.827 268.123 466.179 267.887 466.179 267.887H433.578C431.106 267.887 429.108 269.434 429.108 271.347Z" fill="#DAEEF7"/>
<path d="M277.677 273.14L282.702 272.188L304.551 387.473L299.525 388.425L277.677 273.14Z" fill="#184655"/>
<path d="M132.586 388.986H126.548L149.091 272.185L154.12 273.152L132.586 388.986Z" fill="#184655"/>
<path d="M243.391 388.986H237.352L259.896 272.185L264.925 273.152L243.391 388.986Z" fill="#184655"/>
<path d="M187.731 388.986L192.652 389.05L171.033 272.722L166.004 273.668L187.731 388.986Z" fill="#184655"/>
<path d="M209.694 114.896C189.772 117.024 163.984 119.28 138.109 163.207C109.828 211.216 124.721 282.93 147.049 302.852C169.378 322.774 242.295 347.38 303.608 310.545C303.608 310.545 340.614 288.217 321.617 251.167C292.39 194.153 296.516 182.269 283.45 159.919C270.383 137.569 251.987 110.362 209.694 114.896Z" fill="#FFE9E9"/>
<path d="M138.088 163.207C155.753 133.227 173.375 122.654 189.106 118.292C183.024 124.588 176.835 132.69 170.667 143.177C142.386 191.187 157.279 262.901 179.607 282.823C199.4 300.488 258.993 321.849 314.998 300.746C309.238 307.107 303.586 310.524 303.586 310.524C242.274 347.359 169.357 322.752 147.028 302.83C124.699 282.93 109.806 211.216 138.088 163.207Z" fill="#D6CECE"/>
<path d="M179.113 0.265859C199.744 0.136916 216.507 10.3234 216.593 22.9813C216.636 29.321 212.488 35.0804 205.761 39.2711L214.25 57.9033L196.542 43.4832C191.406 45.1595 185.582 46.1051 179.393 46.148C158.762 46.277 141.999 36.0905 141.913 23.4326C141.827 10.7532 158.482 0.394802 179.113 0.265859Z" fill="#98ADF8"/>
<path d="M391.955 180.12L335.027 179.69C333.737 179.69 332.684 178.615 332.684 177.326L332.963 139.266C332.963 137.977 334.038 136.924 335.327 136.924L392.256 137.354C393.545 137.354 394.598 138.428 394.598 139.718L394.319 177.777C394.319 179.088 393.266 180.12 391.955 180.12Z" fill="#3965BB"/>
<path d="M334.726 158.092L316.33 176.832L339.024 172.598L334.726 158.092Z" fill="#3965BB"/>
<path d="M273.65 187.878L278.786 203.243L263.162 197.097L273.65 187.878Z" fill="#F79C8D"/>
<path d="M257.575 142.146C258.606 142.189 261.465 143.135 265.634 151C270.963 161.036 278.743 191.316 278.743 191.316L255.512 199.934L252.525 193.616L247.603 144.94C247.603 144.94 257.274 142.146 257.575 142.146Z" fill="#8299ED"/>
<path d="M226.865 137.783C233.505 137.783 249.946 139.718 257.575 142.146C257.575 142.146 263.184 190.134 252.525 226.625C250.139 234.792 254.502 260.473 254.502 260.473L185.668 259.57C185.668 259.57 193.812 197.484 190.739 187.469C187.666 177.433 187.602 142.49 187.602 142.49C187.602 142.49 188.075 142.425 203.075 139.825C210.059 138.622 219.773 137.783 226.865 137.783Z" fill="#98ADF8"/>
<path d="M218.849 349.551C218.849 349.551 220.375 367.066 223.169 371.922C225.962 376.779 223.018 385.01 222.868 386.149C222.717 387.288 216.979 388.9 207.846 387.933C198.712 386.966 198.863 384.86 199.593 381.464C200.324 378.069 205.203 373.706 205.482 370.461C205.783 367.237 202.688 355.59 202.688 355.59L218.849 349.551Z" fill="white"/>
<path d="M246.722 246.01C246.722 246.01 294.238 243.388 304.832 249.792C315.449 256.196 302.92 269.348 302.92 269.348C302.92 269.348 264.237 286.111 199.486 289.829C184.142 290.71 182.831 249.985 185.689 246.611C188.569 243.237 246.722 246.01 246.722 246.01Z" fill="#656565"/>
<path d="M206.707 389.287C197.294 388.298 198.455 383.678 199.228 380.196C199.701 378.004 202.409 375.426 204.021 372.976C204.859 373.642 206.234 374.824 210.317 376.027C214.551 377.274 220.375 374.802 224.071 373.255C225.382 378.155 225.447 384.409 225.339 385.354C225.167 386.515 216.12 390.275 206.707 389.287Z" fill="#263238"/>
<path d="M211.886 279.879C213.777 294.191 223.19 365.454 223.19 365.454L201.377 368.14C201.377 368.14 174.557 275.129 175.933 260.903C177.308 246.676 187.344 245.472 187.344 245.472C187.344 245.472 206.879 241.991 211.886 279.879Z" fill="#707070"/>
<path d="M232.775 77.2233C232.775 77.2233 225.532 69.5942 219.709 78.8781C219.709 78.8781 215.217 76.3637 212.079 80.8552C212.079 80.8552 203.978 78.4053 202 90.5474C202 90.5474 197.831 89.7523 197.272 94.7166C196.714 99.6809 199.25 102.99 199.25 102.99C199.25 102.99 196.907 104.753 197.96 109.309C198.863 113.177 202.065 113.779 202.065 113.779C202.065 113.779 202.924 120.312 205.761 122.289C208.598 124.266 212.445 123.32 212.445 123.32C212.445 123.32 213.476 126.866 216.786 126.544C220.095 126.222 224.179 123.084 227.896 124.502C231.593 125.921 241.199 124.416 241.199 124.416C241.199 124.416 251.987 119.603 248.764 108.578C248.764 108.578 254.437 103.463 249.473 97.3169C249.473 97.3169 253.105 87.7107 245.927 82.0372C238.771 76.3637 232.775 77.2233 232.775 77.2233Z" fill="#263238"/>
<path d="M231.571 129.101L232.882 138.836C232.882 138.836 235.827 152.848 232.044 155.556C228.262 158.264 215.969 138.428 215.969 138.428L217.259 113.779L231.571 129.101Z" fill="white"/>
<path d="M216.829 121.752C219.945 130.154 227.381 135.334 232.667 137.332L231.55 129.08L217.237 113.757L216.829 121.752Z" fill="#C4C4C4"/>
<path d="M225.984 87.8611C233.656 85.2178 241.822 90.311 243.004 98.2195C243.52 101.658 243.971 105.978 244.057 110.706C244.272 122.074 238.384 133.12 233.226 133.12C228.068 133.12 213.799 125.77 213.283 109.631C212.961 99.6809 217.946 90.6334 225.984 87.8611Z" fill="white"/>
<path d="M217.087 110.92C217.087 113.435 215.432 115.455 213.369 115.455C211.306 115.455 209.651 113.413 209.651 110.92C209.651 108.406 211.306 106.386 213.369 106.386C215.432 106.386 217.087 108.406 217.087 110.92Z" fill="white"/>
<path d="M248.355 82.209C253.685 86.4211 255.555 92.8468 252.525 96.5431C249.494 100.239 242.725 99.8097 237.395 95.576C232.066 91.3639 230.196 84.9383 233.226 81.2419C236.235 77.567 243.026 77.9968 248.355 82.209Z" fill="#263238"/>
<path d="M186.85 147.82C193.275 145.413 196.434 203.201 197.294 226.99C208.684 228.086 228.563 226.99 233.506 226.625C235.826 226.453 241.199 224.498 243.499 224.197C245.863 223.896 248.012 223.724 249.194 223.939C249.623 224.003 261.508 228.86 262.518 229.913C263.786 231.224 267.181 234.555 266.601 235.995C266.021 237.435 260.046 231.998 260.046 231.998L257.124 230.364C260.755 233.91 267.697 238.574 266.687 240.272C265.72 241.926 259.466 237.198 254.996 233.975C258.821 237.413 263.571 243.581 262.475 244.548C261.486 245.408 256.092 238.273 250.311 236.231C248.162 235.479 246.034 237.585 244.358 237.843C243.112 238.037 241.221 238.423 239.996 238.08L233.742 236.317C231.614 236.511 231.55 237.757 229.401 238.23C226.908 238.767 222.803 239.326 219.623 240.1C201.313 244.57 195.188 246.633 189.579 246.633C172.623 246.525 171.656 153.493 186.85 147.82Z" fill="white"/>
<path d="M174.643 202.062C173.44 177.691 173.612 147.669 187.323 142.554C192.738 140.534 202.258 152.698 200.539 202.556C193.232 203.158 182.487 203.652 174.643 202.062Z" fill="#98ADF8"/>
<path d="M251.3 191.596H249.903L228.906 243.022L230.368 242.808L251.3 191.596Z" fill="#F79C8D"/>
<path d="M282.611 364.53C282.611 364.53 280.699 370.612 284.116 374.63C287.533 378.649 301.673 382.603 303.543 384.774C305.391 386.944 305.262 388.814 305.262 388.814L265.526 387.718L265.956 375.748L267.783 367.152L282.611 364.53Z" fill="white"/>
<path d="M286.587 376.65C286.587 376.65 276.379 380.776 271.436 378.327C266.515 375.898 266.644 375.21 265.225 376.113C263.807 377.016 263.291 388.234 263.291 388.234L307.97 389.545C311.086 389.48 312.655 387.181 310.119 385.246C308.378 383.914 306.38 383.011 305.241 382.367C301.759 380.347 286.587 376.65 286.587 376.65Z" fill="#263238"/>
<path d="M281.107 257.228C284.18 250.78 291.165 242.399 303.457 247.449C315.169 252.263 318.329 264.105 314.632 276.225C310.936 288.346 286.587 359.608 285.749 369.408L266.3 369.537C266.3 369.537 269.824 313.103 270.706 299.456C271.522 286.369 275.799 268.381 281.107 257.228Z" fill="#707070"/>
<path d="M312.655 191.596H247.667C245.948 191.596 244.401 192.627 243.756 194.218L223.749 243.022H187.924C186.914 243.022 186.119 243.839 186.119 244.828C186.119 245.838 186.935 246.633 187.924 246.633H289.875C292.669 246.633 295.226 244.978 296.365 242.421L316.502 197.549C317.791 194.755 315.728 191.596 312.655 191.596Z" fill="#3965BB"/>
<path d="M277.669 220.006C277.239 222.198 275.326 223.659 273.392 223.273C271.479 222.886 270.276 220.801 270.706 218.609C271.136 216.417 273.048 214.956 274.982 215.343C276.916 215.729 278.12 217.814 277.669 220.006Z" fill="white"/>
<path opacity="0.3" d="M142.656 122.568C124.936 122.568 110.571 108.174 110.571 90.4186C110.571 72.6627 124.936 58.2688 142.656 58.2688C160.376 58.2688 174.741 72.6627 174.741 90.4186C174.741 108.174 160.376 122.568 142.656 122.568Z" fill="#9BC1F9"/>
<path d="M165.35 89.7739H177.169V90.6765H165.35V89.7739Z" fill="#184655"/>
<path d="M108.099 89.7739H119.919V90.6765H108.099V89.7739Z" fill="#184655"/>
<path d="M142.269 56.0767H143.171V67.9394H142.269V56.0767Z" fill="#184655"/>
<path d="M142.269 113.22H143.171V125.083H142.269V113.22Z" fill="#184655"/>
<path d="M141.689 90.4186C141.689 90.9559 142.118 91.4072 142.677 91.4072C143.215 91.4072 143.666 90.9774 143.666 90.4186C143.666 89.8814 143.236 89.4301 142.677 89.4301C142.118 89.4301 141.689 89.8814 141.689 90.4186Z" fill="#184655"/>
<path d="M142.656 90.8483C142.763 90.8483 142.871 90.8053 142.957 90.7193L160.557 73.0971C160.729 72.9252 160.729 72.6458 160.557 72.4739C160.385 72.302 160.106 72.302 159.934 72.4739L142.333 90.0961C142.161 90.268 142.161 90.5474 142.333 90.7193C142.441 90.8053 142.548 90.8483 142.656 90.8483Z" fill="#184655"/>
<path d="M137.004 108.234C137.068 108.191 137.133 108.127 137.154 108.041L142.849 90.8269C142.914 90.655 142.806 90.4831 142.656 90.4186C142.484 90.3542 142.312 90.4616 142.248 90.612L136.553 107.826C136.488 107.998 136.596 108.17 136.746 108.234C136.853 108.277 136.939 108.277 137.004 108.234Z" fill="#184655"/>
<path d="M91.53 162.927L88.6718 158.285L90.9713 157.361C91.4655 157.168 91.7234 156.588 91.5085 156.072C91.3151 155.578 90.7349 155.32 90.2191 155.535L87.5757 156.609L85.0184 152.44L87.4683 151.451C87.9626 151.258 88.2205 150.678 88.0056 150.162C87.8121 149.668 87.2319 149.41 86.7161 149.625L83.9009 150.764L80.9352 145.971C80.6773 145.563 80.183 145.391 79.7317 145.585L79.3019 145.756C78.7432 145.993 78.5068 146.659 78.8291 147.175L81.6014 151.688L77.5182 153.343L74.5525 148.55C74.2947 148.142 73.8004 147.97 73.3491 148.163L72.8763 148.357C72.3175 148.593 72.0811 149.259 72.4035 149.775L75.1758 154.288L72.8763 155.212C72.382 155.406 72.1241 155.986 72.339 156.502C72.5324 156.996 73.1127 157.254 73.6284 157.039L76.2718 155.964L78.7862 160.155L76.3363 161.144C75.842 161.337 75.5841 161.917 75.799 162.433C75.9924 162.927 76.5727 163.185 77.0884 162.97L79.9037 161.831L82.9338 166.774C83.1917 167.182 83.686 167.354 84.1373 167.161L84.6316 166.968C85.1903 166.731 85.4267 166.065 85.1043 165.549L82.2462 160.907L86.3293 159.252L89.3595 164.195C89.6174 164.604 90.1117 164.775 90.563 164.582L91.0572 164.389C91.616 164.131 91.8524 163.465 91.53 162.927ZM81.1501 159.209L78.5928 155.04L82.676 153.386L85.2333 157.555L81.1501 159.209Z" fill="#07345A"/>
<path d="M130.643 36.3914L128.451 31.4271L131.287 26.8067C131.61 26.2909 131.18 25.6032 130.578 25.6677L125.184 26.2264L121.66 22.1002C121.251 21.6275 120.499 21.8209 120.37 22.4226L119.231 27.7308L114.224 29.7938C113.644 30.0302 113.601 30.8254 114.138 31.1262L118.823 33.8555L119.231 39.2711C119.274 39.8944 120.005 40.1737 120.478 39.7654L124.518 36.155L129.783 37.423C130.406 37.5734 130.9 36.9717 130.643 36.3914Z" fill="#3965BB"/>
<path d="M107.659 259.135L108.003 255.03L111.592 252.989C112 252.752 111.957 252.151 111.528 251.979L107.724 250.388L106.886 246.348C106.8 245.897 106.22 245.747 105.897 246.09L103.211 249.206L99.1061 248.755C98.6334 248.712 98.311 249.206 98.5689 249.615L100.696 253.139L98.9987 256.9C98.8053 257.33 99.1921 257.781 99.6434 257.695L103.662 256.75L106.714 259.522C107.058 259.823 107.616 259.608 107.659 259.135Z" fill="#98ADF8"/>
<path d="M351.484 290.753H485.993V297.694H351.484V290.753Z" fill="#263238"/>
<path d="M395.626 331.048H483.565V337.129H395.626V331.048Z" fill="#263238"/>
<path d="M364.701 294.234H370.374V388.986H364.701V294.234Z" fill="#263238"/>
<path d="M444.925 294.234H450.598V388.986H444.925V294.234Z" fill="#263238"/>
<path d="M410.712 388.964L380.152 295.051L385.16 293.418L416.256 388.964H410.712Z" fill="#263238"/>
<path d="M496.695 388.964L470.541 294.836L475.635 293.439L502.154 388.964H496.695Z" fill="#263238"/>
<path d="M142.656 52.8745C163.351 52.8745 180.135 69.6801 180.135 90.4184C180.135 111.157 163.351 127.962 142.656 127.962C121.96 127.962 105.176 111.157 105.176 90.4184C105.198 69.6801 121.96 52.8745 142.656 52.8745ZM140.657 122.504C158.344 123.621 173.581 110.147 174.698 92.4385C175.816 74.7088 162.363 59.4506 144.676 58.3331C126.989 57.2156 111.753 70.6901 110.635 88.3983C109.539 106.128 122.971 121.386 140.657 122.504Z" fill="#263238"/>
<path d="M232.79 108.443L234.229 118.856L230.146 119.198" stroke="#263238" stroke-miterlimit="10" stroke-linecap="round" stroke-linejoin="round"/>
<path d="M232.428 122.902C232.428 122.902 227.51 124.317 224.179 119.339" stroke="#263238" stroke-miterlimit="10" stroke-linecap="round" stroke-linejoin="round"/>
<path d="M241.169 104.839C241.169 104.839 235.98 104.487 234.377 105.016" stroke="#263238" stroke-width="2" stroke-miterlimit="10" stroke-linecap="round" stroke-linejoin="round"/>
<path d="M227.128 103.607C227.128 103.607 223.797 101.595 220.712 104.091" stroke="#263238" stroke-width="2" stroke-miterlimit="10" stroke-linecap="round" stroke-linejoin="round"/>
<path d="M236.972 109.31C236.923 110.189 237.258 111.006 237.768 111.047C238.278 111.088 238.736 110.375 238.856 109.511C238.905 108.632 238.57 107.815 238.06 107.774C237.55 107.734 237.108 108.376 236.972 109.31Z" fill="#263238"/>
<path d="M224.645 110.021C224.595 110.9 224.931 111.718 225.441 111.759C225.951 111.799 226.408 111.086 226.528 110.223C226.578 109.344 226.243 108.526 225.732 108.486C225.168 108.358 224.71 109.072 224.645 110.021Z" fill="#263238"/>
<path d="M377.337 160.936C377.485 160.148 377.534 159.36 377.534 158.522C377.534 150.836 371.327 144.629 363.641 144.629C362.804 144.629 362.015 144.678 361.227 144.826C359.995 144.136 358.616 143.742 357.138 143.742C352.556 143.742 348.861 147.437 348.861 152.019C348.861 153.497 349.255 154.926 349.945 156.108C349.797 156.896 349.748 157.684 349.748 158.522C349.748 166.208 355.956 172.415 363.641 172.415C364.479 172.415 365.267 172.366 366.055 172.218C367.287 172.908 368.666 173.302 370.144 173.302C374.726 173.302 378.421 169.607 378.421 165.025C378.421 163.547 378.027 162.168 377.337 160.936ZM370.144 171.184C369.06 171.184 368.026 170.888 367.09 170.395L366.449 170.001L365.71 170.149C365.07 170.248 364.38 170.346 363.641 170.346C357.138 170.346 351.866 165.074 351.866 158.571C351.866 157.882 351.916 157.192 352.063 156.502L352.211 155.763L351.768 155.073C351.226 154.137 350.98 153.103 350.98 152.019C350.98 148.619 353.739 145.86 357.138 145.86C358.222 145.86 359.256 146.156 360.192 146.649L360.833 147.043L361.572 146.895C362.262 146.796 362.951 146.698 363.641 146.698C370.144 146.698 375.416 151.97 375.416 158.473C375.416 159.162 375.367 159.852 375.219 160.542L375.071 161.281L375.465 161.921C376.007 162.857 376.253 163.892 376.253 164.976C376.303 168.425 373.544 171.184 370.144 171.184Z" fill="white"/>
<path d="M366.154 157.192L363.05 156.502C361.868 156.206 360.537 155.862 360.537 154.728C360.537 153.595 361.473 152.807 363.198 152.807C366.696 152.807 366.4 155.221 368.124 155.221C369.011 155.221 369.799 154.728 369.799 153.792C369.799 151.625 366.351 149.999 363.395 149.999C360.242 149.999 356.892 151.28 356.892 154.925C356.892 156.65 357.483 158.522 360.882 159.409L365.119 160.493C366.4 160.788 366.794 161.527 366.794 162.168C366.794 163.252 365.661 164.434 363.74 164.434C359.946 164.434 360.488 161.429 358.468 161.429C357.581 161.429 356.842 162.069 356.842 162.956C356.842 164.73 359.01 167.144 363.74 167.144C368.272 167.144 370.538 164.877 370.538 161.921C370.489 159.951 369.602 157.98 366.154 157.192Z" fill="white"/>
<path d="M153.786 18.6519C154.608 18.6519 155.456 18.6623 156.33 18.6831C157.215 18.6935 158.017 18.7403 158.735 18.8236L158.61 20.541H154.707C154.134 20.541 153.848 20.8064 153.848 21.3372V23.2107H158.032V24.8969H153.848V29.4714H151.475V20.8532C151.475 20.1767 151.688 19.6407 152.115 19.2451C152.542 18.8496 153.099 18.6519 153.786 18.6519Z" fill="white"/>
<path d="M162.867 18.6987V29.4714H160.494V18.6987H162.867Z" fill="white"/>
<path d="M172.812 27.6916V29.4714H164.865V27.6916L170.049 20.4629H164.99V18.6987H172.687V20.4629L167.488 27.6916H172.812Z" fill="white"/>
<path d="M185.832 18.6987C186.394 18.6987 186.686 18.9901 186.707 19.573L187.112 29.4714H184.911L184.552 20.5254H184.271L182.538 27.2544C182.434 27.754 182.122 28.0038 181.601 28.0038H180.102C179.572 28.0038 179.254 27.754 179.15 27.2544L177.401 20.5254H177.136L176.808 29.4714H174.607L174.997 19.573C175.018 18.9901 175.315 18.6987 175.887 18.6987H178.12C178.63 18.6987 178.942 18.9485 179.056 19.4481L180.446 24.8813C180.508 25.1311 180.56 25.3861 180.602 25.6463C180.644 25.8961 180.69 26.1511 180.743 26.4113H180.945C180.998 26.1511 181.044 25.8961 181.086 25.6463C181.128 25.3861 181.18 25.1259 181.242 24.8657L182.616 19.4481C182.72 18.9485 183.038 18.6987 183.568 18.6987H185.832Z" fill="white"/>
<path d="M194.529 18.6987C194.727 18.6987 194.899 18.7559 195.045 18.8704C195.201 18.9849 195.305 19.1358 195.357 19.3232L198.479 29.4714H196.044L195.248 26.6143H191.532L190.751 29.4714H188.316L191.438 19.3232C191.49 19.1358 191.589 18.9849 191.735 18.8704C191.891 18.7559 192.068 18.6987 192.266 18.6987H194.529ZM192.953 21.5402L192.031 24.8344H194.748L193.842 21.5402C193.79 21.3737 193.744 21.2019 193.702 21.025C193.671 20.8376 193.64 20.6607 193.608 20.4941H193.187C193.156 20.6607 193.119 20.8376 193.077 21.025C193.036 21.2019 192.994 21.3737 192.953 21.5402Z" fill="white"/>
<path d="M207.031 18.6987V20.5722H203.783V29.4714H201.41V20.5722H198.163V18.6987H207.031Z" fill="white"/>
</svg>
