<svg width="46" height="51" viewBox="0 0 46 51" fill="none" xmlns="http://www.w3.org/2000/svg">
<path fill-rule="evenodd" clip-rule="evenodd" d="M24.4076 6.79074C29.7775 6.73335 34.529 10.1916 37.568 14.6191C40.3484 18.6696 40.1093 23.6687 39.3214 28.5181C38.4373 33.9602 37.922 40.4701 32.9732 42.9008C28.0056 45.3407 22.554 41.7134 17.64 39.1673C12.9899 36.758 7.78852 34.2782 6.52286 29.1962C5.23694 24.0329 8.27585 19.0553 11.5954 14.8967C14.9124 10.7412 19.091 6.84757 24.4076 6.79074Z" fill="#3965BB"/>
<path fill-rule="evenodd" clip-rule="evenodd" d="M24.7816 1.76799C31.6125 1.69497 37.657 6.09421 41.523 11.7264C45.0598 16.8792 44.7557 23.2385 43.7534 29.4074C42.6287 36.3304 41.9732 44.6117 35.6779 47.7037C29.3586 50.8076 22.4235 46.1932 16.1724 42.9544C10.257 39.8895 3.64029 36.7349 2.03023 30.2701C0.394412 23.7019 4.26022 17.3697 8.483 12.0796C12.7026 6.79341 18.0182 1.84028 24.7816 1.76799Z" stroke="#3965BB" stroke-width="3" stroke-dasharray="10 10"/>
</svg>
