<svg width="354" height="149" viewBox="0 0 354 149" fill="none" xmlns="http://www.w3.org/2000/svg">
<path d="M26.0794 29.6755H24.4655V37.4224H26.0794V29.6755Z" fill="#8FB0F1"/>
<path d="M26.0794 104.4H24.4655V117.795H26.0794V104.4Z" fill="#8FB0F1"/>
<path d="M26.0794 131.03H24.4655V138.777H26.0794V131.03Z" fill="#8FB0F1"/>
<path d="M100.642 29.6755H99.0283V37.4224H100.642V29.6755Z" fill="#8FB0F1"/>
<path d="M100.642 50.8179H99.0283V64.2134H100.642V50.8179Z" fill="#8FB0F1"/>
<path d="M100.642 104.4H99.0283V117.795H100.642V104.4Z" fill="#8FB0F1"/>
<path d="M100.642 131.03H99.0283V138.777H100.642V131.03Z" fill="#8FB0F1"/>
<path d="M191.345 0.947998H189.731V8.69481H191.345V0.947998Z" fill="#8FB0F1"/>
<path d="M191.345 103.916H189.731V117.473H191.345V103.916Z" fill="#8FB0F1"/>
<path d="M191.345 49.5269H189.731V63.0838H191.345V49.5269Z" fill="#8FB0F1"/>
<path d="M191.345 131.03H189.731V138.777H191.345V131.03Z" fill="#8FB0F1"/>
<path d="M215.069 80.3527H221.363V78.7388H214.908C214.908 76.8021 214.908 74.8653 214.908 72.9286C214.908 72.1217 214.908 71.1533 214.908 70.3464C214.908 55.6597 212.81 37.7452 206.838 31.1282C204.74 28.8687 201.996 26.932 198.769 25.8022H204.901V24.1883H191.022V22.0902H189.408V24.1883H177.949V25.8022H184.082C182.629 26.2864 181.338 27.0934 180.047 28.0617C171.332 34.1946 164.553 47.9129 161.81 65.666C161.003 70.6692 159.873 75.0267 158.259 78.9001H122.592C121.3 75.1881 120.332 71.6375 119.848 69.5394C117.75 59.6945 112.101 49.5268 104.193 46.7832C109.519 46.6218 113.392 46.7832 114.199 47.2673C114.199 47.2673 114.038 47.1059 114.038 46.9445H115.652C115.652 46.6218 115.49 46.4604 115.329 46.1376C113.392 44.3623 93.3797 45.6534 87.2468 46.1376L87.4082 47.5901C89.9904 47.4287 92.5727 47.2673 95.155 47.1059C87.4082 50.1724 81.5981 59.6945 78.693 74.3812C78.3702 75.9951 78.0474 77.4476 77.5633 78.9001H42.0571C39.959 71.4761 37.6995 63.4065 35.7628 60.8243C34.4716 59.0489 32.5349 57.7578 30.4369 56.9509H43.9938V55.3369H26.0793V50.818H24.4654V55.3369H10.5857V56.9509H22.5287C20.9147 57.5964 19.4622 58.5648 18.1711 60.0173C16.073 62.4382 13.4907 70.5078 11.2312 78.9001H0.417969V80.5141H11.0698C8.32617 91.3273 6.06668 102.625 5.90529 103.432L7.35782 103.754C7.35782 103.593 9.7787 91.8115 12.6837 80.5141H24.6267V91.0045H26.2407V80.5141H40.7659C40.7659 80.6754 40.9273 80.9982 40.9273 81.1596C42.3798 86.1628 43.5096 90.5203 44.3166 92.2957C45.6077 95.2007 48.0286 97.9444 51.2564 99.3969H42.2185V101.011H74.6582V99.3969H60.1329H60.2943C67.2342 96.6532 74.4968 93.9096 78.5316 80.5141H98.867V91.0045H100.481V80.5141H121.462C124.206 87.4539 128.563 95.0393 135.342 96.976H127.595V98.5899H156.322V96.976H141.959C149.544 95.3621 155.354 89.7134 159.228 80.5141H189.569V90.359H191.183V80.5141H213.455C214.101 93.7482 218.136 109.08 243.635 116.827L244.12 115.375C219.427 107.628 215.553 93.5868 215.069 80.3527ZM26.0793 78.9001V77.609H24.4654V78.9001H13.0065C15.1046 70.8305 17.5255 63.2451 19.4622 60.9857C20.9147 59.3717 22.5287 58.4034 24.4654 57.9192V64.2135H26.0793V57.7578C26.4021 57.7578 26.5634 57.7578 26.8862 57.7578C29.9527 57.9192 32.6963 59.3717 34.4716 61.7926C36.247 64.2135 38.5064 71.9603 40.4431 79.0615H26.0793V78.9001ZM59.8102 97.9444C50.7722 101.495 46.4146 93.264 45.6077 91.6501C44.8007 90.0362 43.671 85.5172 42.2185 80.6755C42.2185 80.5141 42.2185 80.5141 42.2185 80.3527H76.9177C73.2057 92.7798 66.5886 95.2007 59.8102 97.9444ZM100.481 78.9001V77.609H98.867V78.9001H79.0158C79.3386 77.609 79.6614 76.1565 79.9841 74.704C83.3734 58.0806 90.7974 47.9129 99.9967 47.5901C109.035 47.2673 115.975 58.5648 118.395 69.7008C118.88 71.7989 119.687 75.0267 120.978 78.7388H100.481V78.9001ZM140.667 95.5235C131.952 96.976 126.465 88.4223 123.237 80.3527H157.614C153.74 89.0678 147.93 94.2324 140.667 95.5235ZM191.183 78.9001V76.802H189.569V78.9001H159.873C161.326 75.1881 162.455 70.8305 163.262 65.9888C166.006 48.5585 172.462 35.1629 180.854 29.3528C183.598 27.4161 186.664 26.4478 189.569 26.125V35.9699H191.183V26.125C196.832 26.125 202.319 28.7073 205.708 32.4193C211.357 38.7136 213.455 56.7895 213.455 70.5078C213.455 71.3147 213.455 72.2831 213.455 73.09C213.455 75.0267 213.455 76.9634 213.455 78.9001H191.183Z" fill="#8FB0F1"/>
<path d="M53.8386 122.153C57.5506 121.346 58.519 118.118 58.519 117.957L57.0665 117.473C57.0665 117.634 56.4209 119.894 53.5158 120.539C53.1931 120.701 53.0317 120.539 52.8703 120.378C52.2247 119.41 52.5475 116.827 53.3545 114.084C55.7753 112.308 58.3576 110.049 58.519 108.112C58.6804 106.821 58.6804 105.53 57.712 105.207C56.7437 104.884 55.7753 105.853 53.8386 109.242C53.1931 110.372 52.5475 111.663 52.0633 113.115C50.7722 113.922 49.481 114.729 48.5127 115.213L49.1583 116.505C49.481 116.343 50.288 115.859 51.4178 115.213C50.9336 117.634 50.7722 120.055 51.5791 121.185C51.9019 121.669 52.5475 121.992 53.1931 121.992C53.5158 122.153 53.6772 122.153 53.8386 122.153ZM55.1298 110.049C56.0981 108.435 56.7437 107.628 57.0665 107.144C57.0665 107.305 57.0665 107.628 57.0665 108.112C57.0665 109.081 55.9367 110.372 54.4842 111.501C54.6456 110.856 54.807 110.372 55.1298 110.049Z" fill="#8FB0F1"/>
<path d="M60.6172 121.346C60.7786 121.508 60.94 121.669 61.4241 121.669C61.5855 121.669 61.7469 121.669 61.9083 121.508C63.845 120.701 65.4589 118.28 65.6203 118.118L64.3292 117.312C64.3292 117.312 63.1995 119.087 61.7469 119.894C61.9083 118.925 62.3925 116.989 63.0381 114.891L61.5855 114.406C59.4874 120.378 60.2944 121.185 60.6172 121.346Z" fill="#8FB0F1"/>
<path d="M67.0729 114.245L65.4589 120.378C65.2976 120.701 65.6203 121.185 65.9431 121.346C66.1045 121.346 66.1045 121.346 66.2659 121.346C66.5887 121.346 66.9115 121.185 66.9115 120.862C68.364 117.634 70.4621 114.568 71.1077 114.568C71.1077 114.568 71.1077 114.568 71.2691 114.729C72.5602 117.15 71.7532 120.055 71.7532 120.055C71.5918 120.378 71.7532 120.862 72.2374 121.023C72.5602 121.185 73.0444 121.023 73.2058 120.701C74.3355 118.441 75.9494 115.859 76.9178 114.729C76.9178 115.536 76.7564 116.182 76.7564 116.827C76.595 118.441 76.4336 119.732 77.2405 120.378C77.5633 120.701 78.2089 120.862 78.8545 120.862L78.6931 119.409H78.5317C78.3703 119.409 78.3703 119.409 78.3703 119.409C78.2089 119.248 78.2089 117.957 78.3703 117.15C78.3703 116.343 78.5317 115.375 78.5317 114.406C78.5317 113.599 78.2089 112.954 77.7247 112.954C77.2406 112.792 76.4336 112.631 73.6899 117.15C73.5285 116.182 73.3671 115.375 72.883 114.406C72.3988 113.599 71.7532 113.438 71.4304 113.438C70.6235 113.438 69.6551 114.406 68.6868 115.536L68.8482 114.89L67.0729 114.245Z" fill="#8FB0F1"/>
<path d="M62.8708 109.436L62.6162 110.701L64.1985 111.02L64.4531 109.754L62.8708 109.436Z" fill="#8FB0F1"/>
<path d="M83.3733 136.033C82.8892 136.033 82.8892 135.871 82.7278 135.871C82.2436 135.549 82.2436 134.096 82.405 132.966C82.405 131.514 82.405 130.061 81.7594 129.093C81.4366 128.609 81.1138 128.447 80.6297 128.447C79.6613 128.447 78.5316 129.739 77.4018 131.191C77.4018 131.03 77.2404 131.03 77.079 130.868C76.7563 130.707 76.2721 130.868 76.1107 131.03C75.1423 132.321 72.2373 135.71 70.3006 135.064C68.5253 134.419 69.3322 130.384 69.8164 129.093C69.9778 128.77 69.8164 128.286 69.3322 128.125C69.0095 127.963 68.5253 128.125 68.3639 128.447C67.2341 130.707 65.1361 133.935 63.6835 134.257C63.5221 134.257 63.3607 134.257 63.3607 134.257C63.1994 133.935 63.5221 132.482 63.6835 131.514C63.8449 130.707 64.1677 129.739 64.1677 128.77C64.1677 128.447 64.3291 127.479 63.5221 127.156C63.038 126.995 62.3924 126.672 59.3259 131.514C59.3259 130.868 59.4873 130.223 59.6487 129.254C59.8101 128.447 59.4873 127.802 59.0032 127.64C58.6804 127.479 58.0348 127.318 55.9367 129.577L56.9051 127.802L55.4525 127.156L52.0633 134.58C51.9019 134.903 52.0633 135.387 52.3861 135.549C52.7089 135.71 53.1931 135.71 53.3544 135.387C54.9684 133.128 56.9051 130.707 58.0348 129.739C57.5506 132.966 57.5506 134.58 57.5506 134.742C57.5506 135.064 57.712 135.387 58.0348 135.549C58.3576 135.71 58.6804 135.549 58.8418 135.226C59.9715 133.289 61.424 131.191 62.3924 129.9C62.231 130.545 62.231 131.03 62.0696 131.514C61.5854 133.451 61.2626 134.903 62.0696 135.71C62.3924 136.033 63.038 136.194 63.6835 136.033C64.9747 135.71 66.2658 134.257 67.2341 132.805C67.2341 134.419 67.7183 136.194 69.3322 136.678C70.9462 137.324 72.8829 136.194 74.3354 134.903L73.8512 136.356C73.6898 136.678 73.8512 137.163 74.3354 137.324C74.6582 137.485 75.1423 137.324 75.3037 137.001C77.079 133.612 79.3385 130.384 80.1455 130.061C80.4683 130.707 80.4683 131.837 80.4683 132.966C80.4683 134.58 80.4683 136.033 81.2752 137.001C81.598 137.324 82.2436 137.485 82.7278 137.485C82.8892 137.485 82.8892 137.485 83.0505 137.485C86.2784 137.163 88.2151 135.871 88.3765 135.871L87.4081 134.58C87.7309 134.58 86.117 135.71 83.3733 136.033Z" fill="#8FB0F1"/>
<path d="M71.753 124.413H70.139V126.511H71.753V124.413Z" fill="#8FB0F1"/>
<path d="M131.63 117.634C131.952 118.28 132.437 118.603 133.082 118.764C133.728 118.925 134.373 118.925 134.857 118.925C137.117 118.925 137.763 117.634 137.763 117.473L136.471 116.827C136.471 116.827 135.826 117.796 133.566 117.15C133.244 117.15 133.244 116.989 133.082 116.827C132.598 116.02 133.244 113.922 134.051 111.985C136.149 110.372 138.247 108.273 138.247 106.66C138.247 104.884 137.763 103.755 136.956 103.593C135.826 103.432 135.18 104.884 134.696 106.337C134.373 107.144 134.051 107.951 133.728 108.919C133.405 109.565 133.082 110.372 132.921 111.017C131.791 111.824 130.823 112.47 130.339 112.47V114.084C130.661 114.084 131.307 113.922 131.952 113.438C131.307 115.213 131.145 116.666 131.63 117.634ZM136.149 106.982C136.31 106.498 136.471 106.014 136.633 105.853C136.633 106.175 136.633 106.337 136.633 106.821C136.633 107.305 136.149 108.112 135.342 108.919C135.664 108.273 135.826 107.628 136.149 106.982Z" fill="#8FB0F1"/>
<path d="M141.313 109.08C140.345 109.242 139.538 110.049 138.892 111.501C137.762 114.89 139.054 116.02 139.699 116.343C140.022 116.504 140.506 116.666 140.829 116.666C141.636 116.666 142.443 116.343 143.088 115.536C144.541 113.922 145.025 111.663 145.025 111.663C145.025 111.501 145.025 111.179 144.864 111.017C144.702 111.017 143.25 108.919 141.313 109.08ZM141.959 114.729C141.636 115.213 140.99 115.375 140.506 115.213C140.022 114.891 139.861 114.084 140.345 112.147C140.506 111.663 140.99 110.694 141.474 110.694C141.474 110.694 141.474 110.694 141.636 110.694C142.281 110.694 142.927 111.34 143.411 111.824C143.25 112.47 142.766 113.761 141.959 114.729Z" fill="#8FB0F1"/>
<path d="M150.997 116.182L151.965 112.631L154.547 115.697L155.677 114.729L152.611 111.017L157.452 108.435L156.645 107.144L152.772 109.242L154.063 104.4L152.611 103.916L150.835 110.21C150.674 110.371 150.513 110.533 150.513 110.694C150.513 110.856 150.513 111.017 150.513 111.178L149.221 115.859L150.997 116.182Z" fill="#8FB0F1"/>
<path d="M159.389 117.796C160.013 117.796 160.519 117.218 160.519 116.504C160.519 115.791 160.013 115.213 159.389 115.213C158.765 115.213 158.259 115.791 158.259 116.504C158.259 117.218 158.765 117.796 159.389 117.796Z" fill="#8FB0F1"/>
<path d="M141.152 124.897C139.538 124.735 138.408 126.833 137.762 129.093C137.601 128.286 137.278 127.479 136.955 126.833C136.633 126.349 135.987 125.865 135.019 126.349L134.857 126.511C134.857 125.704 134.696 125.058 134.696 124.735L133.243 125.058C133.405 126.026 133.566 126.995 133.566 127.963C132.114 129.738 130.5 132.644 131.145 133.773C131.307 134.096 131.63 134.419 132.275 134.419C132.437 134.419 132.598 134.419 132.921 134.257C134.857 133.612 135.342 130.868 135.342 128.447C135.826 127.963 136.149 127.802 136.31 127.64C137.278 129.254 137.44 132.482 137.44 133.451C137.44 133.773 137.762 134.257 138.085 134.257C138.408 134.257 138.892 133.935 138.892 133.612C139.538 129.738 140.829 126.188 141.636 126.349C142.443 126.511 142.766 129.738 142.443 133.128L143.895 133.289C143.573 131.514 143.895 125.22 141.152 124.897ZM132.114 132.644C132.275 132.321 132.437 131.675 132.759 131.03C132.759 131.675 132.437 132.321 132.114 132.644Z" fill="#8FB0F1"/>
<path d="M148.091 132.966C147.93 132.966 147.607 132.966 147.123 132.644C145.671 131.353 147.769 127.641 148.576 126.511L147.284 125.704C146.8 126.349 143.411 131.514 146.155 133.935C146.8 134.58 147.446 134.742 147.93 134.742C148.091 134.742 148.253 134.742 148.414 134.742C150.351 134.419 151.481 131.998 151.642 131.675L150.189 131.03C150.028 131.191 149.06 132.805 148.091 132.966Z" fill="#8FB0F1"/>
<path d="M149.473 121.155L148.158 122.993L149.471 123.932L150.786 122.094L149.473 121.155Z" fill="#8FB0F1"/>
<path d="M161.003 131.03C160.519 131.03 160.358 129.577 160.358 128.609C160.196 127.156 160.035 125.381 158.582 125.058C157.452 124.897 156.323 126.188 155.354 127.802C155.354 127.156 155.516 126.672 155.516 126.027C155.516 125.704 155.516 124.413 154.547 124.09C153.74 123.767 152.772 124.574 152.611 124.735L153.74 125.865L153.902 125.704C153.902 125.865 153.902 125.865 153.902 126.027C153.902 128.286 152.933 132.482 152.933 132.482C152.772 132.805 153.095 133.289 153.418 133.451H153.579C153.902 133.451 154.225 133.289 154.225 132.966C155.677 129.577 157.614 126.511 158.259 126.511C158.582 126.511 158.744 128.125 158.744 128.609C158.905 130.223 159.066 132.159 160.842 132.321C163.263 132.644 164.554 131.03 164.554 131.03L163.424 130.061C163.424 130.384 162.617 131.353 161.003 131.03Z" fill="#8FB0F1"/>
<path d="M207.322 127.641C206.515 131.837 206.354 133.451 207.322 133.935C207.484 133.935 207.645 134.096 207.968 134.096C208.129 134.096 208.291 134.096 208.613 133.935C210.873 132.805 212.164 130.707 212.325 130.546L211.034 129.739C211.034 129.739 210.066 131.353 208.452 132.321C208.452 131.353 208.775 129.254 209.098 127.802C209.582 125.058 210.066 122.315 209.582 121.023C209.42 120.216 208.775 120.055 208.613 120.055C208.291 120.055 207.161 119.894 204.094 125.704L204.579 120.862L203.126 120.701L202.319 129.739C202.319 130.061 202.48 130.384 202.965 130.546C203.287 130.707 203.772 130.384 203.933 130.061C205.386 126.834 207.484 123.122 208.452 121.992C207.968 123.283 207.645 125.704 207.322 127.641Z" fill="#8FB0F1"/>
<path d="M236.212 119.248C234.92 119.571 233.145 119.894 231.047 120.055C226.044 120.701 222.816 119.087 220.718 118.118C220.072 117.796 219.588 117.634 219.104 117.473C218.458 117.311 217.813 117.473 217.652 117.634C216.36 118.603 216.36 121.346 216.36 128.932C216.36 134.903 212.326 142.811 210.227 146.039C209.905 144.425 209.582 142.166 209.421 140.068C209.259 138.615 208.775 137.647 207.968 137.163C206.838 136.517 205.547 137.324 205.386 137.324L206.193 138.615C206.354 138.615 206.838 138.292 207.322 138.454C207.645 138.615 207.807 139.261 207.968 140.068C208.291 143.618 209.259 147.976 209.259 148.137C209.259 148.46 209.582 148.621 209.905 148.783H210.066C210.389 148.783 210.55 148.621 210.712 148.46C211.034 147.976 217.974 137.163 217.974 128.77C217.974 123.606 217.974 119.087 218.62 118.764C218.62 118.764 218.62 118.764 218.781 118.764C219.104 118.925 219.588 119.087 220.234 119.41C222.332 120.378 226.044 121.992 231.37 121.346C233.468 121.023 235.243 120.701 236.534 120.539C237.826 120.217 239.117 120.055 239.439 120.216C239.439 120.216 239.439 120.378 239.439 120.539C239.117 122.799 238.632 125.865 238.632 125.865L240.085 126.188C240.085 126.188 240.569 123.122 240.892 120.701C240.892 120.378 241.053 119.571 240.408 119.087C239.601 118.603 238.471 118.764 236.212 119.248Z" fill="#8FB0F1"/>
<path d="M226.689 133.935L221.686 134.096C222.009 133.451 222.493 132.321 223.139 130.868C224.43 127.479 224.753 124.574 224.753 124.574L223.3 124.413C223.3 124.413 222.977 127.156 221.848 130.384C220.718 133.451 219.911 134.58 219.911 134.58C219.749 134.742 219.749 135.064 219.911 135.387C220.072 135.71 220.234 135.871 220.556 135.871L226.367 135.71L224.43 142.166L225.882 142.65L230.24 128.286L228.787 127.802L226.689 133.935Z" fill="#8FB0F1"/>
<path d="M301.898 115.213C301.252 114.729 300.284 115.052 298.186 115.698C295.765 116.343 292.214 117.473 288.341 117.311C281.562 116.989 261.389 117.311 261.227 117.311C260.904 117.311 260.582 117.634 260.42 117.957C260.42 118.118 255.256 140.39 253.319 144.425C253.319 144.587 253.158 144.587 253.158 144.587C252.351 143.78 250.898 139.099 249.93 134.096L248.477 134.419C249.284 138.777 251.059 146.039 253.158 146.201H253.319C253.803 146.201 254.287 146.039 254.771 145.071C256.708 141.197 261.066 122.476 261.873 118.925C265.262 118.925 282.208 118.764 288.341 118.925C292.376 119.087 296.088 117.957 298.67 117.15C299.477 116.827 300.607 116.666 301.091 116.504C301.414 117.957 302.059 120.378 302.059 120.539L303.512 120.216C303.512 120.216 302.705 117.15 302.543 115.859C302.221 115.536 302.059 115.213 301.898 115.213Z" fill="#8FB0F1"/>
<path d="M311.097 119.732H312.711C312.711 119.571 313.034 114.245 311.904 110.694C311.582 109.726 311.097 109.564 310.775 109.564C310.452 109.564 309.645 109.564 308.031 113.438L308.192 111.824L306.74 111.663L305.933 119.894C305.933 120.216 306.094 120.701 306.578 120.701H306.74C307.063 120.701 307.385 120.539 307.547 120.216C308.515 116.827 309.968 112.954 310.775 111.663C311.259 114.89 311.097 119.732 311.097 119.732Z" fill="#8FB0F1"/>
<path d="M289.309 127.641C289.309 127.641 289.148 127.641 289.148 127.802C288.987 127.318 289.148 126.188 289.148 125.381C289.148 124.413 289.309 123.283 289.148 122.315C288.987 121.346 288.502 121.185 288.341 121.185C288.018 121.023 287.05 120.862 284.306 124.574L285.113 121.508L283.661 121.023L281.563 128.447C281.401 128.77 281.724 129.254 282.047 129.416C282.208 129.416 282.208 129.416 282.37 129.416C282.692 129.416 282.854 129.254 283.015 129.093C284.629 126.511 286.727 123.767 287.695 122.799C287.695 123.444 287.695 124.251 287.695 125.058C287.534 126.995 287.534 128.447 288.341 129.093C288.825 129.416 289.471 129.254 290.116 128.77L293.99 126.188L293.183 124.897L289.309 127.641Z" fill="#8FB0F1"/>
<path d="M265.296 126.355L263.486 139.464L265.084 139.685L266.895 126.575L265.296 126.355Z" fill="#8FB0F1"/>
<path d="M275.914 130.545C275.107 130.061 273.977 130.061 272.847 130.384C273.332 129.416 273.977 128.286 274.138 126.833C274.138 126.349 274.461 125.058 273.493 124.735C272.686 124.412 271.556 125.058 269.942 126.833L271.072 127.802C271.556 127.156 272.202 126.672 272.525 126.349C272.525 126.349 272.525 126.511 272.525 126.672C272.04 129.738 269.942 131.514 269.942 131.514C269.62 131.836 269.619 132.159 269.781 132.482C269.942 132.805 270.426 132.966 270.749 132.805C272.04 132.159 274.138 131.352 274.784 131.836C274.945 131.998 274.945 132.482 274.945 132.805C274.623 135.226 272.202 137.969 270.588 138.131C270.426 138.131 269.781 138.131 269.458 137.001L268.328 137.485C268.974 139.422 270.104 139.583 270.911 139.583H271.072C273.493 139.422 276.398 136.033 276.721 132.966C276.882 131.675 276.398 130.868 275.914 130.545Z" fill="#8FB0F1"/>
<path d="M249.284 127.318C250.575 124.736 252.028 121.992 252.996 120.701C252.996 121.508 252.996 122.315 252.996 123.122C252.835 126.511 252.835 127.963 253.803 128.286C253.965 128.286 253.965 128.286 254.126 128.286C254.449 128.286 254.933 127.963 255.256 127.479L254.449 126.834C254.287 126.349 254.287 124.413 254.449 122.96C254.449 121.669 254.61 120.378 254.449 119.41C254.287 118.441 253.803 118.28 253.642 118.28C253.158 118.119 252.351 117.957 249.446 123.444V119.732H247.832V126.672C247.832 126.995 248.155 127.318 248.477 127.479C248.8 127.802 249.123 127.641 249.284 127.318Z" fill="#8FB0F1"/>
<path d="M321.749 109.403C321.426 109.403 321.265 109.726 321.104 110.049L315.294 133.773L310.775 123.928L309.322 124.574L314.648 136.356C314.809 136.678 314.971 136.84 315.294 136.84C315.616 136.84 315.939 136.517 315.939 136.194L322.233 110.856C325.461 110.371 344.344 107.466 353.543 107.951V106.337C343.698 105.691 322.556 109.242 321.749 109.403Z" fill="#8FB0F1"/>
<path d="M333.916 90.261L333.396 102.354L335.008 102.424L335.528 90.3303L333.916 90.261Z" fill="#8FB0F1"/>
<path d="M338.795 91.4898L336.5 102.222L338.078 102.559L340.373 91.8273L338.795 91.4898Z" fill="#8FB0F1"/>
<path d="M329.52 118.97L327.212 134.128L328.808 134.371L331.115 119.213L329.52 118.97Z" fill="#8FB0F1"/>
<path d="M340.632 122.637C339.825 122.153 338.534 122.476 337.243 122.96C337.727 121.992 338.05 120.862 338.211 119.732C338.211 119.248 338.373 117.796 337.243 117.312C335.952 116.827 334.176 118.764 333.208 119.894L334.338 120.862C335.145 119.894 336.113 118.925 336.597 118.764C336.597 118.925 336.597 119.087 336.597 119.571C336.436 122.476 334.176 124.574 333.208 125.381C333.047 125.543 332.885 125.704 332.724 125.704C332.401 126.027 332.401 126.35 332.563 126.834C332.724 127.156 333.208 127.318 333.692 126.995C333.692 126.995 333.854 126.834 334.176 126.511C336.436 124.897 339.018 123.606 339.825 123.929C340.148 124.09 340.148 124.574 340.148 124.897C339.987 128.125 337.404 131.353 335.952 131.514C335.79 131.514 335.306 131.514 334.983 130.546L333.531 130.868C334.015 132.805 335.145 133.128 335.79 133.128H335.952C338.534 132.967 341.439 128.77 341.6 125.058C341.923 123.444 341.278 122.799 340.632 122.637Z" fill="#8FB0F1"/>
<path d="M348.379 118.28C348.379 117.795 348.379 117.311 348.54 116.827C348.702 115.536 348.863 114.083 348.379 113.115C348.217 112.631 347.733 112.308 347.249 112.147C346.281 111.985 344.99 113.115 343.86 114.406L344.344 112.631L342.891 112.308L341.6 117.473C341.439 117.795 341.762 118.28 342.084 118.28C342.407 118.441 342.891 118.28 343.053 117.957C344.505 115.859 346.442 113.922 347.088 113.599C347.249 114.245 347.088 115.375 347.088 116.343C346.926 117.957 346.765 119.087 347.733 119.571C347.895 119.732 348.056 119.732 348.217 119.732C348.863 119.732 349.347 119.248 349.509 119.087L348.379 118.28Z" fill="#8FB0F1"/>
<path d="M239.117 134.258C238.632 134.258 238.148 134.742 238.148 135.226C238.148 135.71 238.632 136.194 239.117 136.194C239.601 136.194 240.085 135.71 240.085 135.226C240.085 134.742 239.601 134.258 239.117 134.258Z" fill="#8FB0F1"/>
</svg>
