<svg width="503" height="390" fill="none" xmlns="http://www.w3.org/2000/svg"><path d="M61.065 306.914h17.386c-6.192-7.415-10.145-18.676-10.145-31.248v-9.24c0-26.799-14.92-48.505-33.331-48.505-18.873 0-34.172-22.264-34.172-49.728 0-27.465 15.3-49.729 34.172-49.729h5.599c18.411 0 33.332-21.727 33.332-48.504 0-22.35 12.45-40.489 27.814-40.489H319.1c17.094 0 30.96 20.18 30.96 45.044 0 17.021-6.472 31.828-16.04 39.479h38.173c15.925 0 28.836 17.385 28.836 38.833 0 25.702 15.464 46.527 34.55 46.527h5.797c19.564.021 35.423 21.361 35.423 47.709 0 26.347-15.859 47.708-35.423 47.708-19.086 0-34.55 20.825-34.55 46.527v8.876c0 21.447-12.911 38.833-28.836 38.833H243.824a24.276 24.276 0 01-3.079.194H61.049c-17.407 0-31.52-18.418-31.52-41.133.016-22.737 14.13-41.154 31.536-41.154z" fill="#EAEEFE"/><path d="M382.645 257.55c1.139 0 2.085 1.311 2.085 2.944 0 1.634-.924 2.966-2.063 2.966-1.139 0-2.085-1.311-2.085-2.944 0-1.634.924-2.966 2.063-2.966zm.022.838c-.624 0-1.118.301-1.118.688 0 .387.494.688 1.118.688.623 0 1.117-.301 1.117-.688-.021-.387-.516-.688-1.117-.688zm0 3.954c.859 0 1.568-.472 1.568-1.053 0-.58-.709-1.053-1.568-1.053-.86 0-1.569.473-1.569 1.053 0 .602.709 1.075 1.569 1.053z" fill="#466EB6"/><path d="M387.373 264.083c.43.946.666 1.956.666 2.987l.043 21.641c0 1.311-1.074 2.364-2.385 2.364l-12.379.022c-1.311 0-2.385-1.053-2.385-2.364l-.043-21.641c0-1.032.215-2.063.645-3.009h15.838z" fill="#7F1CA0"/><path d="M387.373 264.083c.43.946.666 1.956.666 2.987l.043 21.641c0 1.311-1.074 2.364-2.385 2.364l-12.379.022c-1.311 0-2.385-1.053-2.385-2.364l-.043-21.641c0-1.032.215-2.063.645-3.009h15.838z" fill="#7F1CA0"/><path d="M370.868 267.113l.043 21.641c0 1.311 1.075 2.364 2.407 2.364l12.379-.021a2.376 2.376 0 002.385-2.364l-.043-21.641a7.127 7.127 0 00-.666-2.987l-15.838.043a6.958 6.958 0 00-.667 2.965z" fill="#8095DD"/><path d="M384.794 288.711l-.043-21.641a7.13 7.13 0 00-.666-2.987h3.288c.43.946.666 1.956.666 2.987l.043 21.641c0 1.311-1.074 2.364-2.385 2.364h-3.288a2.335 2.335 0 002.385-2.364z" fill="#98ADF8"/><path d="M370.868 267.113l.043 21.641c0 1.311 1.075 2.364 2.407 2.364l5.051-.021c-1.333 0-2.429-1.053-2.429-2.364l-.043-21.641a6.82 6.82 0 01.666-2.987l-5.028.021a7.131 7.131 0 00-.667 2.987z" fill="#687DC5"/><path d="M371.535 264.105l15.838-.043c0-.688-.58-1.247-1.268-1.247l-13.302.043c-.71 0-1.268.559-1.268 1.247z" fill="#13375B"/><path d="M388.062 284.439l.007 2.687-17.15.042-.006-2.686 17.149-.043z" fill="#355389"/><path d="M402.954 257.12h-1.891c.3-.215.687-.344 1.117-.344h47.387c2.471 0 4.491 1.784 4.491 3.976v2.536c0 2.192-2.02 3.976-4.491 3.976l-46.871-.022.258-10.122z" fill="#86B1F2"/><path d="M429.86 256.776c2.364 0 4.298 1.698 4.298 3.804v2.858c0 2.106-1.913 3.804-4.298 3.804h-29.507v-.644h.129l7.5-.624 1.526-5.265s-2.923-2.923-3.116-2.987c-.193-.065-5.91-.301-5.91-.301h-.129v-.645h29.507z" fill="#466EB6"/><path d="M402.266 261.999c0-3.074-1.805-4.578-1.805-4.578h28.797c2.171 0 3.954 1.569 3.954 3.503v2.192c0 1.934-1.762 3.503-3.954 3.503h-28.776c-.021 0 1.784-.731 1.784-4.62z" fill="#FAE0B2"/><path d="M433.191 260.924v2.192c0 .279-.043.58-.108.838-.967-2.106-2.837-4.126-6.382-4.792-8.274-1.526-26.24-1.741-26.24-1.741h28.797c2.17 0 3.933 1.569 3.933 3.503z" fill="#DAEEF7"/><path d="M403.727 278.073h-2.149a2.15 2.15 0 011.268-.429h53.662c2.815 0 5.072 2.235 5.072 4.985v3.16c0 2.75-2.278 4.985-5.072 4.985l-53.039-.021.258-12.68z" fill="#50BFA5"/><path d="M434.179 277.665c2.687 0 4.857 2.128 4.857 4.771v3.567c0 2.622-2.17 4.771-4.857 4.771h-33.396v-.795h.151l8.488-.795 1.719-6.598s-3.309-3.653-3.524-3.739c-.215-.086-6.683-.387-6.683-.387h-.129v-.795h33.374z" fill="#3C8F7C"/><path d="M402.954 284.198c0-3.868-2.042-5.738-2.042-5.738h32.601c2.471 0 4.47 1.956 4.47 4.384v2.751c0 2.407-1.999 4.384-4.47 4.384h-32.58c-.021-.021 2.021-.924 2.021-5.781z" fill="#FAE0B2"/><path d="M437.962 282.844v2.751c0 .365-.043.709-.129 1.053-1.096-2.643-3.202-5.179-7.221-5.996-9.37-1.912-29.7-2.192-29.7-2.192h32.601c2.45 0 4.449 1.956 4.449 4.384z" fill="#DAEEF7"/><path d="M463.342 267.565h2.149a2.427 2.427 0 00-1.268-.344h-53.662c-2.815 0-5.093 1.762-5.093 3.954v2.514c0 2.193 2.278 3.955 5.093 3.955l53.06-.022-.279-10.057z" fill="#8095DD"/><path d="M432.89 267.242c-2.686 0-4.857 1.698-4.857 3.783v2.836c0 2.085 2.171 3.783 4.857 3.783h33.396v-.645h-.129l-8.489-.623-1.719-5.244s3.31-2.901 3.525-2.966c.215-.064 6.683-.3 6.683-.3h.129v-.624H432.89z" fill="#3965BB"/><path d="M464.116 272.422c0-3.052 2.041-4.556 2.041-4.556h-32.601c-2.471 0-4.47 1.547-4.47 3.481v2.192c0 1.913 1.999 3.482 4.47 3.482h32.601c0-.022-2.041-.753-2.041-4.599z" fill="#FAE0B2"/><path d="M429.108 271.347v2.192c0 .279.043.559.129.838 1.096-2.084 3.202-4.104 7.22-4.749 9.37-1.505 29.722-1.741 29.722-1.741h-32.601c-2.472 0-4.47 1.547-4.47 3.46z" fill="#DAEEF7"/><path d="M277.677 273.14l5.025-.952 21.849 115.285-5.026.952-21.848-115.285zM132.586 388.986h-6.038l22.543-116.801 5.029.967-21.534 115.834zm110.805 0h-6.039l22.544-116.801 5.029.967-21.534 115.834zm-55.66 0l4.921.064-21.619-116.328-5.029.946 21.727 115.318z" fill="#184655"/><path d="M209.694 114.896c-19.922 2.128-45.71 4.384-71.585 48.311-28.281 48.009-13.388 119.723 8.94 139.645 22.329 19.922 95.246 44.528 156.559 7.693 0 0 37.006-22.328 18.009-59.378-29.227-57.014-25.101-68.898-38.167-91.248-13.067-22.35-31.463-49.557-73.756-45.023z" fill="#FFE9E9"/><path d="M138.088 163.207c17.665-29.98 35.287-40.553 51.018-44.915-6.082 6.296-12.271 14.398-18.439 24.885-28.281 48.01-13.388 119.724 8.94 139.646 19.793 17.665 79.386 39.026 135.391 17.923-5.76 6.361-11.412 9.778-11.412 9.778-61.312 36.835-134.229 12.228-156.558-7.694-22.329-19.9-37.222-91.614-8.94-139.623z" fill="#D6CECE"/><path d="M179.113.266c20.631-.13 37.394 10.057 37.48 22.715.043 6.34-4.105 12.1-10.832 16.29l8.489 18.632-17.708-14.42c-5.136 1.677-10.96 2.622-17.149 2.665-20.631.129-37.394-10.058-37.48-22.715-.086-12.68 16.569-23.038 37.2-23.167z" fill="#98ADF8"/><path d="M391.955 180.12l-56.928-.43c-1.29 0-2.343-1.075-2.343-2.364l.279-38.06c0-1.289 1.075-2.342 2.364-2.342l56.929.43c1.289 0 2.342 1.074 2.342 2.364l-.279 38.059c0 1.311-1.053 2.343-2.364 2.343z" fill="#3965BB"/><path d="M334.726 158.092l-18.396 18.74 22.694-4.234-4.298-14.506z" fill="#3965BB"/><path d="M273.65 187.878l5.136 15.365-15.624-6.146 10.488-9.219z" fill="#F79C8D"/><path d="M257.575 142.146c1.031.043 3.89.989 8.059 8.854 5.329 10.036 13.109 40.316 13.109 40.316l-23.231 8.618-2.987-6.318-4.922-48.676s9.671-2.794 9.972-2.794z" fill="#8299ED"/><path d="M226.865 137.783c6.64 0 23.081 1.935 30.71 4.363 0 0 5.609 47.988-5.05 84.479-2.386 8.167 1.977 33.848 1.977 33.848l-68.834-.903s8.144-62.086 5.071-72.101c-3.073-10.036-3.137-44.979-3.137-44.979s.473-.065 15.473-2.665c6.984-1.203 16.698-2.042 23.79-2.042z" fill="#98ADF8"/><path d="M218.849 349.551s1.526 17.515 4.32 22.371c2.793 4.857-.151 13.088-.301 14.227-.151 1.139-5.889 2.751-15.022 1.784-9.134-.967-8.983-3.073-8.253-6.469.731-3.395 5.61-7.758 5.889-11.003.301-3.224-2.794-14.871-2.794-14.871l16.161-6.039z" fill="#fff"/><path d="M246.722 246.01s47.516-2.622 58.11 3.782c10.617 6.404-1.912 19.556-1.912 19.556s-38.683 16.763-103.434 20.481c-15.344.881-16.655-39.844-13.797-43.218 2.88-3.374 61.033-.601 61.033-.601z" fill="#656565"/><path d="M206.707 389.287c-9.413-.989-8.252-5.609-7.479-9.091.473-2.192 3.181-4.77 4.793-7.22.838.666 2.213 1.848 6.296 3.051 4.234 1.247 10.058-1.225 13.754-2.772 1.311 4.9 1.376 11.154 1.268 12.099-.172 1.161-9.219 4.921-18.632 3.933z" fill="#263238"/><path d="M211.886 279.879l11.304 85.575-21.813 2.686s-26.82-93.011-25.444-107.237c1.375-14.227 11.411-15.431 11.411-15.431s19.535-3.481 24.542 34.407z" fill="#707070"/><path d="M232.775 77.223s-7.243-7.629-13.066 1.655c0 0-4.492-2.514-7.63 1.977 0 0-8.101-2.45-10.079 9.692 0 0-4.169-.795-4.728 4.17-.558 4.964 1.978 8.273 1.978 8.273s-2.343 1.763-1.29 6.319c.903 3.868 4.105 4.47 4.105 4.47s.859 6.533 3.696 8.51c2.837 1.977 6.684 1.031 6.684 1.031s1.031 3.546 4.341 3.224c3.309-.322 7.393-3.46 11.11-2.042 3.697 1.419 13.303-.086 13.303-.086s10.788-4.813 7.565-15.838c0 0 5.673-5.115.709-11.261 0 0 3.632-9.606-3.546-15.28-7.156-5.673-13.152-4.814-13.152-4.814z" fill="#263238"/><path d="M231.571 129.101l1.311 9.735s2.945 14.012-.838 16.72c-3.782 2.708-16.075-17.128-16.075-17.128l1.29-24.649 14.312 15.322z" fill="#fff"/><path d="M216.829 121.752c3.116 8.402 10.552 13.582 15.838 15.58l-1.117-8.252-14.313-15.323-.408 7.995z" fill="#C4C4C4"/><path d="M225.984 87.861c7.672-2.643 15.838 2.45 17.02 10.358a97.055 97.055 0 011.053 12.487c.215 11.368-5.673 22.414-10.831 22.414-5.158 0-19.427-7.35-19.943-23.489-.322-9.95 4.663-18.998 12.701-21.77z" fill="#fff"/><path d="M217.087 110.92c0 2.515-1.655 4.535-3.718 4.535-2.063 0-3.718-2.042-3.718-4.535 0-2.514 1.655-4.534 3.718-4.534 2.063 0 3.718 2.02 3.718 4.534z" fill="#fff"/><path d="M248.355 82.209c5.33 4.212 7.2 10.638 4.17 14.334-3.031 3.696-9.8 3.267-15.13-.967-5.329-4.212-7.199-10.638-4.169-14.334 3.009-3.675 9.8-3.245 15.129.967z" fill="#263238"/><path d="M186.85 147.82c6.425-2.407 9.584 55.381 10.444 79.17 11.39 1.096 31.269 0 36.212-.365 2.32-.172 7.693-2.127 9.993-2.428 2.364-.301 4.513-.473 5.695-.258.429.064 12.314 4.921 13.324 5.974 1.268 1.311 4.663 4.642 4.083 6.082-.58 1.44-6.555-3.997-6.555-3.997l-2.922-1.634c3.631 3.546 10.573 8.21 9.563 9.908-.967 1.654-7.221-3.074-11.691-6.297 3.825 3.438 8.575 9.606 7.479 10.573-.989.86-6.383-6.275-12.164-8.317-2.149-.752-4.277 1.354-5.953 1.612-1.246.194-3.137.58-4.362.237l-6.254-1.763c-2.128.194-2.192 1.44-4.341 1.913-2.493.537-6.598 1.096-9.778 1.87-18.31 4.47-24.435 6.533-30.044 6.533-16.956-.108-17.923-93.14-2.729-98.813z" fill="#fff"/><path d="M174.643 202.062c-1.203-24.371-1.031-54.393 12.68-59.508 5.415-2.02 14.935 10.144 13.216 60.002-7.307.602-18.052 1.096-25.896-.494z" fill="#98ADF8"/><path d="M251.3 191.596h-1.397l-20.997 51.426 1.462-.214 20.932-51.212z" fill="#F79C8D"/><path d="M282.611 364.53s-1.912 6.082 1.505 10.1c3.417 4.019 17.557 7.973 19.427 10.144 1.848 2.17 1.719 4.04 1.719 4.04l-39.736-1.096.43-11.97 1.827-8.596 14.828-2.622z" fill="#fff"/><path d="M286.587 376.65s-10.208 4.126-15.151 1.677c-4.921-2.429-4.792-3.117-6.211-2.214-1.418.903-1.934 12.121-1.934 12.121l44.679 1.311c3.116-.065 4.685-2.364 2.149-4.299-1.741-1.332-3.739-2.235-4.878-2.879-3.482-2.02-18.654-5.717-18.654-5.717z" fill="#263238"/><path d="M281.107 257.228c3.073-6.448 10.058-14.829 22.35-9.779 11.712 4.814 14.872 16.656 11.175 28.776-3.696 12.121-28.045 83.383-28.883 93.183l-19.449.129s3.524-56.434 4.406-70.081c.816-13.087 5.093-31.075 10.401-42.228z" fill="#707070"/><path d="M312.655 191.596h-64.988a4.21 4.21 0 00-3.911 2.622l-20.007 48.804h-35.825c-1.01 0-1.805.817-1.805 1.806 0 1.01.816 1.805 1.805 1.805h101.951a7.122 7.122 0 006.49-4.212l20.137-44.872c1.289-2.794-.774-5.953-3.847-5.953z" fill="#3965BB"/><path d="M277.669 220.006c-.43 2.192-2.343 3.653-4.277 3.267-1.913-.387-3.116-2.472-2.686-4.664.43-2.192 2.342-3.653 4.276-3.266 1.934.386 3.138 2.471 2.687 4.663z" fill="#fff"/><path opacity=".3" d="M142.656 122.568c-17.72 0-32.085-14.394-32.085-32.15 0-17.755 14.365-32.15 32.085-32.15s32.085 14.395 32.085 32.15c0 17.756-14.365 32.15-32.085 32.15z" fill="#9BC1F9"/><path d="M165.35 89.774h11.819v.903H165.35v-.903zm-57.251 0h11.82v.903h-11.82v-.903zm34.17-33.697h.902v11.862h-.902V56.077zm0 57.143h.902v11.863h-.902V113.22zm-.58-22.801c0 .537.429.988.988.988.538 0 .989-.43.989-.988a.986.986 0 00-.989-.989.985.985 0 00-.988.989z" fill="#184655"/><path d="M142.656 90.848a.425.425 0 00.301-.129l17.6-17.622a.44.44 0 00-.623-.623l-17.601 17.622a.44.44 0 000 .623.518.518 0 00.323.13z" fill="#184655"/><path d="M137.004 108.234a.341.341 0 00.15-.193l5.695-17.214c.065-.172-.043-.344-.193-.408-.172-.065-.344.043-.408.193l-5.695 17.214c-.065.172.043.344.193.408.107.043.193.043.258 0z" fill="#184655"/><path d="M91.53 162.927l-2.858-4.642 2.3-.924a.98.98 0 00.537-1.289.981.981 0 00-1.29-.537l-2.643 1.074-2.558-4.169 2.45-.989a.98.98 0 00.538-1.289.981.981 0 00-1.29-.537l-2.815 1.139-2.966-4.793a.96.96 0 00-1.203-.386l-.43.171c-.559.237-.795.903-.473 1.419l2.772 4.513-4.083 1.655-2.966-4.793a.962.962 0 00-1.203-.387l-.473.194c-.559.236-.795.902-.473 1.418l2.773 4.513-2.3.924a.982.982 0 00-.537 1.29.981.981 0 001.29.537l2.643-1.075 2.514 4.191-2.45.989a.98.98 0 00-.537 1.289.981.981 0 001.29.537l2.815-1.139 3.03 4.943a.962.962 0 001.203.387l.495-.193c.558-.237.795-.903.472-1.419l-2.858-4.642 4.083-1.655 3.03 4.943a.961.961 0 001.204.387l.494-.193c.559-.258.795-.924.473-1.462zm-10.38-3.718l-2.557-4.169 4.083-1.654 2.557 4.169-4.083 1.654z" fill="#07345A"/><path d="M130.643 36.391l-2.192-4.964 2.836-4.62c.323-.516-.107-1.204-.709-1.14l-5.394.56-3.524-4.127a.739.739 0 00-1.29.323l-1.139 5.308-5.007 2.063a.74.74 0 00-.086 1.332l4.685 2.73.408 5.415c.043.623.774.903 1.247.494l4.04-3.61 5.265 1.268a.74.74 0 00.86-1.032z" fill="#3965BB"/><path d="M107.659 259.135l.344-4.105 3.589-2.041c.408-.237.365-.838-.064-1.01l-3.804-1.591-.838-4.04c-.086-.451-.666-.601-.989-.258l-2.686 3.116-4.105-.451a.56.56 0 00-.537.86l2.127 3.524-1.697 3.761c-.194.43.193.881.644.795l4.019-.945 3.052 2.772a.574.574 0 00.945-.387z" fill="#98ADF8"/><path d="M351.484 290.753h134.509v6.941H351.484v-6.941zm44.142 40.295h87.939v6.081h-87.939v-6.081z" fill="#263238"/><path d="M364.701 294.234h5.673v94.752h-5.673v-94.752zm80.224 0h5.673v94.752h-5.673v-94.752zm-34.213 94.73l-30.56-93.913 5.008-1.633 31.096 95.546h-5.544zm85.983 0l-26.154-94.128 5.094-1.397 26.519 95.525h-5.459zM142.656 52.874c20.695 0 37.479 16.806 37.479 37.544 0 20.739-16.784 37.544-37.479 37.544-20.696 0-37.48-16.805-37.48-37.544.022-20.738 16.784-37.544 37.48-37.544zm-1.999 69.63c17.687 1.117 32.924-12.357 34.041-30.066 1.118-17.73-12.335-32.987-30.022-34.105-17.687-1.117-32.923 12.357-34.041 30.065-1.096 17.73 12.336 32.988 30.022 34.106z" fill="#263238"/><path d="M232.79 108.443l1.439 10.413-4.083.342m2.282 3.704s-4.918 1.415-8.249-3.563" stroke="#263238" stroke-miterlimit="10" stroke-linecap="round" stroke-linejoin="round"/><path d="M241.169 104.839s-5.189-.352-6.792.177m-7.249-1.409s-3.331-2.012-6.416.484" stroke="#263238" stroke-width="2" stroke-miterlimit="10" stroke-linecap="round" stroke-linejoin="round"/><path d="M236.972 109.31c-.049.879.286 1.696.796 1.737.51.041.968-.672 1.088-1.536.049-.879-.286-1.696-.796-1.737-.51-.04-.952.602-1.088 1.536zm-12.327.711c-.05.879.286 1.697.796 1.738.51.04.967-.673 1.087-1.536.05-.879-.285-1.697-.796-1.737-.564-.128-1.022.586-1.087 1.535z" fill="#263238"/><path d="M377.337 160.936c.148-.788.197-1.576.197-2.414a13.876 13.876 0 00-13.893-13.893c-.837 0-1.626.049-2.414.197a8.307 8.307 0 00-4.089-1.084 8.263 8.263 0 00-8.277 8.277c0 1.478.394 2.907 1.084 4.089-.148.788-.197 1.576-.197 2.414a13.877 13.877 0 0013.893 13.893c.838 0 1.626-.049 2.414-.197a8.307 8.307 0 004.089 1.084 8.263 8.263 0 008.277-8.277 8.307 8.307 0 00-1.084-4.089zm-7.193 10.248c-1.084 0-2.118-.296-3.054-.789l-.641-.394-.739.148c-.64.099-1.33.197-2.069.197-6.503 0-11.775-5.272-11.775-11.775 0-.689.05-1.379.197-2.069l.148-.739-.443-.69c-.542-.936-.788-1.97-.788-3.054a6.16 6.16 0 016.158-6.159c1.084 0 2.118.296 3.054.789l.641.394.739-.148c.69-.099 1.379-.197 2.069-.197 6.503 0 11.775 5.272 11.775 11.775 0 .689-.049 1.379-.197 2.069l-.148.739.394.64c.542.936.788 1.971.788 3.055a6.098 6.098 0 01-6.109 6.208z" fill="#fff"/><path d="M366.154 157.192l-3.104-.69c-1.182-.296-2.513-.64-2.513-1.774 0-1.133.936-1.921 2.661-1.921 3.498 0 3.202 2.414 4.926 2.414.887 0 1.675-.493 1.675-1.429 0-2.167-3.448-3.793-6.404-3.793-3.153 0-6.503 1.281-6.503 4.926 0 1.725.591 3.597 3.99 4.484l4.237 1.084c1.281.295 1.675 1.034 1.675 1.675 0 1.084-1.133 2.266-3.054 2.266-3.794 0-3.252-3.005-5.272-3.005-.887 0-1.626.64-1.626 1.527 0 1.774 2.168 4.188 6.898 4.188 4.532 0 6.798-2.267 6.798-5.223-.049-1.97-.936-3.941-4.384-4.729zM153.786 18.652a107 107 0 012.544.031 23.4 23.4 0 012.405.14l-.125 1.718h-3.903c-.573 0-.859.265-.859.796v1.874h4.184v1.686h-4.184v4.574h-2.373v-8.618c0-.676.213-1.212.64-1.608.427-.395.984-.593 1.671-.593zm9.081.047V29.47h-2.373V18.7h2.373zm9.945 8.993v1.78h-7.947v-1.78l5.184-7.23h-5.059V18.7h7.697v1.764l-5.199 7.229h5.324zm13.02-8.993c.562 0 .854.291.875.874l.405 9.898h-2.201l-.359-8.946h-.281l-1.733 6.73c-.104.499-.416.749-.937.749h-1.499c-.53 0-.848-.25-.952-.75l-1.749-6.729h-.265l-.328 8.946h-2.201l.39-9.898c.021-.583.318-.874.89-.874h2.233c.51 0 .822.25.936.75l1.39 5.432c.062.25.114.505.156.765.042.25.088.505.141.765h.202c.053-.26.099-.515.141-.765.042-.26.094-.52.156-.78l1.374-5.418c.104-.5.422-.75.952-.75h2.264zm8.697 0c.198 0 .37.057.516.171.156.115.26.266.312.453l3.122 10.148h-2.435l-.796-2.857h-3.716l-.781 2.857h-2.435l3.122-10.148a.846.846 0 01.297-.453.875.875 0 01.531-.171h2.263zm-1.576 2.841l-.922 3.294h2.717l-.906-3.294a7.678 7.678 0 01-.14-.515 20.998 20.998 0 00-.094-.53h-.421a14.943 14.943 0 01-.234 1.045zm14.078-2.841v1.873h-3.248v8.9h-2.373v-8.9h-3.247V18.7h8.868z" fill="#fff"/></svg>