<svg width="46" height="51" fill="none" xmlns="http://www.w3.org/2000/svg"><path fill-rule="evenodd" clip-rule="evenodd" d="M24.408 6.79c5.37-.057 10.121 3.402 13.16 7.83 2.78 4.05 2.541 9.049 1.753 13.898-.884 5.442-1.399 11.952-6.348 14.383-4.967 2.44-10.419-1.188-15.333-3.734-4.65-2.409-9.851-4.889-11.117-9.97-1.286-5.164 1.753-10.142 5.072-14.3 3.317-4.156 7.496-8.05 12.813-8.106z" fill="#3965BB"/><path clip-rule="evenodd" d="M24.782 1.768c6.83-.073 12.875 4.326 16.741 9.958 3.537 5.153 3.233 11.512 2.23 17.681-1.124 6.923-1.78 15.205-8.075 18.297-6.32 3.104-13.254-1.51-19.506-4.75C10.257 39.89 3.64 36.734 2.03 30.27c-1.636-6.568 2.23-12.9 6.453-18.19 4.22-5.287 9.535-10.24 16.299-10.312z" stroke="#3965BB" stroke-width="3" stroke-dasharray="10 10"/></svg>