<svg width="354" height="149" fill="none" xmlns="http://www.w3.org/2000/svg"><path d="M26.08 29.675h-1.614v7.747h1.613v-7.746zm0 74.725h-1.614v13.395h1.613V104.4zm0 26.63h-1.614v7.747h1.613v-7.747zm74.562-101.355h-1.614v7.747h1.614v-7.746zm0 21.143h-1.614v13.395h1.614V50.818zm0 53.582h-1.614v13.395h1.614V104.4zm0 26.63h-1.614v7.747h1.614v-7.747zM191.345.948h-1.614v7.747h1.614V.948zm0 102.968h-1.614v13.557h1.614v-13.557zm0-54.389h-1.614v13.557h1.614V49.527zm0 81.503h-1.614v7.747h1.614v-7.747z" fill="#8FB0F1"/><path d="M215.069 80.353h6.294v-1.614h-6.455v-8.393c0-14.686-2.098-32.6-8.07-39.218-2.098-2.26-4.842-4.196-8.069-5.326h6.132v-1.614h-13.879V22.09h-1.614v2.098h-11.459v1.614h6.133c-1.453.484-2.744 1.291-4.035 2.26-8.715 6.133-15.494 19.85-18.237 37.604-.807 5.003-1.937 9.36-3.551 13.234h-35.667c-1.292-3.712-2.26-7.263-2.744-9.36-2.098-9.846-7.747-20.013-15.655-22.757 5.326-.161 9.199 0 10.006.484 0 0-.161-.161-.161-.323h1.614c0-.322-.162-.484-.323-.806-1.937-1.776-21.95-.485-28.082 0l.161 1.452 7.747-.484c-7.747 3.066-13.557 12.588-16.462 27.275-.323 1.614-.646 3.067-1.13 4.52H42.057c-2.098-7.425-4.358-15.494-6.294-18.077-1.291-1.775-3.228-3.066-5.326-3.873h13.557v-1.614H26.079v-4.519h-1.614v4.519h-13.88v1.614H22.53a11.34 11.34 0 00-4.358 3.066c-2.098 2.421-4.68 10.49-6.94 18.883H.418v1.614H11.07c-2.744 10.813-5.003 22.111-5.165 22.918l1.453.322c0-.161 2.42-11.943 5.326-23.24h11.943v10.49h1.614v-10.49h14.525c0 .161.161.484.161.646 1.453 5.003 2.583 9.36 3.39 11.136 1.29 2.905 3.712 5.648 6.94 7.1h-9.038v1.615h32.44v-1.614H60.132h.161c6.94-2.744 14.203-5.487 18.238-18.883h20.335v10.49h1.614v-10.49h20.981c2.744 6.94 7.101 14.525 13.88 16.462h-7.747v1.614h28.727v-1.614h-14.363c7.585-1.614 13.395-7.263 17.269-16.462h30.341v9.845h1.614v-9.845h22.272c.646 13.234 4.681 28.566 30.18 36.313l.485-1.452c-24.693-7.747-28.567-21.788-29.051-35.022zM26.079 78.9v-1.29h-1.614v1.29H13.007c2.098-8.07 4.519-15.655 6.455-17.914 1.453-1.614 3.067-2.583 5.003-3.067v6.294h1.614v-6.455h.807c3.067.161 5.81 1.614 7.586 4.035 1.775 2.42 4.034 10.167 5.971 17.268H26.08v-.16zM59.81 97.944c-9.038 3.551-13.395-4.68-14.202-6.294-.807-1.614-1.937-6.133-3.39-10.975v-.322h34.7C73.206 92.78 66.588 95.2 59.81 97.944zM100.481 78.9v-1.29h-1.614v1.29H79.016c.323-1.291.645-2.744.968-4.196 3.39-16.623 10.813-26.791 20.013-27.114 9.038-.323 15.978 10.975 18.398 22.11a87.143 87.143 0 002.583 9.039h-20.497v.161zm40.186 16.623c-8.715 1.453-14.202-7.1-17.43-15.17h34.377c-3.874 8.715-9.684 13.88-16.947 15.17zM191.183 78.9v-2.098h-1.614V78.9h-29.696c1.453-3.712 2.582-8.07 3.389-12.911 2.744-17.43 9.2-30.826 17.592-36.636 2.744-1.937 5.81-2.905 8.715-3.228v9.845h1.614v-9.845c5.649 0 11.136 2.582 14.525 6.294 5.649 6.295 7.747 24.37 7.747 38.089V78.9h-22.272z" fill="#8FB0F1"/><path d="M53.839 122.153c3.712-.807 4.68-4.035 4.68-4.196l-1.453-.484c0 .161-.645 2.421-3.55 3.066-.323.162-.484 0-.646-.161-.645-.968-.322-3.551.485-6.294 2.42-1.776 5.003-4.035 5.164-5.972.161-1.291.161-2.582-.807-2.905-.968-.323-1.937.646-3.873 4.035-.646 1.13-1.291 2.421-1.776 3.873-1.29.807-2.582 1.614-3.55 2.098l.645 1.292c.323-.162 1.13-.646 2.26-1.292-.484 2.421-.646 4.842.161 5.972.323.484.968.807 1.614.807.323.161.484.161.646.161zm1.29-12.104c.97-1.614 1.615-2.421 1.938-2.905v.968c0 .969-1.13 2.26-2.583 3.389.162-.645.323-1.129.646-1.452zm5.488 11.297c.162.162.323.323.807.323.162 0 .323 0 .484-.161 1.937-.807 3.55-3.228 3.712-3.39l-1.29-.806s-1.13 1.775-2.583 2.582c.161-.969.645-2.905 1.291-5.003l-1.452-.485c-2.099 5.972-1.292 6.779-.969 6.94zm6.456-7.101l-1.614 6.133c-.161.323.161.807.484.968h.323c.323 0 .645-.161.645-.484 1.453-3.228 3.551-6.294 4.197-6.294l.161.161c1.291 2.421.484 5.326.484 5.326-.161.323 0 .807.484.968.323.162.807 0 .969-.322 1.13-2.26 2.743-4.842 3.712-5.972 0 .807-.162 1.453-.162 2.098-.161 1.614-.322 2.905.484 3.551.323.323.969.484 1.615.484l-.162-1.453h-.323c-.161-.161-.161-1.452 0-2.259 0-.807.162-1.775.162-2.744 0-.807-.323-1.452-.807-1.452-.484-.162-1.291-.323-4.035 4.196-.162-.968-.323-1.775-.807-2.744-.484-.807-1.13-.968-1.453-.968-.806 0-1.775.968-2.743 2.098l.161-.646-1.775-.645zm-4.203-4.809l-.254 1.265 1.582.319.255-1.266-1.582-.318zm20.503 26.597c-.484 0-.484-.162-.645-.162-.484-.322-.484-1.775-.323-2.905 0-1.452 0-2.905-.646-3.873-.322-.484-.645-.646-1.13-.646-.968 0-2.097 1.292-3.227 2.744 0-.161-.162-.161-.323-.323-.323-.161-.807 0-.968.162-.969 1.291-3.874 4.68-5.81 4.034-1.776-.645-.969-4.68-.485-5.971.162-.323 0-.807-.484-.968-.322-.162-.807 0-.968.322-1.13 2.26-3.228 5.488-4.68 5.81h-.323c-.162-.322.161-1.775.323-2.743.16-.807.484-1.775.484-2.744 0-.323.161-1.291-.646-1.614-.484-.161-1.13-.484-4.196 4.358 0-.646.161-1.291.323-2.26.161-.807-.162-1.452-.646-1.614-.323-.161-.968-.322-3.066 1.937l.968-1.775-1.453-.646-3.389 7.424c-.161.323 0 .807.323.969.323.161.807.161.968-.162 1.614-2.259 3.551-4.68 4.68-5.648-.483 3.227-.483 4.841-.483 5.003a.89.89 0 00.484.807c.323.161.645 0 .807-.323 1.13-1.937 2.582-4.035 3.55-5.326-.161.645-.161 1.13-.322 1.614-.485 1.937-.807 3.389 0 4.196.322.323.968.484 1.614.323 1.29-.323 2.582-1.776 3.55-3.228 0 1.614.484 3.389 2.098 3.873 1.614.646 3.55-.484 5.003-1.775l-.484 1.453c-.161.322 0 .807.484.968.323.161.807 0 .969-.323 1.775-3.389 4.034-6.617 4.841-6.94.323.646.323 1.776.323 2.905 0 1.614 0 3.067.807 4.035.323.323.969.484 1.453.484h.323c3.227-.322 5.164-1.614 5.325-1.614l-.968-1.291c.323 0-1.291 1.13-4.035 1.453zm-11.62-11.62h-1.614v2.098h1.614v-2.098zm59.877-6.779c.322.646.807.969 1.452 1.13.646.161 1.291.161 1.775.161 2.26 0 2.906-1.291 2.906-1.452l-1.292-.646s-.645.969-2.905.323c-.322 0-.322-.161-.484-.323-.484-.807.162-2.905.969-4.842 2.098-1.613 4.196-3.712 4.196-5.325 0-1.776-.484-2.905-1.291-3.067-1.13-.161-1.776 1.291-2.26 2.744a44.78 44.78 0 00-.968 2.582c-.323.646-.646 1.453-.807 2.098-1.13.807-2.098 1.453-2.582 1.453v1.614c.322 0 .968-.162 1.613-.646-.645 1.775-.807 3.228-.322 4.196zm4.519-10.652c.161-.484.322-.968.484-1.129v.968c0 .484-.484 1.291-1.291 2.098.322-.646.484-1.291.807-1.937zm5.164 2.098c-.968.162-1.775.969-2.421 2.421-1.13 3.389.162 4.519.807 4.842.323.161.807.323 1.13.323.807 0 1.614-.323 2.259-1.13 1.453-1.614 1.937-3.873 1.937-3.873 0-.162 0-.484-.161-.646-.162 0-1.614-2.098-3.551-1.937zm.646 5.649c-.323.484-.969.646-1.453.484-.484-.322-.645-1.129-.161-3.066.161-.484.645-1.453 1.129-1.453h.162c.645 0 1.291.646 1.775 1.13-.161.646-.645 1.937-1.452 2.905zm9.038 1.453l.968-3.551 2.582 3.066 1.13-.968-3.066-3.712 4.841-2.582-.807-1.291-3.873 2.098 1.291-4.842-1.452-.484-1.776 6.294c-.161.161-.322.323-.322.484v.484l-1.292 4.681 1.776.323zm8.392 1.614c.624 0 1.13-.578 1.13-1.292 0-.713-.506-1.291-1.13-1.291-.624 0-1.13.578-1.13 1.291 0 .714.506 1.292 1.13 1.292zm-18.237 7.101c-1.614-.162-2.744 1.936-3.39 4.196-.161-.807-.484-1.614-.807-2.26-.322-.484-.968-.968-1.936-.484l-.162.162c0-.807-.161-1.453-.161-1.776l-1.453.323c.162.968.323 1.937.323 2.905-1.452 1.775-3.066 4.681-2.421 5.81.162.323.485.646 1.13.646.162 0 .323 0 .646-.162 1.936-.645 2.421-3.389 2.421-5.81.484-.484.807-.645.968-.807.968 1.614 1.13 4.842 1.13 5.811 0 .322.322.806.645.806s.807-.322.807-.645c.646-3.874 1.937-7.424 2.744-7.263.807.162 1.13 3.389.807 6.779l1.452.161c-.322-1.775 0-8.069-2.743-8.392zm-9.038 7.747c.161-.323.323-.969.645-1.614 0 .645-.322 1.291-.645 1.614zm15.977.322c-.161 0-.484 0-.968-.322-1.452-1.291.646-5.003 1.453-6.133l-1.292-.807c-.484.645-3.873 5.81-1.129 8.231.645.645 1.291.807 1.775.807h.484c1.937-.323 3.067-2.744 3.228-3.067l-1.453-.645c-.161.161-1.129 1.775-2.098 1.936zm1.382-11.811l-1.315 1.838 1.313.939 1.315-1.838-1.313-.939zm11.53 9.875c-.484 0-.645-1.453-.645-2.421-.162-1.453-.323-3.228-1.776-3.551-1.13-.161-2.259 1.13-3.228 2.744 0-.646.162-1.13.162-1.775 0-.323 0-1.614-.969-1.937-.807-.323-1.775.484-1.936.645l1.129 1.13.162-.161v.323c0 2.259-.969 6.455-.969 6.455-.161.323.162.807.485.969h.161c.323 0 .646-.162.646-.485 1.452-3.389 3.389-6.455 4.034-6.455.323 0 .485 1.614.485 2.098.161 1.614.322 3.55 2.098 3.712 2.421.323 3.712-1.291 3.712-1.291l-1.13-.969c0 .323-.807 1.292-2.421.969zm46.319-3.389c-.807 4.196-.968 5.81 0 6.294.162 0 .323.161.646.161.161 0 .323 0 .645-.161 2.26-1.13 3.551-3.228 3.712-3.389l-1.291-.807s-.968 1.614-2.582 2.582c0-.968.323-3.067.646-4.519.484-2.744.968-5.487.484-6.779-.162-.807-.807-.968-.969-.968-.322 0-1.452-.161-4.519 5.649l.485-4.842-1.453-.161-.807 9.038c0 .322.161.645.646.807.322.161.807-.162.968-.485 1.453-3.227 3.551-6.939 4.519-8.069-.484 1.291-.807 3.712-1.13 5.649z" fill="#8FB0F1"/><path d="M236.212 119.248c-1.292.323-3.067.646-5.165.807-5.003.646-8.231-.968-10.329-1.937a11.19 11.19 0 00-1.614-.645c-.646-.162-1.291 0-1.452.161-1.292.969-1.292 3.712-1.292 11.298 0 5.971-4.034 13.879-6.133 17.107a53.816 53.816 0 01-.806-5.971c-.162-1.453-.646-2.421-1.453-2.905-1.13-.646-2.421.161-2.582.161l.807 1.291c.161 0 .645-.323 1.129-.161.323.161.485.807.646 1.614.323 3.55 1.291 7.908 1.291 8.069 0 .323.323.484.646.646h.161c.323 0 .484-.162.646-.323.322-.484 7.262-11.297 7.262-19.69 0-5.164 0-9.683.646-10.006h.161c.323.161.807.323 1.453.646 2.098.968 5.81 2.582 11.136 1.936 2.098-.323 3.873-.645 5.164-.807 1.292-.322 2.583-.484 2.905-.323v.323c-.322 2.26-.807 5.326-.807 5.326l1.453.323s.484-3.066.807-5.487c0-.323.161-1.13-.484-1.614-.807-.484-1.937-.323-4.196.161z" fill="#8FB0F1"/><path d="M226.689 133.935l-5.003.161c.323-.645.807-1.775 1.453-3.228 1.291-3.389 1.614-6.294 1.614-6.294l-1.453-.161s-.323 2.743-1.452 5.971c-1.13 3.067-1.937 4.196-1.937 4.196-.162.162-.162.484 0 .807.161.323.323.484.645.484l5.811-.161-1.937 6.456 1.452.484 4.358-14.364-1.453-.484-2.098 6.133zm75.209-18.722c-.646-.484-1.614-.161-3.712.485-2.421.645-5.972 1.775-9.845 1.613-6.779-.322-26.952 0-27.114 0-.323 0-.645.323-.807.646 0 .161-5.164 22.433-7.101 26.468 0 .162-.161.162-.161.162-.807-.807-2.26-5.488-3.228-10.491l-1.453.323c.807 4.358 2.582 11.62 4.681 11.782h.161c.484 0 .968-.162 1.452-1.13 1.937-3.874 6.295-22.595 7.102-26.146 3.389 0 20.335-.161 26.468 0 4.035.162 7.747-.968 10.329-1.775.807-.323 1.937-.484 2.421-.646.323 1.453.968 3.874.968 4.035l1.453-.323s-.807-3.066-.969-4.357c-.322-.323-.484-.646-.645-.646zm9.199 4.519h1.614c0-.161.323-5.487-.807-9.038-.322-.968-.807-1.13-1.129-1.13-.323 0-1.13 0-2.744 3.874l.161-1.614-1.452-.161-.807 8.231c0 .322.161.807.645.807h.162a.888.888 0 00.807-.485c.968-3.389 2.421-7.262 3.228-8.553.484 3.227.322 8.069.322 8.069z" fill="#8FB0F1"/><path d="M289.309 127.641s-.161 0-.161.161c-.161-.484 0-1.614 0-2.421 0-.968.161-2.098 0-3.066-.161-.969-.646-1.13-.807-1.13-.323-.162-1.291-.323-4.035 3.389l.807-3.066-1.452-.485-2.098 7.424c-.162.323.161.807.484.969h.323c.322 0 .484-.162.645-.323 1.614-2.582 3.712-5.326 4.68-6.294v2.259c-.161 1.937-.161 3.389.646 4.035.484.323 1.13.161 1.775-.323l3.874-2.582-.807-1.291-3.874 2.744zm-24.013-1.286l-1.81 13.109 1.598.221 1.811-13.11-1.599-.22zm10.618 4.19c-.807-.484-1.937-.484-3.067-.161.485-.968 1.13-2.098 1.291-3.551 0-.484.323-1.775-.645-2.098-.807-.323-1.937.323-3.551 2.098l1.13.969c.484-.646 1.13-1.13 1.453-1.453v.323c-.485 3.066-2.583 4.842-2.583 4.842-.322.322-.323.645-.161.968.161.323.645.484.968.323 1.291-.646 3.389-1.453 4.035-.969.161.162.161.646.161.969-.322 2.421-2.743 5.164-4.357 5.326-.162 0-.807 0-1.13-1.13l-1.13.484c.646 1.937 1.776 2.098 2.583 2.098h.161c2.421-.161 5.326-3.55 5.649-6.617.161-1.291-.323-2.098-.807-2.421zm-26.63-3.227c1.291-2.582 2.744-5.326 3.712-6.617v2.421c-.161 3.389-.161 4.841.807 5.164h.323c.323 0 .807-.323 1.13-.807l-.807-.645c-.162-.485-.162-2.421 0-3.874 0-1.291.161-2.582 0-3.55-.162-.969-.646-1.13-.807-1.13-.484-.161-1.291-.323-4.196 5.164v-3.712h-1.614v6.94c0 .323.323.646.645.807.323.323.646.162.807-.161zm72.465-17.915c-.323 0-.484.323-.645.646l-5.81 23.724-4.519-9.845-1.453.646 5.326 11.782c.161.322.323.484.646.484.322 0 .645-.323.645-.646l6.294-25.338c3.228-.485 22.111-3.39 31.31-2.905v-1.614c-9.845-.646-30.987 2.905-31.794 3.066zm12.167-19.142l-.52 12.093 1.612.07.52-12.094-1.612-.069zm4.879 1.229l-2.295 10.732 1.578.337 2.295-10.732-1.578-.337z" fill="#8FB0F1"/><path d="M329.52 118.97l-2.308 15.158 1.596.243 2.307-15.158-1.595-.243zm11.112 3.667c-.807-.484-2.098-.161-3.389.323.484-.968.807-2.098.968-3.228 0-.484.162-1.936-.968-2.42-1.291-.485-3.067 1.452-4.035 2.582l1.13.968c.807-.968 1.775-1.937 2.259-2.098v.807c-.161 2.905-2.421 5.003-3.389 5.81-.161.162-.323.323-.484.323-.323.323-.323.646-.161 1.13.161.322.645.484 1.129.161l.484-.484c2.26-1.614 4.842-2.905 5.649-2.582.323.161.323.645.323.968-.161 3.228-2.744 6.456-4.196 6.617-.162 0-.646 0-.969-.968l-1.452.322c.484 1.937 1.614 2.26 2.259 2.26h.162c2.582-.161 5.487-4.358 5.648-8.07.323-1.614-.322-2.259-.968-2.421zm7.747-4.357c0-.485 0-.969.161-1.453.162-1.291.323-2.744-.161-3.712-.162-.484-.646-.807-1.13-.968-.968-.162-2.259.968-3.389 2.259l.484-1.775-1.453-.323-1.291 5.165c-.161.322.162.807.484.807.323.161.807 0 .969-.323 1.452-2.098 3.389-4.035 4.035-4.358.161.646 0 1.776 0 2.744-.162 1.614-.323 2.744.645 3.228.162.161.323.161.484.161.646 0 1.13-.484 1.292-.645l-1.13-.807zm-109.262 15.978c-.485 0-.969.484-.969.968s.484.968.969.968c.484 0 .968-.484.968-.968s-.484-.968-.968-.968z" fill="#8FB0F1"/></svg>