<svg width="87" height="88" viewBox="0 0 87 88" fill="none" xmlns="http://www.w3.org/2000/svg">
<path d="M12.8823 27.1661V74.4909H4.53088C3.79257 74.4909 3.0845 74.1976 2.56243 73.6755C2.04036 73.1534 1.74707 72.4454 1.74707 71.707V4.89557C1.74707 4.15725 2.04036 3.44918 2.56243 2.92711C3.0845 2.40505 3.79257 2.11176 4.53088 2.11176H49.0719C49.8102 2.11176 50.5183 2.40505 51.0403 2.92711C51.5624 3.44918 51.8557 4.15725 51.8557 4.89557V13.247H26.8014L12.8823 27.1661Z" fill="#98ADF8"/>
<path d="M21.9297 50.1325C23.8515 50.1325 25.4095 48.5746 25.4095 46.6528C25.4095 44.7309 23.8515 43.173 21.9297 43.173C20.0079 43.173 18.45 44.7309 18.45 46.6528C18.45 48.5746 20.0079 50.1325 21.9297 50.1325Z" fill="#98ADF8"/>
<path d="M21.9297 38.9973C23.8515 38.9973 25.4095 37.4393 25.4095 35.5175C25.4095 33.5957 23.8515 32.0378 21.9297 32.0378C20.0079 32.0378 18.45 33.5957 18.45 35.5175C18.45 37.4393 20.0079 38.9973 21.9297 38.9973Z" fill="#98ADF8"/>
<path d="M57.4233 68.9232C69.723 68.9232 79.6938 58.9524 79.6938 46.6528C79.6938 34.3531 69.723 24.3823 57.4233 24.3823C45.1237 24.3823 35.1528 34.3531 35.1528 46.6528C35.1528 58.9524 45.1237 68.9232 57.4233 68.9232Z" fill="#98ADF8"/>
<path d="M74.7566 77.0868L76.725 75.1183L78.6935 77.0868L76.725 79.0552L74.7566 77.0868Z" fill="#333333"/>
<path d="M80.6599 82.9898L82.6284 81.0214L84.5968 82.9898L82.6284 84.9583L80.6599 82.9898Z" fill="#333333"/>
<path d="M74.7552 83.0095L76.7237 81.041L78.6922 83.0095L76.7237 84.9779L74.7552 83.0095Z" fill="#333333"/>
<path d="M80.6611 77.1075L82.6296 75.1391L84.598 77.1075L82.6296 79.076L80.6611 77.1075Z" fill="#333333"/>
<path d="M74.7566 4.72437L76.725 2.75591L78.6935 4.72437L76.725 6.69282L74.7566 4.72437Z" fill="#333333"/>
<path d="M80.6584 10.6274L82.6269 8.65899L84.5954 10.6274L82.6269 12.5959L80.6584 10.6274Z" fill="#333333"/>
<path d="M74.7637 10.6387L76.7321 8.67028L78.7006 10.6387L76.7321 12.6072L74.7637 10.6387Z" fill="#333333"/>
<path d="M80.6681 4.73538L82.6365 2.76693L84.605 4.73538L82.6365 6.70383L80.6681 4.73538Z" fill="#333333"/>
<path d="M14.2742 82.8423V78.6666H11.4904V82.8423C11.4904 83.9498 11.9303 85.0119 12.7134 85.795C13.4965 86.5781 14.5586 87.018 15.6661 87.018H42.1123V84.2342H15.6661C15.2969 84.2342 14.9429 84.0876 14.6818 83.8265C14.4208 83.5655 14.2742 83.2115 14.2742 82.8423Z" fill="#333333"/>
<path d="M14.2742 75.8828V28.558H26.8013C27.1705 28.558 27.5245 28.4113 27.7855 28.1503C28.0466 27.8893 28.1932 27.5352 28.1932 27.1661V14.6389H60.2071C60.5762 14.6389 60.9302 14.7856 61.1913 15.0466C61.4523 15.3076 61.599 15.6617 61.599 16.0308V20.2065H64.3828V16.0308C64.3828 14.9233 63.9428 13.8612 63.1597 13.0781C62.3766 12.295 61.3145 11.8551 60.2071 11.8551H53.2475V4.89557C53.2475 3.7881 52.8076 2.72599 52.0245 1.94289C51.2414 1.15979 50.1793 0.719849 49.0718 0.719849H11.4903V3.50366H49.0718C49.441 3.50366 49.795 3.65031 50.056 3.91134C50.3171 4.17237 50.4637 4.52641 50.4637 4.89557V11.8551H26.8013C26.4324 11.8562 26.0788 12.0028 25.8172 12.2629L11.8982 26.182C11.638 26.4436 11.4915 26.7971 11.4903 27.1661V73.099H4.53082C4.16166 73.099 3.80763 72.9523 3.54659 72.6913C3.28556 72.4302 3.13891 72.0762 3.13891 71.707V4.89557C3.13891 4.52641 3.28556 4.17237 3.54659 3.91134C3.80763 3.65031 4.16166 3.50366 4.53082 3.50366H8.70654V0.719849H4.53082C3.42335 0.719849 2.36124 1.15979 1.57814 1.94289C0.795043 2.72599 0.355103 3.7881 0.355103 4.89557V71.707C0.355103 72.8145 0.795043 73.8766 1.57814 74.6597C2.36124 75.4428 3.42335 75.8828 4.53082 75.8828H14.2742ZM25.4094 16.6071V25.7742H16.2423L25.4094 16.6071Z" fill="#333333"/>
<path d="M24.0176 75.8828H39.3285V78.6666H24.0176V75.8828Z" fill="#333333"/>
<path d="M18.45 75.8828H21.2338V78.6666H18.45V75.8828Z" fill="#333333"/>
<path d="M18.45 68.9232H39.3285V71.7071H18.45V68.9232Z" fill="#333333"/>
<path d="M18.45 61.9637H29.5852V64.7475H18.45V61.9637Z" fill="#333333"/>
<path d="M32.3689 61.9637H35.1527V64.7475H32.3689V61.9637Z" fill="#333333"/>
<path d="M21.9296 51.5244C22.975 51.5206 23.9914 51.1801 24.828 50.5533C25.6646 49.9265 26.277 49.0468 26.5744 48.0446H30.977V45.2608H26.5744C26.3145 44.3975 25.8197 43.6235 25.1452 43.0252C24.4707 42.427 23.6431 42.028 22.755 41.873C21.8668 41.718 20.953 41.8129 20.1158 42.1473C19.2785 42.4817 18.5507 43.0423 18.0136 43.7665C17.4766 44.4907 17.1515 45.3499 17.0747 46.2482C16.9979 47.1466 17.1723 48.0485 17.5786 48.8534C17.9849 49.6582 18.607 50.3343 19.3753 50.806C20.1437 51.2777 21.0281 51.5264 21.9296 51.5244ZM21.9296 44.5649C22.3426 44.5649 22.7463 44.6873 23.0896 44.9168C23.4329 45.1462 23.7006 45.4722 23.8586 45.8538C24.0166 46.2353 24.0579 46.6551 23.9774 47.0601C23.8968 47.4651 23.698 47.8371 23.406 48.1291C23.114 48.4211 22.742 48.6199 22.337 48.7005C21.932 48.781 21.5122 48.7397 21.1307 48.5817C20.7492 48.4236 20.4231 48.156 20.1937 47.8127C19.9642 47.4693 19.8418 47.0657 19.8418 46.6527C19.8418 46.099 20.0618 45.568 20.4533 45.1764C20.8449 44.7849 21.3759 44.5649 21.9296 44.5649Z" fill="#333333"/>
<path d="M33.7609 34.1256H26.5744C26.2401 33.0042 25.5133 32.0406 24.5269 31.411C23.5405 30.7814 22.3605 30.5279 21.2025 30.6969C20.0446 30.8658 18.9862 31.4459 18.2208 32.3311C17.4554 33.2162 17.0342 34.3473 17.0342 35.5175C17.0342 36.6877 17.4554 37.8188 18.2208 38.7039C18.9862 39.5891 20.0446 40.1692 21.2025 40.3381C22.3605 40.5071 23.5405 40.2536 24.5269 39.624C25.5133 38.9944 26.2401 38.0308 26.5744 36.9094H33.7609V34.1256ZM21.9297 37.6054C21.5167 37.6054 21.113 37.4829 20.7697 37.2535C20.4264 37.0241 20.1587 36.698 20.0007 36.3165C19.8427 35.935 19.8014 35.5152 19.8819 35.1102C19.9625 34.7052 20.1613 34.3331 20.4533 34.0412C20.7453 33.7492 21.1173 33.5503 21.5223 33.4698C21.9273 33.3892 22.3471 33.4305 22.7286 33.5886C23.1101 33.7466 23.4362 34.0142 23.6656 34.3575C23.8951 34.7009 24.0175 35.1046 24.0175 35.5175C24.0175 36.0712 23.7975 36.6023 23.406 36.9938C23.0144 37.3854 22.4834 37.6054 21.9297 37.6054Z" fill="#333333"/>
<path d="M57.4233 70.3152C62.1032 70.3152 66.6781 68.9274 70.5694 66.3273C74.4606 63.7273 77.4935 60.0317 79.2845 55.708C81.0754 51.3842 81.544 46.6265 80.631 42.0365C79.718 37.4464 77.4644 33.2302 74.1551 29.9209C70.8459 26.6117 66.6296 24.3581 62.0396 23.445C57.4495 22.532 52.6918 23.0006 48.3681 24.7916C44.0443 26.5825 40.3488 29.6154 37.7487 33.5066C35.1486 37.3979 33.7609 41.9728 33.7609 46.6528C33.7679 52.9263 36.2631 58.9408 40.6992 63.3769C45.1352 67.8129 51.1498 70.3082 57.4233 70.3152ZM64.522 66.2633C66.1097 64.1248 67.317 61.7286 68.0908 59.1799H74.0872C71.6509 62.4164 68.3283 64.8769 64.522 66.2633ZM75.8744 56.3961H68.8675C69.493 53.654 69.8436 50.8563 69.9142 48.0447H78.2309C78.044 50.9637 77.2408 53.81 75.8744 56.3961ZM75.8744 36.9094C77.2408 39.4956 78.044 42.3419 78.2309 45.2609H69.9142C69.8436 42.4492 69.493 39.6516 68.8675 36.9094H75.8744ZM74.0872 34.1256H68.0908C67.317 31.577 66.1097 29.1808 64.522 27.0422C68.3283 28.4286 71.6509 30.8891 74.0872 34.1256ZM58.8152 26.0233C61.361 26.8459 63.6186 29.8622 65.1428 34.1256H58.8152V26.0233ZM58.8152 36.9094H65.996C66.672 39.6447 67.0533 42.4444 67.1332 45.2609H58.8152V36.9094ZM58.8152 48.0447H67.1332C67.0533 50.8611 66.672 53.6609 65.996 56.3961H58.8152V48.0447ZM58.8152 59.1799H65.1428C63.6186 63.4433 61.361 66.4596 58.8152 67.2822V59.1799ZM40.7594 59.1799H46.7557C47.5295 61.7286 48.7368 64.1248 50.3245 66.2633C46.5182 64.8769 43.1956 62.4164 40.7594 59.1799ZM56.0314 67.2822C53.4856 66.4596 51.2279 63.4433 49.7038 59.1799H56.0314V67.2822ZM56.0314 56.3961H48.8505C48.1745 53.6609 47.7933 50.8611 47.7133 48.0447H56.0314V56.3961ZM56.0314 45.2609H47.7133C47.7933 42.4444 48.1745 39.6447 48.8505 36.9094H56.0314V45.2609ZM56.0314 26.0233V34.1256H49.7038C51.2279 29.8622 53.4856 26.8459 56.0314 26.0233ZM50.3245 27.0422C48.7368 29.1808 47.5295 31.577 46.7557 34.1256H40.7594C43.1956 30.8891 46.5182 28.4286 50.3245 27.0422ZM38.9722 36.9094H45.979C45.3536 39.6516 45.0029 42.4492 44.9323 45.2609H36.6157C36.8026 42.3419 37.6057 39.4956 38.9722 36.9094ZM36.6157 48.0447H44.9323C45.0029 50.8563 45.3536 53.654 45.979 56.3961H38.9722C37.6057 53.81 36.8026 50.9637 36.6157 48.0447Z" fill="#333333"/>
<path d="M62.9798 78.6666H58.779L58.7275 75.8327C64.7108 75.5662 70.4676 73.4673 75.2185 69.8203C79.9693 66.1734 83.4846 61.1545 85.2884 55.4433C87.0921 49.7321 87.0971 43.6046 85.3027 37.8905C83.5083 32.1764 80.0012 27.1517 75.2564 23.497C73.8588 22.4243 72.3682 21.4787 70.8023 20.6714L69.5259 23.1463C72.6498 24.7151 75.4318 26.8877 77.7108 29.5385C79.9898 32.1893 81.7206 35.2656 82.8032 38.5895C83.8858 41.9134 84.2987 45.4189 84.018 48.9034C83.7373 52.3879 82.7685 55.7821 81.1677 58.8898C79.5669 61.9976 77.3659 64.7571 74.6919 67.0088C72.018 69.2605 68.9241 70.9598 65.5893 72.0083C62.2545 73.0568 58.7449 73.4337 55.2634 73.1173C51.782 72.8009 48.3979 71.7974 45.3067 70.1648L44.0317 72.6396C47.7289 74.5485 51.7932 75.6403 55.9492 75.841L55.9952 78.6666H51.8445C49.9994 78.6688 48.2305 79.4027 46.9258 80.7074C45.6211 82.0121 44.8872 83.781 44.885 85.6261C44.885 85.9953 45.0316 86.3493 45.2927 86.6104C45.5537 86.8714 45.9077 87.018 46.2769 87.018H68.5474C68.9165 87.018 69.2706 86.8714 69.5316 86.6104C69.7926 86.3493 69.9393 85.9953 69.9393 85.6261C69.9371 83.781 69.2031 82.0121 67.8984 80.7074C66.5938 79.4027 64.8249 78.6688 62.9798 78.6666ZM47.9068 84.2342C48.1959 83.4207 48.7295 82.7166 49.4344 82.2182C50.1394 81.7198 50.9812 81.4517 51.8445 81.4504H62.9798C63.8431 81.4515 64.685 81.7196 65.39 82.218C66.095 82.7164 66.6285 83.4206 66.9175 84.2342H47.9068Z" fill="#333333"/>
<path d="M46.2881 17.4227H49.0719V20.2065H46.2881V17.4227Z" fill="#333333"/>
<path d="M40.7203 17.4227H43.5041V20.2065H40.7203V17.4227Z" fill="#333333"/>
<path d="M35.1528 17.4227H37.9366V20.2065H35.1528V17.4227Z" fill="#333333"/>
<path d="M32.3689 6.28748H35.1527V9.07129H32.3689V6.28748Z" fill="#333333"/>
<path d="M26.8014 6.28748H29.5852V9.07129H26.8014V6.28748Z" fill="#333333"/>
<path d="M21.2338 6.28748H24.0176V9.07129H21.2338V6.28748Z" fill="#333333"/>
</svg>
