<svg width="93" height="93" viewBox="0 0 93 93" fill="none" xmlns="http://www.w3.org/2000/svg">
<path d="M13.8491 55.738H4.94434C4.1571 55.738 3.40212 55.4253 2.84546 54.8687C2.2888 54.312 1.97607 53.557 1.97607 52.7698V5.27757C1.97607 4.49034 2.2888 3.73535 2.84546 3.17869C3.40212 2.62203 4.1571 2.30931 4.94434 2.30931H76.1826C76.9699 2.30931 77.7249 2.62203 78.2815 3.17869C78.8382 3.73535 79.1509 4.49034 79.1509 5.27757V29.0237H16.8174C16.0302 29.0237 15.2752 29.3364 14.7185 29.8931C14.1619 30.4497 13.8491 31.2047 13.8491 31.9919V55.738Z" fill="#98ADF8"/>
<path d="M83.2056 63.791C82.6315 63.0794 82.3403 62.181 82.3878 61.2679C82.4296 60.4194 82.1802 59.5821 81.6808 58.8949C81.1814 58.2076 80.4621 57.7117 79.6422 57.4893C78.7602 57.2509 77.9968 56.6962 77.4976 55.931C77.0328 55.2199 76.3389 54.6891 75.5309 54.4267C74.7229 54.1643 73.8495 54.1861 73.0556 54.4884C72.2019 54.8134 71.2586 54.8134 70.405 54.4884C69.6111 54.1861 68.7377 54.1643 67.9297 54.4267C67.1217 54.6891 66.4277 55.2199 65.9629 55.931C65.4638 56.6962 64.7004 57.2509 63.8184 57.4893C62.9985 57.7117 62.2792 58.2076 61.7798 58.8949C61.2804 59.5821 61.0309 60.4194 61.0727 61.2679C61.1203 62.181 60.8291 63.0794 60.255 63.791C59.7219 64.4526 59.4313 65.2766 59.4313 66.1262C59.4313 66.9759 59.7219 67.7999 60.255 68.4615C60.8281 69.1736 61.1192 70.0717 61.0727 70.9845C60.951 73.4467 62.643 74.2303 64.3096 74.9457V91.3572L71.7303 87.6543L79.1509 91.3572V74.9442C80.8785 74.2021 82.5125 73.5046 82.3878 70.9831C82.3414 70.0702 82.6325 69.1721 83.2056 68.46C83.7383 67.7985 84.0287 66.9748 84.0287 66.1255C84.0287 65.2762 83.7383 64.4524 83.2056 63.791Z" fill="#98ADF8"/>
<path d="M84.3618 69.392C85.1008 68.4642 85.5032 67.3131 85.5032 66.127C85.5032 64.9408 85.1008 63.7897 84.3618 62.8619C84.0172 62.4349 83.8418 61.896 83.869 61.348C83.9228 60.1624 83.5721 58.9936 82.8745 58.0334C82.1769 57.0732 81.1738 56.3784 80.0296 56.0631C79.4996 55.9192 79.0407 55.586 78.7399 55.1266C78.0866 54.1356 77.116 53.3959 75.9872 53.0289C74.8584 52.6619 73.6385 52.6893 72.5273 53.1067C72.014 53.3026 71.4466 53.3026 70.9333 53.1067C69.8223 52.6895 68.6025 52.662 67.4738 53.0287C66.3451 53.3954 65.3744 54.1346 64.7208 55.1251C64.4205 55.5854 63.9615 55.9192 63.4311 56.0631C62.2868 56.3784 61.2837 57.0732 60.5861 58.0334C59.8885 58.9936 59.5378 60.1624 59.5916 61.348C59.6185 61.8965 59.4432 62.4357 59.0989 62.8633C58.3598 63.7912 57.9574 64.9423 57.9574 66.1284C57.9574 67.3146 58.3598 68.4657 59.0989 69.3935C59.4435 69.8205 59.6189 70.3593 59.5916 70.9073C59.5451 71.9812 59.8306 73.0433 60.4093 73.9491C60.9879 74.8549 61.8316 75.5605 62.8255 75.9697V91.3572C62.8255 91.61 62.8901 91.8586 63.0132 92.0795C63.1362 92.3003 63.3136 92.486 63.5286 92.6191C63.7435 92.7522 63.9889 92.8281 64.2415 92.8397C64.494 92.8513 64.7453 92.7982 64.9716 92.6855L71.7303 89.3121L78.4891 92.684C78.7152 92.7967 78.9664 92.8498 79.2188 92.8382C79.4712 92.8267 79.7165 92.7509 79.9314 92.618C80.1464 92.4851 80.3238 92.2996 80.4469 92.0789C80.5701 91.8583 80.6348 91.6099 80.6351 91.3572V75.9697C81.629 75.5605 82.4727 74.8549 83.0514 73.9491C83.63 73.0433 83.9155 71.9812 83.869 70.9073C83.8421 70.3589 84.0174 69.8197 84.3618 69.392ZM77.6668 88.9559L72.3922 86.3245C72.1864 86.2227 71.9599 86.1698 71.7303 86.1698C71.5007 86.1698 71.2742 86.2227 71.0684 86.3245L65.7938 88.9559V78.2968C66.5017 78.8748 67.3488 79.2572 68.2506 79.4059C69.1523 79.5546 70.0773 79.4644 70.9333 79.1443C71.4466 78.9484 72.014 78.9484 72.5273 79.1443C73.3835 79.4687 74.3104 79.5599 75.2134 79.4087C76.1164 79.2574 76.9631 78.8691 77.6668 78.2835V88.9559ZM82.051 67.5295C81.2483 68.5239 80.8403 69.7794 80.9052 71.0558C81.0462 73.9083 78.1596 72.5948 76.254 75.5081C75.9732 75.9344 75.5558 76.2526 75.0704 76.4104C74.5849 76.5681 74.0603 76.5561 73.5825 76.3764C72.3879 75.9196 71.0668 75.9196 69.8722 76.3764C69.3943 76.556 68.8695 76.5678 68.384 76.4097C67.8986 76.2517 67.4813 75.9332 67.2008 75.5067C65.3441 72.6705 62.4144 73.8326 62.551 71.0543C62.6155 69.7784 62.2076 68.5235 61.4052 67.5295C61.0875 67.1302 60.9145 66.635 60.9145 66.1247C60.9145 65.6145 61.0875 65.1193 61.4052 64.72C62.2079 63.7255 62.6158 62.4701 62.551 61.1937C62.5282 60.6839 62.6793 60.1814 62.9794 59.7686C63.2795 59.3558 63.7108 59.0572 64.2028 58.9215C65.4356 58.587 66.5029 57.8118 67.2022 56.7428C67.4826 56.3161 67.9 55.9976 68.3856 55.8398C68.8711 55.682 69.396 55.6942 69.8737 55.8746C71.0683 56.3313 72.3894 56.3313 73.584 55.8746C74.0619 55.6949 74.5867 55.6832 75.0721 55.8412C75.5576 55.9993 75.9749 56.3177 76.2554 56.7443C76.9544 57.8127 78.0211 58.5874 79.2534 58.9215C79.7454 59.0572 80.1767 59.3558 80.4768 59.7686C80.7769 60.1814 80.928 60.6839 80.9052 61.1937C80.8407 62.4696 81.2486 63.7244 82.051 64.7185C82.3691 65.1179 82.5423 65.6134 82.5423 66.124C82.5423 66.6346 82.3691 67.1301 82.051 67.5295Z" fill="#333333"/>
<path d="M71.7302 58.7063C70.2626 58.7063 68.8279 59.1415 67.6075 59.9569C66.3872 60.7723 65.4361 61.9313 64.8744 63.2872C64.3128 64.6432 64.1658 66.1352 64.4522 67.5747C64.7385 69.0141 65.4452 70.3364 66.483 71.3742C67.5208 72.412 68.8431 73.1187 70.2825 73.405C71.722 73.6914 73.214 73.5444 74.57 72.9828C75.9259 72.4211 77.0849 71.47 77.9003 70.2497C78.7157 69.0293 79.1509 67.5946 79.1509 66.127C79.1485 64.1596 78.366 62.2735 76.9748 60.8824C75.5837 59.4912 73.6976 58.7087 71.7302 58.7063ZM71.7302 70.5794C70.8496 70.5794 69.9888 70.3182 69.2566 69.829C68.5244 69.3398 67.9537 68.6444 67.6168 67.8308C67.2798 67.0173 67.1916 66.122 67.3634 65.2584C67.5352 64.3947 67.9592 63.6013 68.5819 62.9787C69.2046 62.356 69.9979 61.9319 70.8616 61.7601C71.7253 61.5883 72.6205 61.6765 73.4341 62.0135C74.2477 62.3505 74.943 62.9212 75.4323 63.6534C75.9215 64.3855 76.1826 65.2464 76.1826 66.127C76.1826 67.3078 75.7135 68.4403 74.8785 69.2753C74.0436 70.1103 72.9111 70.5794 71.7302 70.5794Z" fill="#333333"/>
<path d="M88.0558 27.5395H83.6034V30.5078H88.0558C88.4494 30.5078 88.8269 30.6642 89.1052 30.9425C89.3836 31.2208 89.5399 31.5983 89.5399 31.9919V79.4841C89.5399 79.8778 89.3836 80.2553 89.1052 80.5336C88.8269 80.8119 88.4494 80.9683 88.0558 80.9683H83.6034V83.9365H88.0558C89.2366 83.9365 90.3691 83.4674 91.2041 82.6325C92.0391 81.7975 92.5082 80.665 92.5082 79.4841V31.9919C92.5082 30.8111 92.0391 29.6786 91.2041 28.8436C90.3691 28.0086 89.2366 27.5395 88.0558 27.5395Z" fill="#333333"/>
<path d="M15.3333 79.4842V31.992C15.3333 31.5983 15.4896 31.2208 15.768 30.9425C16.0463 30.6642 16.4238 30.5078 16.8174 30.5078H80.635V5.27759C80.635 4.09674 80.166 2.96426 79.331 2.12927C78.496 1.29429 77.3635 0.825195 76.1827 0.825195H4.94434C3.76349 0.825195 2.63101 1.29429 1.79602 2.12927C0.961034 2.96426 0.491943 4.09674 0.491943 5.27759V52.7698C0.491943 53.9506 0.961034 55.0831 1.79602 55.9181C2.63101 56.7531 3.76349 57.2222 4.94434 57.2222H12.365V79.4842C12.365 80.665 12.8341 81.7975 13.6691 82.6325C14.5041 83.4675 15.6365 83.9366 16.8174 83.9366H59.8572V80.9683H16.8174C16.4238 80.9683 16.0463 80.8119 15.768 80.5336C15.4896 80.2553 15.3333 79.8778 15.3333 79.4842ZM12.365 31.992V43.9006C11.4912 43.2263 10.4766 42.7576 9.39673 42.5293V15.5181C10.8218 15.2249 12.1296 14.5204 13.1584 13.4916C14.1871 12.4628 14.8917 11.155 15.1848 9.72998H19.7857V6.76172H13.8491C13.4555 6.76172 13.078 6.91808 12.7997 7.19641C12.5214 7.47474 12.365 7.85224 12.365 8.24585C12.365 9.4267 11.8959 10.5592 11.0609 11.3942C10.2259 12.2292 9.09345 12.6982 7.9126 12.6982C7.51899 12.6982 7.14149 12.8546 6.86316 13.1329C6.58483 13.4113 6.42847 13.7888 6.42847 14.1824V43.865C6.42847 44.2586 6.58483 44.6361 6.86316 44.9144C7.14149 45.1928 7.51899 45.3491 7.9126 45.3491C9.09345 45.3491 10.2259 45.8182 11.0609 46.6532C11.8959 47.4882 12.365 48.6207 12.365 49.8015V54.2539H4.94434C4.55072 54.2539 4.17323 54.0976 3.8949 53.8192C3.61657 53.5409 3.46021 53.1634 3.46021 52.7698V5.27759C3.46021 4.88397 3.61657 4.50648 3.8949 4.22815C4.17323 3.94982 4.55072 3.79346 4.94434 3.79346H76.1827C76.5763 3.79346 76.9538 3.94982 77.2321 4.22815C77.5104 4.50648 77.6668 4.88397 77.6668 5.27759V27.5396H74.6985V14.1824C74.6985 13.7888 74.5422 13.4113 74.2638 13.1329C73.9855 12.8546 73.608 12.6982 73.2144 12.6982C72.0335 12.6982 70.9011 12.2292 70.0661 11.3942C69.2311 10.5592 68.762 9.4267 68.762 8.24585C68.762 7.85224 68.6056 7.47474 68.3273 7.19641C68.049 6.91808 67.6715 6.76172 67.2779 6.76172H22.7539V9.72998H65.9421C66.2353 11.155 66.9399 12.4628 67.9686 13.4916C68.9974 14.5204 70.3052 15.2249 71.7303 15.5181V27.5396H16.8174C15.6365 27.5396 14.5041 28.0087 13.6691 28.8436C12.8341 29.6786 12.365 30.8111 12.365 31.992Z" fill="#333333"/>
<path d="M21.2699 69.2436V42.2325C22.6949 41.9393 24.0028 41.2347 25.0315 40.206C26.0603 39.1772 26.7648 37.8694 27.058 36.4443H77.8153C78.1085 37.8694 78.813 39.1772 79.8418 40.206C80.8706 41.2347 82.1784 41.9393 83.6034 42.2325V55.738H86.5717V40.8967C86.5717 40.5031 86.4153 40.1256 86.137 39.8473C85.8587 39.569 85.4812 39.4126 85.0876 39.4126C83.9067 39.4126 82.7742 38.9435 81.9392 38.1085C81.1043 37.2735 80.6352 36.1411 80.6352 34.9602C80.6352 32.1062 78.685 34.1172 25.7223 33.4761C25.3287 33.4761 24.9512 33.6324 24.6729 33.9108C24.3945 34.1891 24.2382 34.5666 24.2382 34.9602C24.2382 36.1411 23.7691 37.2735 22.9341 38.1085C22.0991 38.9435 20.9666 39.4126 19.7858 39.4126C19.3922 39.4126 19.0147 39.569 18.7363 39.8473C18.458 40.1256 18.3016 40.5031 18.3016 40.8967V70.5794C18.3016 70.973 18.458 71.3505 18.7363 71.6288C19.0147 71.9071 19.3922 72.0635 19.7858 72.0635C20.9666 72.0635 22.0991 72.5326 22.9341 73.3676C23.7691 74.2026 24.2382 75.335 24.2382 76.5159C24.2382 76.9095 24.3945 77.287 24.6729 77.5653C24.9512 77.8437 25.3287 78 25.7223 78H59.8573V75.0318H27.058C26.7648 73.6067 26.0603 72.2989 25.0315 71.2701C24.0028 70.2414 22.6949 69.5368 21.2699 69.2436Z" fill="#333333"/>
<path d="M39.0793 39.4126H65.7937V42.3809H39.0793V39.4126Z" fill="#333333"/>
<path d="M27.2063 12.6982H53.9207V15.6665H27.2063V12.6982Z" fill="#333333"/>
<path d="M46.5 48.3174H59.8572V51.2857H46.5V48.3174Z" fill="#333333"/>
<path d="M34.627 21.603H46.5V24.5713H34.627V21.603Z" fill="#333333"/>
<path d="M34.627 54.2539H59.8572V57.2222H34.627V54.2539Z" fill="#333333"/>
<path d="M28.6904 54.2539H31.6587V57.2222H28.6904V54.2539Z" fill="#333333"/>
<path d="M28.6904 60.1905H55.4048V63.1587H28.6904V60.1905Z" fill="#333333"/>
<path d="M52.4365 66.127H55.4048V69.0952H52.4365V66.127Z" fill="#333333"/>
<path d="M28.6904 66.127H49.4683V69.0952H28.6904V66.127Z" fill="#333333"/>
<path d="M85.0874 6.76171H88.0557V9.72998H85.0874V6.76171Z" fill="#333333"/>
<path d="M85.0874 12.6982H88.0557V15.6665H85.0874V12.6982Z" fill="#333333"/>
<path d="M85.0874 18.6348H88.0557V21.603H85.0874V18.6348Z" fill="#333333"/>
<path d="M4.94434 72.0635H7.9126V75.0317H4.94434V72.0635Z" fill="#333333"/>
<path d="M4.94434 78H7.9126V80.9683H4.94434V78Z" fill="#333333"/>
<path d="M4.94434 83.9365H7.9126V86.9048H4.94434V83.9365Z" fill="#333333"/>
</svg>
