<svg width="91" height="92" viewBox="0 0 91 92" fill="none" xmlns="http://www.w3.org/2000/svg">
<path d="M49.6648 77.9191L50.2757 79.4362C50.499 79.9693 50.6142 80.5414 50.6145 81.1194C50.6149 81.6973 50.5004 82.2696 50.2778 82.8029C50.0552 83.3363 49.7289 83.8201 49.3178 84.2263C48.9066 84.6325 48.4189 84.953 47.8829 85.1692C47.3469 85.3854 46.7733 85.4929 46.1954 85.4856C45.6175 85.4783 45.0468 85.3562 44.5165 85.1265C43.9861 84.8969 43.5067 84.5641 43.106 84.1476C42.7053 83.7311 42.3913 83.2392 42.1823 82.7004L40.2535 77.9191H32.4088C30.8656 77.9191 29.3857 78.5321 28.2945 79.6232C27.2033 80.7144 26.5903 82.1944 26.5903 83.7375C26.5903 85.2806 27.2033 86.7606 28.2945 87.8517C29.3857 88.9429 30.8656 89.5559 32.4088 89.5559H84.7746V77.9191H49.6648Z" fill="#98ADF8"/>
<path d="M26.5902 43.0085C31.4103 43.0085 35.3178 39.101 35.3178 34.2809C35.3178 29.4607 31.4103 25.5532 26.5902 25.5532C21.77 25.5532 17.8625 29.4607 17.8625 34.2809C17.8625 39.101 21.77 43.0085 26.5902 43.0085Z" fill="#98ADF8"/>
<path d="M34.387 63.373H18.7936L21.7261 56.1H31.4545L34.387 63.373Z" fill="#98ADF8"/>
<path d="M9.38208 63.373H5.49827C4.53381 63.373 3.60885 62.9899 2.92687 62.3079C2.24489 61.6259 1.86176 60.701 1.86176 59.7365C1.86176 58.772 2.24489 57.8471 2.92687 57.1651C3.60885 56.4831 4.53381 56.1 5.49827 56.1H12.316L9.38208 63.373Z" fill="#98ADF8"/>
<path d="M43.7982 63.373H47.682C48.6465 63.373 49.5714 62.9899 50.2534 62.3079C50.9354 61.6259 51.3185 60.701 51.3185 59.7365C51.3185 58.772 50.9354 57.8471 50.2534 57.1651C49.5714 56.4831 48.6465 56.1 47.682 56.1H40.8643L43.7982 63.373Z" fill="#98ADF8"/>
<path d="M1.07947 25.3732L3.13659 23.3161L5.19372 25.3732L3.13659 27.4304L1.07947 25.3732Z" fill="#333333"/>
<path d="M7.24988 31.5462L9.307 29.4891L11.3641 31.5462L9.307 33.6033L7.24988 31.5462Z" fill="#333333"/>
<path d="M1.07819 31.5459L3.13531 29.4888L5.19244 31.5459L3.13531 33.603L1.07819 31.5459Z" fill="#333333"/>
<path d="M7.2514 25.3756L9.30853 23.3185L11.3657 25.3756L9.30853 27.4327L7.2514 25.3756Z" fill="#333333"/>
<path d="M26.5901 38.6447C27.4532 38.6447 28.2969 38.3888 29.0145 37.9093C29.7322 37.4298 30.2915 36.7482 30.6218 35.9508C30.9521 35.1535 31.0385 34.276 30.8701 33.4295C30.7017 32.583 30.2861 31.8055 29.6758 31.1952C29.0655 30.5849 28.288 30.1693 27.4415 30.0009C26.595 29.8325 25.7176 29.9189 24.9202 30.2492C24.1228 30.5795 23.4413 31.1388 22.9618 31.8565C22.4823 32.5741 22.2263 33.4178 22.2263 34.2809C22.2263 35.4382 22.6861 36.5482 23.5045 37.3666C24.3228 38.1849 25.4328 38.6447 26.5901 38.6447ZM26.5901 32.8263C26.8778 32.8263 27.1591 32.9116 27.3983 33.0714C27.6375 33.2312 27.8239 33.4584 27.934 33.7242C28.0441 33.99 28.0729 34.2825 28.0168 34.5647C27.9607 34.8468 27.8221 35.106 27.6187 35.3094C27.4153 35.5129 27.1561 35.6514 26.8739 35.7075C26.5918 35.7637 26.2993 35.7349 26.0335 35.6248C25.7677 35.5147 25.5405 35.3282 25.3807 35.089C25.2208 34.8498 25.1355 34.5686 25.1355 34.2809C25.1355 33.8951 25.2888 33.5251 25.5616 33.2523C25.8344 32.9795 26.2044 32.8263 26.5901 32.8263Z" fill="#333333"/>
<path d="M90.593 75.0099V24.0986H87.6837V75.0099C87.6837 75.3957 87.5305 75.7656 87.2577 76.0384C86.9849 76.3112 86.6149 76.4645 86.2291 76.4645H50.6451L45.9525 64.8276H47.682C49.0323 64.8276 50.3272 64.2912 51.282 63.3365C52.2368 62.3817 52.7732 61.0867 52.7732 59.7365C52.7732 58.3862 52.2368 57.0913 51.282 56.1365C50.3272 55.1818 49.0323 54.6454 47.682 54.6454H41.8461L35.5681 39.0811C36.4721 37.423 36.8947 35.5452 36.7883 33.6597C36.6819 31.7742 36.0506 29.956 34.9658 28.4101C33.881 26.8643 32.3858 25.6523 30.6488 24.9111C28.9119 24.1698 27.0023 23.9287 25.1356 24.215V15.371C25.1356 14.9852 25.2889 14.6152 25.5617 14.3424C25.8345 14.0696 26.2044 13.9164 26.5902 13.9164C26.976 13.9164 27.346 14.0696 27.6188 14.3424C27.8916 14.6152 28.0448 14.9852 28.0448 15.371V21.1894H30.954V15.371C30.954 14.2136 30.4943 13.1037 29.6759 12.2853C28.8575 11.4669 27.7476 11.0071 26.5902 11.0071C25.4329 11.0071 24.3229 11.4669 23.5045 12.2853C22.6862 13.1037 22.2264 14.2136 22.2264 15.371V25.095C20.9807 25.6833 19.8676 26.5188 18.955 27.5507C18.0423 28.5826 17.3491 29.7894 16.9175 31.0977C16.4859 32.406 16.3249 33.7884 16.4444 35.1608C16.5638 36.5332 16.9612 37.867 17.6124 39.0811L11.3343 54.6454H5.49841C4.14816 54.6454 2.85322 55.1818 1.89844 56.1365C0.943673 57.0913 0.407288 58.3862 0.407288 59.7365C0.407288 61.0867 0.943673 62.3817 1.89844 63.3365C2.85322 64.2912 4.14816 64.8276 5.49841 64.8276H7.22794L1.55497 78.8922C1.07836 80.0868 1.01098 81.4056 1.36338 82.6426C1.71577 83.8795 2.46808 84.9648 3.50269 85.7289L2.29828 88.7166L4.99657 89.8047L6.20244 86.8169C7.47822 86.9927 8.77611 86.7366 9.88954 86.0895C11.003 85.4424 11.8679 84.4414 12.3467 83.2459L19.7754 64.8276H33.4051L38.0991 76.4645H32.4087C30.8297 76.4698 29.2964 76.9942 28.0448 77.9569V67.7368H25.1356V83.7375C25.1379 85.6657 25.9049 87.5143 27.2684 88.8778C28.6318 90.2412 30.4804 91.0082 32.4087 91.0106H86.2291C87.3865 91.0106 88.4964 90.5508 89.3148 89.7324C90.1332 88.914 90.593 87.8041 90.593 86.6467V82.2829H87.6837V86.6467C87.6837 87.0325 87.5305 87.4025 87.2577 87.6753C86.9849 87.9481 86.6149 88.1013 86.2291 88.1013V79.3737C87.3865 79.3737 88.4964 78.9139 89.3148 78.0956C90.1332 77.2772 90.593 76.1672 90.593 75.0099ZM47.682 57.5546C48.2607 57.5546 48.8157 57.7845 49.2249 58.1936C49.6341 58.6028 49.8639 59.1578 49.8639 59.7365C49.8639 60.3152 49.6341 60.8702 49.2249 61.2793C48.8157 61.6885 48.2607 61.9184 47.682 61.9184H44.7728L43.0273 57.5546H47.682ZM26.5902 27.0078C28.0287 27.0078 29.4349 27.4344 30.6309 28.2336C31.827 29.0327 32.7592 30.1686 33.3096 31.4976C33.8601 32.8266 34.0041 34.2889 33.7235 35.6998C33.4429 37.1106 32.7502 38.4065 31.733 39.4237C30.7159 40.4408 29.42 41.1335 28.0091 41.4142C26.5983 41.6948 25.1359 41.5508 23.807 41.0003C22.478 40.4498 21.3421 39.5176 20.5429 38.3215C19.7437 37.1255 19.3172 35.7193 19.3172 34.2809C19.3195 32.3526 20.0865 30.5041 21.45 29.1406C22.8134 27.7771 24.662 27.0101 26.5902 27.0078ZM29.2987 54.6454H23.8817L26.5902 47.928L29.2987 54.6454ZM5.49841 61.9184C4.91974 61.9184 4.36476 61.6885 3.95557 61.2793C3.54638 60.8702 3.3165 60.3152 3.3165 59.7365C3.3165 59.1578 3.54638 58.6028 3.95557 58.1936C4.36476 57.7845 4.91974 57.5546 5.49841 57.5546H10.1604L8.40763 61.9184H5.49841ZM9.64986 82.1578C9.36053 82.8735 8.79875 83.4448 8.08813 83.7463C7.37751 84.0477 6.57624 84.0545 5.86061 83.7652C5.14498 83.4758 4.5736 82.914 4.27216 82.2034C3.97073 81.4928 3.96393 80.6915 4.25327 79.9759L19.6721 41.7314C21.1275 43.0848 22.9484 43.9811 24.9087 44.3089C20.2772 55.8091 16.7454 64.5614 9.64986 82.1578ZM20.9493 61.9184L22.7079 57.5546H30.4726C30.6529 58.0041 32.3345 62.173 32.2312 61.9184H20.9493ZM32.4087 88.1013C31.2513 88.1013 30.1413 87.6416 29.323 86.8232C28.5046 86.0048 28.0448 84.8949 28.0448 83.7375C28.0448 82.5802 28.5046 81.4702 29.323 80.6518C30.1413 79.8335 31.2513 79.3737 32.4087 79.3737H39.2715L40.8337 83.2459C41.3159 84.4393 42.1817 85.4382 43.2945 86.0851C44.4073 86.732 45.7038 86.99 46.9795 86.8184L47.4973 88.1013H32.4087ZM47.3169 83.7681C46.6016 84.0529 45.8027 84.0435 45.0943 83.7419C44.3859 83.4403 43.8254 82.8709 43.535 82.1578L41.6018 77.3751L28.2688 44.3177C30.2291 43.9898 32.05 43.0936 33.5054 41.7401C47.0333 75.279 42.9764 65.2262 48.3162 78.466L48.9286 79.9832C49.2139 80.6991 49.2046 81.4987 48.9027 82.2077C48.6007 82.9167 48.0307 83.4776 47.3169 83.7681ZM83.3199 82.2829H80.4107V85.1921H83.3199V88.1013H50.6334L49.6763 85.7289C50.6345 85.0113 51.3509 84.0183 51.7296 82.8827C52.1084 81.747 52.1314 80.5228 51.7957 79.3737H83.3199V82.2829Z" fill="#333333"/>
<path d="M86.2291 0.82489H32.4086C30.4804 0.8272 28.6318 1.59421 27.2683 2.95766C25.9049 4.32112 25.1379 6.16971 25.1356 8.09793H28.0448C28.0448 6.94057 28.5045 5.83062 29.3229 5.01224C30.1413 4.19386 31.2512 3.73411 32.4086 3.73411H86.2291C86.6149 3.73411 86.9848 3.88736 87.2576 4.16015C87.5304 4.43294 87.6837 4.80293 87.6837 5.18871V21.1894H90.5929V5.18871C90.5929 4.03136 90.1331 2.9214 89.3148 2.10302C88.4964 1.28465 87.3864 0.82489 86.2291 0.82489Z" fill="#333333"/>
<path d="M55.7028 10.7671L53.5209 23.8106L50.4459 17.6299C50.3245 17.387 50.1375 17.1829 49.9062 17.0408C49.6748 16.8986 49.4083 16.824 49.1367 16.8255H44.0456V19.7347H48.2378L52.9187 29.1126C53.0559 29.3874 53.2766 29.6117 53.5491 29.7534C53.8216 29.8951 54.132 29.9468 54.4357 29.9013C54.7395 29.8558 55.021 29.7152 55.24 29.4999C55.459 29.2845 55.6042 29.0054 55.6548 28.7024L58.3691 12.4617H71.6831V9.55249H57.1371C56.793 9.55259 56.46 9.67468 56.1974 9.89705C55.9348 10.1194 55.7596 10.4277 55.7028 10.7671Z" fill="#333333"/>
<path d="M62.5294 25.127L65.1375 22.5189L67.7456 25.127L69.8024 23.0702L67.1943 20.4621L69.8024 17.854L67.7456 15.7972L65.1375 18.4053L62.5294 15.7972L60.4725 17.854L63.0806 20.4621L60.4725 23.0702L62.5294 25.127Z" fill="#333333"/>
<path d="M49.8639 34.2808H81.8653V37.19H49.8639V34.2808Z" fill="#333333"/>
<path d="M44.0456 34.2808H46.9548V37.19H44.0456V34.2808Z" fill="#333333"/>
<path d="M67.3192 40.0993H81.8652V43.0085H67.3192V40.0993Z" fill="#333333"/>
<path d="M44.0456 40.0993H64.4101V43.0085H44.0456V40.0993Z" fill="#333333"/>
<path d="M44.0456 45.9177H67.3193V48.8269H44.0456V45.9177Z" fill="#333333"/>
<path d="M33.8633 82.2829H38.2272V85.1921H33.8633V82.2829Z" fill="#333333"/>
<path d="M54.2279 82.2829H77.5016V85.1921H54.2279V82.2829Z" fill="#333333"/>
<path d="M6.22577 0.82489H16.408V3.73411H6.22577V0.82489Z" fill="#333333"/>
<path d="M0.407715 0.82489H3.31693V3.73411H0.407715V0.82489Z" fill="#333333"/>
<path d="M0.407288 6.64331H13.4988V9.55253H0.407288V6.64331Z" fill="#333333"/>
<path d="M14.9533 12.4617H17.8625V15.3709H14.9533V12.4617Z" fill="#333333"/>
<path d="M0.407288 12.4617H12.0441V15.3709H0.407288V12.4617Z" fill="#333333"/>
</svg>
