<svg width="89" height="90" viewBox="0 0 89 90" fill="none" xmlns="http://www.w3.org/2000/svg">
<path d="M55.4115 19.0329C55.6924 19.0329 56.0006 19.0464 56.3359 19.0736C56.6712 19.1008 57.0065 19.1507 57.3419 19.2232C57.6772 19.2957 57.9808 19.3999 58.2527 19.5358L57.9672 21.3031H55.9009C55.4659 21.3031 55.1668 21.3892 55.0036 21.5614C54.8405 21.7336 54.7589 22.0825 54.7589 22.6082C54.7589 23.1338 54.8405 23.4873 55.0036 23.6685C55.1668 23.8407 55.4659 23.9268 55.9009 23.9268C56.1365 23.9268 56.4537 23.9223 56.8525 23.9132C57.2512 23.9042 57.6636 23.877 58.0896 23.8317L58.3479 25.6125C57.9491 25.821 57.4869 25.966 56.9612 26.0475C56.4356 26.1382 55.9099 26.1835 55.3843 26.1835C54.4961 26.1835 53.7847 26.0702 53.25 25.8436C52.7243 25.608 52.3437 25.2273 52.108 24.7017C51.8815 24.1761 51.7682 23.4782 51.7682 22.6082C51.7682 21.7291 51.886 21.0312 52.1216 20.5146C52.3573 19.989 52.7425 19.6129 53.2772 19.3863C53.8119 19.1507 54.5233 19.0329 55.4115 19.0329Z" fill="#98ADF8"/>
<path d="M65.3533 20.8409V22.948H63.1918V25.0959H61.1119V22.948H58.9504V20.8409H61.1119V18.693H63.1918V20.8409H65.3533Z" fill="#98ADF8"/>
<path d="M72.4691 20.8409V22.948H70.3076V25.0959H68.2277V22.948H66.0662V20.8409H68.2277V18.693H70.3076V20.8409H72.4691Z" fill="#98ADF8"/>
<path d="M84.6085 14.078H81.7436V52.3531C81.7436 52.8338 81.6226 53.3068 81.3918 53.7286C81.161 54.1503 80.8278 54.5071 80.4228 54.7663C80.0179 55.0254 79.5542 55.1784 79.0746 55.2113C78.595 55.2442 78.1148 55.1558 77.6783 54.9544C73.1146 52.848 68.1481 51.7572 63.1217 51.7572C58.0954 51.7572 53.1289 52.848 48.5652 54.9544L44.4999 56.8309L40.4346 54.9544C35.8709 52.848 30.9044 51.7572 25.878 51.7572C20.8517 51.7572 15.8852 52.848 11.3215 54.9544C10.8849 55.1558 10.4048 55.2442 9.92513 55.2113C9.44551 55.1784 8.98187 55.0254 8.57693 54.7663C8.17198 54.5071 7.83876 54.1503 7.60795 53.7286C7.37714 53.3068 7.25616 52.8338 7.25617 52.3531V14.078H4.39127C3.63145 14.078 2.90275 14.3798 2.36548 14.9171C1.8282 15.4544 1.52637 16.1831 1.52637 16.9429V63.9932H87.4734V16.9429C87.4734 16.1831 87.1715 15.4544 86.6343 14.9171C86.097 14.3798 85.3683 14.078 84.6085 14.078Z" fill="#98ADF8"/>
<path d="M77.1224 15.2018L77.7699 12.4128C68.1314 10.1853 58.1119 10.1853 48.4734 12.4128L49.1209 15.2018C58.3337 13.076 67.9096 13.076 77.1224 15.2018Z" fill="#333333"/>
<path d="M77.1224 42.7428L77.7699 39.9538C68.1314 37.7263 58.1119 37.7263 48.4734 39.9538L49.1209 42.7428C58.3337 40.6171 67.9096 40.6171 77.1224 42.7428Z" fill="#333333"/>
<path d="M39.8787 42.7428L40.5262 39.9538C30.8877 37.7263 20.8682 37.7263 11.2297 39.9538L11.8772 42.7428C21.09 40.6171 30.6659 40.6171 39.8787 42.7428Z" fill="#333333"/>
<path d="M74.3551 33.5722C75.2824 33.7422 76.2049 33.9332 77.1226 34.1452L77.7701 31.3562C76.8084 31.1308 75.8439 30.9293 74.8765 30.7517L74.3551 33.5722Z" fill="#333333"/>
<path d="M37.1115 33.5722C38.0387 33.7422 38.9612 33.9332 39.8789 34.1452L40.5264 31.3562C39.5648 31.1308 38.6002 30.9293 37.6329 30.7517L37.1115 33.5722Z" fill="#333333"/>
<path d="M71.3883 33.0981L71.7708 30.259C64.0027 29.206 56.1077 29.5788 48.4734 31.3591L49.1209 34.1481C56.418 32.4487 63.9636 32.0929 71.3883 33.0981Z" fill="#333333"/>
<path d="M34.1446 33.0981L34.5271 30.259C26.759 29.206 18.864 29.5788 11.2297 31.3591L11.8772 34.1481C19.1743 32.4487 26.72 32.0929 34.1446 33.0981Z" fill="#333333"/>
<path d="M44.4997 71.1554C45.2908 71.1554 45.9322 70.5141 45.9322 69.723C45.9322 68.9319 45.2908 68.2905 44.4997 68.2905C43.7086 68.2905 43.0673 68.9319 43.0673 69.723C43.0673 70.5141 43.7086 71.1554 44.4997 71.1554Z" fill="#333333"/>
<path d="M84.6086 12.6456H83.1761V7.37853C83.179 6.45864 82.8855 5.56229 82.339 4.82231C81.7925 4.08233 81.0222 3.5381 80.1422 3.27026C69.053 -0.15328 57.1892 -0.15328 46.1 3.27026L44.4999 3.76303L42.8985 3.27026C31.8095 -0.154704 19.9452 -0.154704 8.85629 3.27026C7.97628 3.53795 7.206 4.08219 6.65974 4.82224C6.11348 5.56228 5.82033 6.45871 5.82379 7.37853V12.6456H4.39134C3.25162 12.6456 2.15857 13.0984 1.35266 13.9043C0.546749 14.7102 0.0939941 15.8033 0.0939941 16.943V65.4386L86.041 65.4257V72.588C86.041 72.9679 85.8901 73.3322 85.6214 73.6009C85.3528 73.8695 84.9885 74.0204 84.6086 74.0204H4.39134C4.01144 74.0204 3.64709 73.8695 3.37845 73.6009C3.10981 73.3322 2.95889 72.9679 2.95889 72.588V68.2906H0.0939941V72.588C0.0939941 73.7277 0.546749 74.8207 1.35266 75.6266C2.15857 76.4326 3.25162 76.8853 4.39134 76.8853H33.0862L31.9402 81.1827H27.3105C26.1708 81.1827 25.0778 81.6354 24.2719 82.4413C23.466 83.2472 23.0132 84.3403 23.0132 85.48V86.6489H0.0939941V89.5138H83.1761V86.6489H65.9867V85.48C65.9867 84.3403 65.5339 83.2472 64.728 82.4413C63.9221 81.6354 62.8291 81.1827 61.6893 81.1827H57.0597L55.9137 76.8853H84.6086C85.7483 76.8853 86.8413 76.4326 87.6472 75.6266C88.4531 74.8207 88.9059 73.7277 88.9059 72.588V16.943C88.9059 15.8033 88.4531 14.7102 87.6472 13.9043C86.8413 13.0984 85.7483 12.6456 84.6086 12.6456ZM61.6893 84.0476C62.0693 84.0476 62.4336 84.1985 62.7022 84.4671C62.9709 84.7358 63.1218 85.1001 63.1218 85.48V86.6489H25.8781V85.48C25.8781 85.1001 26.029 84.7358 26.2976 84.4671C26.5663 84.1985 26.9306 84.0476 27.3105 84.0476H47.3648V81.1827H34.9025L36.0485 76.8853H52.9514L54.0974 81.1827H50.2297V84.0476H61.6893ZM8.68869 7.37853C8.68863 7.07212 8.78683 6.77377 8.96885 6.52729C9.15088 6.28081 9.40714 6.09919 9.7 6.00911C20.2397 2.75316 31.5165 2.75316 42.0562 6.00911L43.0675 6.32138V18.1549H45.9324V6.31995L46.9437 6.00911C57.4831 2.75461 68.7591 2.75461 79.2985 6.00911C79.5916 6.09894 79.8482 6.28045 80.0305 6.52695C80.2128 6.77345 80.3112 7.07194 80.3112 7.37853V52.3575C80.3112 52.5978 80.2507 52.8344 80.1353 53.0452C80.0199 53.2561 79.8533 53.4345 79.6508 53.5641C79.4483 53.6936 79.2165 53.7701 78.9767 53.7866C78.7369 53.803 78.4968 53.7589 78.2785 53.6581C73.5277 51.4613 68.356 50.3234 63.1218 50.3234C57.8876 50.3234 52.7159 51.4613 47.965 53.6581L45.9324 54.5921V21.0198H43.0675V54.5921L41.0348 53.6538C36.284 51.457 31.1123 50.3191 25.8781 50.3191C20.6439 50.3191 15.4722 51.457 10.7213 53.6538C10.5031 53.7546 10.263 53.7987 10.0232 53.7823C9.78337 53.7658 9.55155 53.6893 9.34907 53.5598C9.1466 53.4302 8.97999 53.2518 8.86458 53.0409C8.74918 52.8301 8.68869 52.5935 8.68869 52.3532V7.37853ZM86.041 62.5608H2.95889V16.943C2.95889 16.5631 3.10981 16.1987 3.37845 15.9301C3.64709 15.6615 4.01144 15.5105 4.39134 15.5105H5.82379V52.3532C5.82378 53.0743 6.00525 53.7838 6.35146 54.4164C6.69768 55.049 7.19752 55.5843 7.80493 55.9729C8.41235 56.3616 9.10781 56.5912 9.82724 56.6405C10.5467 56.6898 11.267 56.5573 11.9217 56.2552C16.2963 54.232 21.0584 53.184 25.8781 53.184C30.6978 53.184 35.4599 54.232 39.8345 56.2552L43.8997 58.1317C44.0882 58.2177 44.2928 58.2622 44.4999 58.2622C44.7071 58.2622 44.9117 58.2177 45.1001 58.1317L49.1654 56.2552C53.5399 54.2317 58.302 53.1836 63.1218 53.1836C67.9416 53.1836 72.7037 54.2317 77.0782 56.2552C77.7329 56.5573 78.4532 56.6898 79.1726 56.6405C79.8921 56.5912 80.5875 56.3616 81.195 55.9729C81.8024 55.5843 82.3022 55.049 82.6484 54.4164C82.9946 53.7838 83.1761 53.0743 83.1761 52.3532V15.5105H84.6086C84.9885 15.5105 85.3528 15.6615 85.6214 15.9301C85.8901 16.1987 86.041 16.5631 86.041 16.943V62.5608Z" fill="#333333"/>
<path d="M86.0411 86.6488H88.906V89.5137H86.0411V86.6488Z" fill="#333333"/>
<path d="M30.0913 10.5151L23.6114 23.1945H20.8909L27.3707 10.5151H30.0913Z" fill="#98ADF8"/>
<path d="M19.9202 12.9719V15.6595L15.6497 16.8961L19.9202 18.1327V20.8203L12.7478 18.2152V15.5606L19.9202 12.9719Z" fill="#333333"/>
<path d="M31.0624 12.9719L38.1853 15.5606V18.2152L31.0624 20.8203V18.1327L35.2834 16.8961L31.0624 15.6595V12.9719Z" fill="#333333"/>
</svg>
